<svg width="150" height="150" viewBox="0 0 150 150" fill="none" xmlns="http://www.w3.org/2000/svg">
<path d="M150 51.6818L138.068 135.406L36.0085 120.873L30.9285 120.149L15.5032 117.954L6.7612 116.708L0 115.745L11.9309 32.0235L150 51.6818Z" fill="#F3F8FF"/>
<path d="M54.6762 30.5751L50.862 33.4605C50.2753 33.9044 50.1597 34.7397 50.6037 35.3261L56.0804 42.5592C56.5245 43.1457 57.3601 43.2613 57.9468 42.8175L61.761 39.932C62.3477 39.4881 62.4633 38.6528 62.0193 38.0664L56.5426 30.8333C56.0986 30.2468 55.2629 30.1312 54.6762 30.5751Z" fill="#454E54"/>
<path d="M54.245 26.576L47.129 31.9594C46.6018 32.3583 46.4978 33.1089 46.8969 33.6359L49.2145 36.6968C49.6135 37.2238 50.3645 37.3277 50.8918 36.9288L58.0077 31.5455C58.535 31.1466 58.6389 30.3959 58.2399 29.8689L55.9223 26.808C55.5232 26.281 54.7723 26.1771 54.245 26.576Z" fill="#454E54"/>
<path d="M88.416 18.8192H83.6326C82.8968 18.8192 82.3003 19.4154 82.3003 20.151V29.2221C82.3003 29.9576 82.8968 30.5539 83.6326 30.5539H88.416C89.1519 30.5539 89.7484 29.9576 89.7484 29.2221V20.151C89.7484 19.4154 89.1519 18.8192 88.416 18.8192Z" fill="#454E54"/>
<path d="M90.4865 15.3706H81.5622C80.9009 15.3706 80.3649 15.9064 80.3649 16.5674V20.4061C80.3649 21.0671 80.9009 21.6029 81.5622 21.6029H90.4865C91.1477 21.6029 91.6838 21.0671 91.6838 20.4061V16.5674C91.6838 15.9064 91.1477 15.3706 90.4865 15.3706Z" fill="#454E54"/>
<path d="M86.0242 124.288C112.738 124.288 134.393 102.642 134.393 75.9402C134.393 49.2382 112.738 27.5919 86.0242 27.5919C59.3107 27.5919 37.6552 49.2382 37.6552 75.9402C37.6552 102.642 59.3107 124.288 86.0242 124.288Z" fill="#C9DAF4"/>
<path d="M86.0243 113.074C106.541 113.074 123.174 96.4486 123.174 75.9402C123.174 55.4318 106.541 38.8065 86.0243 38.8065C65.5071 38.8065 48.8746 55.4318 48.8746 75.9402C48.8746 96.4486 65.5071 113.074 86.0243 113.074Z" fill="white"/>
<path d="M53.5969 100.285C53.5796 100.285 53.5626 100.281 53.5472 100.273C53.5317 100.265 53.5184 100.254 53.5082 100.24C48.2212 93.1841 45.4295 84.7808 45.4295 75.9372C45.4238 68.2921 47.5796 60.801 51.6483 54.3274C55.717 47.8538 61.5331 42.6613 68.4261 39.3483C75.319 36.0353 83.0083 34.7368 90.6075 35.6025C98.2067 36.4681 105.407 39.4626 111.377 44.2409C111.4 44.2596 111.414 44.2865 111.418 44.3158C111.421 44.3451 111.412 44.3744 111.394 44.3975C111.375 44.4202 111.349 44.4347 111.319 44.4379C111.29 44.441 111.261 44.4325 111.238 44.4143C104.016 38.6351 95.2974 35.5805 86.0262 35.5805C63.7589 35.5834 45.6492 53.6873 45.6492 75.9372C45.6492 84.7296 48.4282 93.0866 53.6856 100.104C53.7031 100.128 53.7106 100.157 53.7065 100.186C53.7025 100.215 53.6872 100.242 53.6639 100.26C53.6449 100.275 53.6214 100.284 53.5969 100.285Z" fill="#002E5D"/>
<path d="M51.8832 110.3C51.8686 110.3 51.8541 110.297 51.8405 110.292C51.827 110.286 51.8147 110.278 51.8043 110.268C45.0346 103.518 40.4101 94.9202 38.5112 85.5531C36.6123 76.186 37.5237 66.4669 41.1309 57.6156C41.1358 57.6013 41.1436 57.5881 41.1537 57.5769C41.1639 57.5656 41.1763 57.5566 41.1901 57.5503C41.2039 57.544 41.2188 57.5406 41.234 57.5403C41.2491 57.54 41.2642 57.5427 41.2782 57.5485C41.2923 57.5542 41.305 57.5627 41.3157 57.5735C41.3263 57.5843 41.3346 57.5971 41.3401 57.6113C41.3456 57.6254 41.3481 57.6405 41.3476 57.6557C41.347 57.6708 41.3434 57.6857 41.3368 57.6994C38.969 63.488 37.7561 69.6835 37.7665 75.9372C37.7665 88.8549 42.8071 100.99 51.9571 110.107C51.9726 110.122 51.9833 110.142 51.9876 110.164C51.992 110.185 51.9898 110.208 51.9815 110.228C51.9732 110.248 51.959 110.266 51.9408 110.278C51.9226 110.29 51.9012 110.297 51.8792 110.297L51.8832 110.3Z" fill="#002E5D"/>
<path d="M101.869 121.746C101.843 121.746 101.817 121.737 101.797 121.72C101.777 121.703 101.763 121.679 101.759 121.653C101.754 121.627 101.76 121.6 101.773 121.578C101.787 121.555 101.808 121.538 101.833 121.529C121.246 114.807 134.282 96.485 134.282 75.9402C134.285 75.9126 134.297 75.887 134.318 75.8683C134.338 75.8497 134.365 75.8393 134.393 75.8393C134.421 75.8393 134.447 75.8497 134.468 75.8683C134.488 75.887 134.501 75.9126 134.504 75.9402C134.504 86.215 131.329 96.0348 125.32 104.327C119.485 112.392 111.311 118.471 101.906 121.741C101.894 121.745 101.882 121.746 101.869 121.746Z" fill="#002E5D"/>
<path d="M117.055 38.9631C117.029 38.9635 117.004 38.9544 116.984 38.9375C110.836 33.8042 103.507 30.2789 95.6572 28.6783C87.8076 27.0777 79.6831 27.4521 72.0141 29.7678C71.9998 29.7731 71.9847 29.7754 71.9695 29.7746C71.9543 29.7737 71.9394 29.7698 71.9258 29.763C71.9122 29.7563 71.9002 29.7468 71.8904 29.7352C71.8806 29.7235 71.8732 29.71 71.8689 29.6955C71.8645 29.6809 71.8631 29.6656 71.8649 29.6505C71.8666 29.6355 71.8715 29.6209 71.8791 29.6077C71.8867 29.5946 71.8969 29.5831 71.9091 29.574C71.9213 29.565 71.9353 29.5585 71.9501 29.5551C79.6528 27.2159 87.8175 26.8332 95.7054 28.4416C103.593 30.0501 110.956 33.5989 117.126 38.7671C117.149 38.786 117.163 38.8132 117.166 38.8425C117.168 38.8719 117.159 38.9011 117.14 38.9237C117.13 38.9362 117.117 38.9462 117.102 38.953C117.087 38.9598 117.071 38.9633 117.055 38.9631Z" fill="#002E5D"/>
<path d="M86.0243 26.8827C83.9583 26.8827 81.9387 26.2703 80.2209 25.123C78.5031 23.9757 77.1643 22.345 76.3736 20.4371C75.583 18.5292 75.3762 16.4298 75.7792 14.4043C76.1823 12.3789 77.1771 10.5184 78.638 9.0582C80.0989 7.59795 81.9601 6.60351 83.9864 6.20063C86.0127 5.79775 88.113 6.00452 90.0218 6.7948C91.9305 7.58508 93.5619 8.92338 94.7097 10.6404C95.8575 12.3575 96.4701 14.3762 96.4701 16.4413C96.467 19.2096 95.3655 21.8636 93.4072 23.821C91.4489 25.7785 88.7938 26.8795 86.0243 26.8827ZM86.0243 7.33078C84.2216 7.33059 82.4593 7.86475 80.9603 8.86571C79.4613 9.86667 78.2929 11.2895 77.6029 12.9542C76.9129 14.6189 76.7323 16.4508 77.0839 18.2181C77.4354 19.9855 78.3034 21.6089 79.5781 22.8831C80.8527 24.1574 82.4768 25.0252 84.2448 25.3768C86.0129 25.7284 87.8456 25.548 89.5111 24.8585C91.1766 24.169 92.6001 23.0012 93.6017 21.503C94.6032 20.0047 95.1378 18.2433 95.1378 16.4413C95.1349 14.0262 94.1738 11.7108 92.4654 10.0031C90.7569 8.29531 88.4405 7.33463 86.0243 7.33177V7.33078Z" fill="#454E54"/>
<path d="M86.0243 47.4019C85.7629 47.4019 85.5123 47.2981 85.3275 47.1134C85.1426 46.9286 85.0388 46.6781 85.0388 46.4168V42.2492C85.0388 41.9879 85.1426 41.7374 85.3275 41.5526C85.5123 41.3679 85.7629 41.2641 86.0243 41.2641C86.2856 41.2641 86.5363 41.3679 86.7211 41.5526C86.9059 41.7374 87.0097 41.9879 87.0097 42.2492V46.4158C87.0099 46.5453 86.9845 46.6735 86.935 46.7931C86.8855 46.9127 86.813 47.0214 86.7214 47.113C86.6299 47.2046 86.5212 47.2772 86.4016 47.3268C86.282 47.3763 86.1538 47.4019 86.0243 47.4019Z" fill="#325D9C"/>
<path d="M119.733 76.9262C120.278 76.9262 120.719 76.485 120.719 75.9407C120.719 75.3964 120.278 74.9551 119.733 74.9551H115.562C115.018 74.9551 114.576 75.3964 114.576 75.9407C114.576 76.485 115.018 76.9262 115.562 76.9262H119.733Z" fill="#C9DAF4"/>
<path d="M106.213 96.1205C106.398 95.9358 106.649 95.8321 106.91 95.8321C107.171 95.8321 107.422 95.9358 107.607 96.1205L110.557 99.0687C110.649 99.1602 110.722 99.2688 110.771 99.3884C110.821 99.508 110.846 99.6362 110.846 99.7656C110.846 99.8951 110.821 100.023 110.771 100.143C110.722 100.262 110.649 100.371 110.557 100.463C110.466 100.554 110.357 100.627 110.237 100.676C110.118 100.726 109.99 100.751 109.86 100.751C109.731 100.751 109.602 100.726 109.483 100.676C109.363 100.627 109.254 100.554 109.163 100.463L106.213 97.5143C106.122 97.4228 106.049 97.3142 105.999 97.1946C105.95 97.075 105.924 96.9469 105.924 96.8174C105.924 96.688 105.95 96.5598 105.999 96.4402C106.049 96.3206 106.122 96.212 106.213 96.1205Z" fill="#C9DAF4"/>
<path d="M86.0243 104.479C86.2856 104.479 86.5363 104.583 86.7211 104.768C86.9059 104.953 87.0097 105.203 87.0097 105.465V109.634C87.0097 109.895 86.9059 110.146 86.7211 110.331C86.5363 110.515 86.2856 110.619 86.0243 110.619C85.7629 110.619 85.5123 110.515 85.3275 110.331C85.1426 110.146 85.0388 109.895 85.0388 109.634V105.465C85.0388 105.203 85.1426 104.953 85.3275 104.768C85.5123 104.583 85.7629 104.479 86.0243 104.479Z" fill="#C9DAF4"/>
<path d="M65.8353 96.1205C65.9269 96.212 65.9996 96.3206 66.0492 96.4402C66.0988 96.5598 66.1243 96.688 66.1243 96.8174C66.1243 96.9469 66.0988 97.0751 66.0492 97.1946C65.9996 97.3142 65.9269 97.4229 65.8353 97.5143L62.8858 100.465C62.701 100.649 62.4504 100.753 62.1891 100.753C61.9278 100.753 61.6772 100.649 61.4924 100.465C61.4008 100.373 61.3281 100.264 61.2785 100.145C61.2289 100.025 61.2034 99.897 61.2034 99.7676C61.2034 99.6382 61.2289 99.51 61.2785 99.3904C61.3281 99.2708 61.4008 99.1622 61.4924 99.0707L64.4419 96.1225C64.6264 95.9376 64.8769 95.8335 65.1382 95.8331C65.3995 95.8327 65.6502 95.9361 65.8353 96.1205Z" fill="#C9DAF4"/>
<path d="M57.4727 75.9372C57.4727 76.1985 57.3688 76.449 57.184 76.6338C56.9992 76.8185 56.7486 76.9223 56.4872 76.9223H52.3148C52.0534 76.9223 51.8028 76.8185 51.618 76.6338C51.4332 76.449 51.3293 76.1985 51.3293 75.9372C51.3293 75.676 51.4332 75.4255 51.618 75.2407C51.8028 75.056 52.0534 74.9522 52.3148 74.9522H56.4862C56.6157 74.9521 56.744 74.9775 56.8637 75.0269C56.9833 75.0764 57.0921 75.1489 57.1837 75.2404C57.2753 75.3319 57.348 75.4405 57.3976 75.5601C57.4471 75.6796 57.4727 75.8078 57.4727 75.9372Z" fill="#C9DAF4"/>
<path d="M65.8353 55.7608C65.7438 55.8524 65.6351 55.9251 65.5154 55.9746C65.3958 56.0242 65.2676 56.0497 65.1381 56.0497C65.0086 56.0497 64.8803 56.0242 64.7607 55.9746C64.6411 55.9251 64.5324 55.8524 64.4409 55.7608L61.4924 52.8117C61.4008 52.7202 61.3281 52.6115 61.2785 52.492C61.2289 52.3724 61.2034 52.2442 61.2034 52.1147C61.2034 51.9853 61.2289 51.8571 61.2785 51.7375C61.3281 51.618 61.4008 51.5093 61.4924 51.4178C61.5839 51.3262 61.6926 51.2536 61.8122 51.204C61.9319 51.1545 62.0601 51.1289 62.1896 51.1289C62.3191 51.1289 62.4473 51.1545 62.567 51.204C62.6866 51.2536 62.7953 51.3262 62.8868 51.4178L65.8353 54.365C65.9272 54.4566 66.0001 54.5653 66.0499 54.6851C66.0997 54.8049 66.1253 54.9333 66.1253 55.0629C66.1253 55.1926 66.0997 55.321 66.0499 55.4408C66.0001 55.5606 65.9272 55.6693 65.8353 55.7608Z" fill="#C9DAF4"/>
<path d="M86.724 92.6306L64.3394 70.2556L73.7613 60.8377L86.724 73.7948L131.833 28.706L141.255 38.1238L86.724 92.6306Z" fill="#325D9C"/>
<path d="M86.3259 89.048C86.3097 89.048 86.2938 89.0444 86.2792 89.0376C86.2645 89.0308 86.2516 89.0209 86.2411 89.0086L65.7555 64.8871C65.7371 64.8644 65.7279 64.8356 65.7299 64.8064C65.7325 64.7769 65.7467 64.7496 65.7693 64.7305L75.9264 56.1105C75.9374 56.101 75.9503 56.0937 75.9642 56.0892C75.9781 56.0847 75.9928 56.083 76.0074 56.0842C76.022 56.0853 76.0362 56.0894 76.0492 56.0961C76.0621 56.1029 76.0737 56.1121 76.0831 56.1233L87.875 70.0064L136.419 28.8064C136.442 28.7874 136.471 28.7781 136.5 28.7805C136.53 28.7829 136.557 28.7968 136.576 28.8192L145.201 38.972C145.219 38.9947 145.229 39.0235 145.226 39.0527C145.224 39.0821 145.21 39.1094 145.188 39.1286L120.952 59.698C120.941 59.7085 120.928 59.7166 120.914 59.7219C120.899 59.7272 120.884 59.7295 120.869 59.7287C120.854 59.7279 120.839 59.724 120.825 59.7173C120.812 59.7106 120.8 59.7011 120.79 59.6896C120.78 59.678 120.773 59.6645 120.768 59.65C120.764 59.6355 120.763 59.6203 120.764 59.6052C120.766 59.5901 120.771 59.5755 120.778 59.5624C120.786 59.5492 120.796 59.5377 120.808 59.5286L144.96 39.0311L136.479 29.0497L87.9341 70.2477C87.9231 70.2573 87.9103 70.2646 87.8964 70.2692C87.8825 70.2737 87.8679 70.2755 87.8533 70.2743C87.8389 70.273 87.8248 70.2688 87.812 70.262C87.7991 70.2553 87.7877 70.2461 87.7784 70.2349L75.9845 56.3509L65.9969 64.828L86.3426 88.7801L94.719 81.6672C94.7417 81.6501 94.77 81.6423 94.7983 81.6455C94.8265 81.6486 94.8525 81.6624 94.8708 81.6841C94.8892 81.7057 94.8986 81.7336 94.8971 81.7619C94.8957 81.7903 94.8834 81.817 94.8629 81.8366L86.3978 89.0214C86.3778 89.0386 86.3523 89.048 86.3259 89.048Z" fill="#002E5D"/>
<path d="M107.601 110.3C107.581 110.301 107.562 110.296 107.545 110.287C107.527 110.278 107.513 110.264 107.502 110.248C107.495 110.236 107.489 110.222 107.487 110.207C107.484 110.193 107.485 110.178 107.488 110.164C107.492 110.15 107.498 110.137 107.506 110.125C107.515 110.113 107.525 110.103 107.538 110.095C119.348 102.646 126.398 89.8784 126.398 75.9372C126.411 67.8954 124.008 60.035 119.5 53.3741C119.484 53.3497 119.477 53.3197 119.483 53.2907C119.489 53.2617 119.505 53.236 119.53 53.2195C119.554 53.2029 119.584 53.1967 119.613 53.2022C119.642 53.2077 119.668 53.2246 119.685 53.249C123.891 59.4916 126.28 66.7797 126.584 74.3003C126.889 81.8208 125.097 89.278 121.408 95.8398C118.087 101.715 113.363 106.677 107.656 110.282C107.64 110.293 107.621 110.299 107.601 110.3Z" fill="#002E5D"/>
<path d="M69.8362 100.725L80.6604 100.174L78.456 104.181L80.8605 110.492L69.8362 110.041V100.725Z" fill="#F70431"/>
<path d="M82.8275 139.871L53.2993 135.667C52.6972 135.581 52.1539 135.259 51.7887 134.773C51.4236 134.287 51.2665 133.676 51.352 133.074L54.2512 112.732C54.3371 112.13 54.6587 111.587 55.1451 111.222C55.6315 110.858 56.2429 110.701 56.845 110.787L86.3731 114.992C86.9751 115.077 87.5184 115.399 87.8836 115.885C88.2488 116.371 88.4059 116.982 88.3204 117.583L85.4212 137.925C85.3353 138.527 85.0138 139.07 84.5274 139.435C84.0409 139.8 83.4295 139.956 82.8275 139.871Z" fill="#325D9C"/>
<path d="M85.7808 137.622C85.7217 137.622 85.6626 137.622 85.6025 137.615L69.8283 136.457C69.8002 136.453 69.7746 136.438 69.7567 136.417C69.7388 136.395 69.73 136.367 69.732 136.338C69.734 136.31 69.7467 136.284 69.7675 136.264C69.7884 136.245 69.8157 136.235 69.8441 136.235L85.6192 137.393C86.1962 137.435 86.7661 137.246 87.204 136.869C87.6419 136.491 87.9119 135.955 87.9548 135.378L89.4605 114.889C89.5026 114.313 89.3138 113.743 88.9358 113.305C88.5577 112.867 88.0213 112.597 87.4443 112.555L73.1109 111.497C73.0957 111.497 73.0808 111.493 73.067 111.487C73.0532 111.481 73.0408 111.472 73.0306 111.46C73.0204 111.449 73.0126 111.436 73.0077 111.422C73.0027 111.407 73.0008 111.392 73.0019 111.377C73.0031 111.362 73.0073 111.347 73.0143 111.334C73.0213 111.321 73.031 111.309 73.0428 111.299C73.0546 111.29 73.0682 111.283 73.0827 111.278C73.0973 111.274 73.1126 111.273 73.1276 111.275L87.461 112.327C87.7759 112.35 88.0832 112.435 88.3652 112.577C88.6473 112.719 88.8986 112.915 89.1049 113.154C89.3112 113.393 89.4683 113.67 89.5674 113.97C89.6665 114.269 89.7055 114.585 89.6823 114.9L88.1765 135.389C88.1327 135.994 87.8615 136.561 87.4172 136.975C86.9729 137.39 86.3884 137.62 85.7808 137.622Z" fill="#002E5D"/>
<path d="M54.2217 126.491H54.2139C54.1852 126.488 54.1589 126.474 54.1405 126.451C54.1221 126.429 54.1131 126.401 54.1153 126.372L55.1441 112.367C55.1913 111.731 55.4889 111.14 55.9715 110.724C56.4541 110.308 57.0823 110.1 57.7181 110.146L66.6138 110.799C66.6424 110.803 66.6686 110.817 66.6869 110.839C66.7052 110.862 66.7144 110.89 66.7124 110.919C66.7094 110.947 66.6952 110.974 66.6729 110.992C66.6506 111.011 66.622 111.02 66.5931 111.017L57.6974 110.364C57.1207 110.323 56.551 110.511 56.1132 110.889C55.6755 111.266 55.4053 111.802 55.3619 112.378L54.3331 126.385C54.3318 126.413 54.3195 126.44 54.2988 126.46C54.278 126.48 54.2504 126.491 54.2217 126.491Z" fill="#002E5D"/>
<path d="M74.7793 130.27C77.5094 127.541 77.5094 123.116 74.7793 120.387C72.0493 117.658 67.6229 117.658 64.8928 120.387C62.1628 123.116 62.1628 127.541 64.8928 130.27C67.6229 132.999 72.0493 132.999 74.7793 130.27Z" fill="white"/>
<path d="M69.8362 125.44C69.8068 125.44 69.7786 125.428 69.7578 125.407C69.7369 125.386 69.7251 125.358 69.7249 125.329V100.174C69.7249 100.144 69.7366 100.116 69.7575 100.095C69.7784 100.074 69.8067 100.063 69.8362 100.063C69.8657 100.063 69.8941 100.074 69.915 100.095C69.9358 100.116 69.9476 100.144 69.9476 100.174V125.329C69.9473 125.358 69.9355 125.386 69.9147 125.407C69.8938 125.428 69.8657 125.44 69.8362 125.44Z" fill="#002E5D"/>
<path d="M66.8858 140.144H18.0338C18.0043 140.144 17.976 140.133 17.9551 140.112C17.9342 140.091 17.9225 140.063 17.9225 140.033C17.9225 140.004 17.9342 139.975 17.9551 139.954C17.976 139.934 18.0043 139.922 18.0338 139.922H66.8858C66.9153 139.922 66.9436 139.934 66.9645 139.954C66.9854 139.975 66.9971 140.004 66.9971 140.033C66.9971 140.063 66.9854 140.091 66.9645 140.112C66.9436 140.133 66.9153 140.144 66.8858 140.144Z" fill="#002E5D"/>
<path d="M125.645 143.116H32.7496C32.7342 143.118 32.7186 143.116 32.7039 143.111C32.6892 143.106 32.6757 143.098 32.6642 143.088C32.6527 143.077 32.6436 143.065 32.6373 143.051C32.631 143.036 32.6278 143.021 32.6278 143.006C32.6278 142.99 32.631 142.975 32.6373 142.961C32.6436 142.946 32.6527 142.934 32.6642 142.923C32.6757 142.913 32.6892 142.905 32.7039 142.9C32.7186 142.895 32.7342 142.893 32.7496 142.895H125.645C125.661 142.893 125.676 142.895 125.691 142.9C125.706 142.905 125.719 142.913 125.731 142.923C125.742 142.934 125.752 142.946 125.758 142.961C125.764 142.975 125.767 142.99 125.767 143.006C125.767 143.021 125.764 143.036 125.758 143.051C125.752 143.065 125.742 143.077 125.731 143.088C125.719 143.098 125.706 143.106 125.691 143.111C125.676 143.116 125.661 143.118 125.645 143.116Z" fill="#002E5D"/>
<path d="M145.697 119.373C146.278 115.796 143.848 112.426 140.269 111.845C136.691 111.264 133.319 113.693 132.738 117.27C132.157 120.847 134.587 124.217 138.166 124.798C141.744 125.379 145.116 122.95 145.697 119.373Z" fill="#C9DAF4"/>
<path d="M68.8334 15.8289C69.0876 14.7524 68.4207 13.6739 67.3438 13.4198C66.2669 13.1658 65.1879 13.8324 64.9337 14.9088C64.6796 15.9852 65.3465 17.0638 66.4234 17.3179C67.5002 17.5719 68.5793 16.9053 68.8334 15.8289Z" fill="#C9DAF4"/>
<path d="M15.642 103.786C15.8962 102.71 15.2292 101.631 14.1524 101.377C13.0755 101.123 11.9965 101.79 11.7423 102.866C11.4881 103.943 12.1551 105.021 13.232 105.275C14.3088 105.529 15.3879 104.863 15.642 103.786Z" fill="#C9DAF4"/>
<path d="M142.263 120.842C142.2 120.842 142.139 120.824 142.086 120.79L135.984 116.933C135.909 116.886 135.856 116.811 135.837 116.725C135.817 116.639 135.833 116.548 135.88 116.474C135.927 116.399 136.002 116.346 136.088 116.327C136.174 116.307 136.265 116.323 136.34 116.37L142.442 120.227C142.503 120.266 142.55 120.323 142.575 120.391C142.601 120.458 142.604 120.532 142.584 120.602C142.564 120.671 142.522 120.732 142.464 120.775C142.406 120.819 142.336 120.842 142.263 120.842Z" fill="white"/>
<path d="M137.283 121.963C137.223 121.963 137.165 121.947 137.113 121.916C137.062 121.886 137.02 121.842 136.991 121.79C136.963 121.738 136.948 121.679 136.95 121.619C136.952 121.56 136.97 121.502 137.002 121.452L140.861 115.352C140.883 115.314 140.914 115.28 140.949 115.253C140.985 115.226 141.026 115.207 141.07 115.196C141.113 115.186 141.158 115.184 141.202 115.191C141.247 115.198 141.289 115.214 141.327 115.238C141.365 115.262 141.397 115.294 141.423 115.33C141.448 115.367 141.466 115.409 141.475 115.453C141.484 115.496 141.484 115.542 141.475 115.585C141.466 115.629 141.449 115.671 141.424 115.708L137.569 121.808C137.539 121.856 137.496 121.896 137.446 121.923C137.396 121.95 137.34 121.964 137.283 121.963Z" fill="white"/>
</svg>
