<svg width="150" height="150" viewBox="0 0 150 150" fill="none" xmlns="http://www.w3.org/2000/svg">
<g id="6" clip-path="url(#clip0_130_722)">
<g id="&#208;&#161;&#208;&#187;&#208;&#190;&#208;&#185; 2">
<g id="Layer 1">
<path id="Vector" d="M149.87 108.896L135.992 111.095L123.964 112.999L8.90659 131.223L0 92.5882L135.529 51.0255L149.87 108.896Z" fill="#F3F8FF"/>
<path id="Vector_2" d="M50.9635 40.5853L53.2942 36.8354L48.8885 31.3103L44.713 32.7428L39.8407 30.0539L38.837 25.7566L31.8141 24.9647L29.8762 28.9284L24.5261 30.4693L20.7752 28.1396L15.2502 32.5453L16.6826 36.7198L13.9968 41.5951L9.69955 42.5999C9.30154 46.1062 9.30052 46.1175 8.90149 49.6228L12.8693 51.5576L14.4112 56.9077L12.0804 60.6576L16.4872 66.1826L20.6617 64.7502L25.5339 67.4421L26.5387 71.7394L33.5606 72.5303L35.5036 68.5625L40.8537 67.0216L44.6035 69.3513L50.1286 64.9456L48.6911 60.7711L51.384 55.8978L55.6813 54.8941L56.4783 47.8712L52.5105 45.9354L50.9635 40.5853ZM35.2171 57.5206C33.4818 58.0205 31.6372 57.9946 29.9166 57.4462C28.1959 56.8977 26.6766 55.8514 25.5507 54.4394C24.4248 53.0275 23.7428 51.3134 23.5911 49.5139C23.4394 47.7143 23.8247 45.9102 24.6983 44.3297C25.5719 42.7492 26.8946 41.4632 28.4991 40.6344C30.1036 39.8056 31.9178 39.4713 33.7123 39.6736C35.5069 39.8759 37.2011 40.6058 38.5808 41.771C39.9605 42.9362 40.9637 44.4844 41.4635 46.2198C42.1336 48.5467 41.852 51.0445 40.6806 53.1638C39.5092 55.2831 37.5439 56.8502 35.2171 57.5206Z" fill="#F3F8FF"/>
<path id="Vector_3" d="M31.4498 69.8885H31.4354L24.4135 69.0966C24.3865 69.0935 24.3612 69.0819 24.3411 69.0635C24.3211 69.0451 24.3074 69.0209 24.302 68.9943L23.3105 64.7512L18.5385 62.1135L14.4183 63.5316C14.3931 63.5405 14.3658 63.5413 14.3401 63.534C14.3145 63.5266 14.2917 63.5115 14.275 63.4907L9.8683 57.9656C9.85184 57.9446 9.84224 57.9189 9.84078 57.8922C9.83931 57.8655 9.84606 57.839 9.86011 57.8163L12.1602 54.1155L10.651 48.88L6.73437 46.9667C6.71032 46.955 6.69051 46.9361 6.67767 46.9126C6.66484 46.8892 6.65963 46.8623 6.66275 46.8357L7.45365 39.8128C7.45706 39.7859 7.46874 39.7607 7.48706 39.7408C7.50539 39.7208 7.52946 39.707 7.55596 39.7013L11.8 38.7098L14.4336 33.9419L13.0155 29.8186C13.007 29.7933 13.0064 29.766 13.0139 29.7403C13.0214 29.7147 13.0366 29.692 13.0575 29.6753L18.5825 25.2686C18.6035 25.2522 18.6289 25.2427 18.6554 25.2412C18.682 25.2398 18.7083 25.2465 18.7309 25.2604L22.4327 27.5605L27.6723 26.0513L29.5825 22.1347C29.5942 22.1105 29.613 22.0906 29.6365 22.0776C29.6599 22.0646 29.6868 22.0591 29.7135 22.062L36.7364 22.854C36.7634 22.8572 36.7886 22.8689 36.8086 22.8872C36.8286 22.9056 36.8424 22.9297 36.8479 22.9563L37.8517 27.2535C37.8556 27.2701 37.8562 27.2872 37.8535 27.304C37.8508 27.3208 37.8448 27.3368 37.8359 27.3513C37.827 27.3657 37.8153 27.3783 37.8015 27.3882C37.7877 27.3981 37.772 27.4052 37.7555 27.4091C37.7389 27.4131 37.7218 27.4139 37.7049 27.4113C37.6881 27.4086 37.672 27.4026 37.6575 27.3937C37.643 27.3847 37.6304 27.373 37.6206 27.3591C37.6107 27.3452 37.6037 27.3295 37.6 27.3129L36.6167 23.0964L29.7738 22.3301L27.8769 26.2181C27.8691 26.2343 27.858 26.2488 27.8442 26.2604C27.8304 26.272 27.8144 26.2806 27.7971 26.2856L22.447 27.8265C22.4299 27.8312 22.412 27.8324 22.3944 27.8299C22.3768 27.8275 22.3598 27.8214 22.3447 27.8122L18.6726 25.5305L13.2897 29.8227L14.6976 33.9153C14.703 33.9321 14.7049 33.9498 14.7034 33.9674C14.7018 33.985 14.6967 34.0021 14.6884 34.0176L11.9954 38.8899C11.9869 38.9059 11.9749 38.9199 11.9604 38.9308C11.946 38.9418 11.9293 38.9494 11.9115 38.9533L7.70125 39.9376L6.92979 46.7784L10.8178 48.6733C10.834 48.6815 10.8483 48.6929 10.8599 48.7068C10.8715 48.7207 10.8802 48.7368 10.8853 48.7542L12.4241 54.0981C12.4291 54.1152 12.4303 54.1332 12.4279 54.1508C12.4254 54.1684 12.4193 54.1853 12.4098 54.2004L10.1292 57.8766L14.4265 63.2595L18.5191 61.8526C18.5358 61.8468 18.5535 61.8446 18.5711 61.846C18.5887 61.8474 18.6058 61.8525 18.6214 61.8608L23.4937 64.5538C23.5095 64.5626 23.5233 64.5746 23.5342 64.5891C23.5451 64.6035 23.5529 64.62 23.5571 64.6377L24.5414 68.849L31.3812 69.6194L33.2771 65.7314C33.2853 65.7152 33.2967 65.7009 33.3106 65.6893C33.3245 65.6777 33.3406 65.669 33.3579 65.6639L38.6998 64.1251C38.717 64.1203 38.7349 64.1192 38.7525 64.1216C38.7701 64.1241 38.787 64.1301 38.8022 64.1394L42.4743 66.421L47.8571 62.1238L46.4492 58.0311C46.4439 58.0143 46.442 57.9966 46.4436 57.979C46.4452 57.9615 46.4502 57.9444 46.4585 57.9288L49.1524 53.0565C49.1606 53.0417 49.1717 53.0286 49.1849 53.018C49.1982 53.0074 49.2134 52.9996 49.2297 52.9949C49.246 52.9902 49.263 52.9887 49.2799 52.9906C49.2967 52.9925 49.313 52.9977 49.3279 53.0059C49.3427 53.0141 49.3558 53.0251 49.3664 53.0384C49.377 53.0516 49.3849 53.0668 49.3896 53.0831C49.3943 53.0994 49.3957 53.1165 49.3938 53.1334C49.3919 53.1502 49.3867 53.1665 49.3785 53.1814L46.7132 58.0035L48.1323 62.1238C48.1408 62.1492 48.1414 62.1767 48.1339 62.2024C48.1264 62.2282 48.1112 62.2511 48.0904 62.268L42.5633 66.6829C42.5425 66.6996 42.517 66.7093 42.4904 66.7108C42.4638 66.7123 42.4374 66.7054 42.4149 66.6911L38.7162 64.3901L33.4766 65.8992L31.5664 69.8159C31.5555 69.8375 31.5389 69.8557 31.5183 69.8686C31.4977 69.8814 31.474 69.8883 31.4498 69.8885ZM30.578 55.2369C28.3459 55.2375 26.1886 54.4318 24.5032 52.9683C22.8178 51.5047 21.7176 49.4817 21.4052 47.2715C21.0928 45.0613 21.5891 42.8127 22.8028 40.9393C24.0166 39.066 25.866 37.694 28.0109 37.0758C28.0436 37.0677 28.0782 37.0726 28.1073 37.0894C28.1365 37.1062 28.158 37.1337 28.1672 37.1661C28.1765 37.1985 28.1729 37.2332 28.1571 37.2629C28.1413 37.2926 28.1146 37.3151 28.0825 37.3255C26.8055 37.6924 25.6255 38.3375 24.6271 39.2144C23.6288 40.0913 22.837 41.1782 22.3084 42.3973C21.7798 43.6164 21.5276 44.9374 21.5698 46.2654C21.6121 47.5935 21.9478 48.8957 22.5528 50.0788C23.1578 51.2618 24.0171 52.2962 25.0691 53.1079C26.1212 53.9195 27.3398 54.4883 28.6376 54.7733C29.9354 55.0583 31.2802 55.0526 32.5756 54.7565C33.8709 54.4604 35.0846 53.8812 36.1297 53.0606C36.1431 53.0501 36.1585 53.0423 36.1749 53.0377C36.1914 53.0331 36.2086 53.0318 36.2256 53.0338C36.2425 53.0358 36.2589 53.0412 36.2738 53.0496C36.2887 53.058 36.3018 53.0692 36.3123 53.0826C36.3229 53.0961 36.3307 53.1114 36.3353 53.1279C36.3399 53.1443 36.3412 53.1615 36.3391 53.1785C36.3371 53.1955 36.3317 53.2119 36.3234 53.2267C36.315 53.2416 36.3038 53.2547 36.2903 53.2653C34.6591 54.5408 32.6487 55.235 30.578 55.2379V55.2369Z" fill="#002E5D"/>
<path id="Vector_4" d="M104.37 10.1299H98.3336V134.927H104.37C104.847 134.928 105.319 134.834 105.759 134.652C106.199 134.469 106.599 134.202 106.936 133.865C107.273 133.528 107.54 133.128 107.722 132.688C107.905 132.248 107.998 131.776 107.998 131.299V13.758C107.998 13.2815 107.905 12.8097 107.722 12.3694C107.54 11.9292 107.273 11.5292 106.936 11.1922C106.599 10.8553 106.199 10.5881 105.759 10.4058C105.319 10.2235 104.847 10.1297 104.37 10.1299Z" fill="#454E54"/>
<path id="Vector_5" d="M100.681 10.1299H45.1101C43.1063 10.1299 41.4819 11.7542 41.4819 13.758V131.304C41.4819 133.308 43.1063 134.933 45.1101 134.933H100.681C102.685 134.933 104.309 133.308 104.309 131.304V13.758C104.309 11.7542 102.685 10.1299 100.681 10.1299Z" fill="#C9DAF4"/>
<path id="Vector_6" d="M99.2391 128.203V16.8592C99.2391 15.9421 98.4957 15.1986 97.5786 15.1986L48.2102 15.1986C47.2931 15.1986 46.5496 15.9421 46.5496 16.8592L46.5496 128.203C46.5496 129.12 47.2931 129.864 48.2102 129.864H97.5786C98.4957 129.864 99.2391 129.12 99.2391 128.203Z" fill="white"/>
<path id="Vector_7" d="M97.8057 135.062H62.0863C62.0683 135.063 62.0502 135.061 62.0331 135.055C62.016 135.049 62.0003 135.04 61.987 135.028C61.9737 135.016 61.9631 135.001 61.9558 134.984C61.9486 134.968 61.9448 134.95 61.9448 134.932C61.9448 134.914 61.9486 134.896 61.9558 134.88C61.9631 134.863 61.9737 134.848 61.987 134.836C62.0003 134.824 62.016 134.815 62.0331 134.809C62.0502 134.803 62.0683 134.801 62.0863 134.803H97.8057C98.7334 134.802 99.6228 134.433 100.279 133.777C100.935 133.121 101.304 132.231 101.305 131.303V13.7581C101.304 12.8303 100.935 11.9409 100.279 11.2849C99.6228 10.629 98.7334 10.2599 97.8057 10.2589H42.236C41.3083 10.2599 40.4189 10.629 39.7629 11.2849C39.1069 11.9409 38.7379 12.8303 38.7368 13.7581V102.863C38.7384 102.881 38.7362 102.899 38.7304 102.916C38.7247 102.933 38.7154 102.949 38.7032 102.962C38.6911 102.975 38.6762 102.986 38.6597 102.993C38.6432 103 38.6254 103.004 38.6074 103.004C38.5893 103.004 38.5715 103 38.555 102.993C38.5385 102.986 38.5237 102.975 38.5115 102.962C38.4993 102.949 38.49 102.933 38.4843 102.916C38.4785 102.899 38.4763 102.881 38.4779 102.863V13.7581C38.4793 12.7618 38.8757 11.8067 39.5801 11.1022C40.2846 10.3977 41.2397 10.0014 42.236 10H97.8057C98.802 10.0014 99.7571 10.3977 100.462 11.1022C101.166 11.8067 101.562 12.7618 101.564 13.7581V131.303C101.562 132.3 101.166 133.255 100.462 133.959C99.7571 134.664 98.802 135.06 97.8057 135.062Z" fill="#002E5D"/>
<path id="Vector_8" d="M48.8261 135.062H42.236C41.2397 135.06 40.2846 134.664 39.5801 133.959C38.8756 133.255 38.4793 132.3 38.4779 131.303V114.244C38.4808 114.212 38.4957 114.182 38.5196 114.16C38.5436 114.138 38.5749 114.126 38.6073 114.126C38.6398 114.126 38.6711 114.138 38.695 114.16C38.719 114.182 38.7339 114.212 38.7368 114.244V131.303C38.7378 132.231 39.1069 133.121 39.7629 133.777C40.4188 134.433 41.3082 134.802 42.236 134.803H48.8261C48.8441 134.801 48.8622 134.803 48.8793 134.809C48.8964 134.815 48.912 134.824 48.9254 134.836C48.9387 134.848 48.9493 134.863 48.9566 134.88C48.9638 134.896 48.9676 134.914 48.9676 134.932C48.9676 134.95 48.9638 134.968 48.9566 134.985C48.9493 135.001 48.9387 135.016 48.9254 135.028C48.912 135.04 48.8964 135.049 48.8793 135.055C48.8622 135.061 48.8441 135.063 48.8261 135.062Z" fill="#002E5D"/>
<path id="Vector_9" d="M19.4768 140.309H15.2092L24.3143 108.896H28.5829L19.4768 140.309Z" fill="#454E54"/>
<path id="Vector_10" d="M42.4314 140.309H38.1638L47.2689 108.896H51.5375L42.4314 140.309Z" fill="#454E54"/>
<path id="Vector_11" d="M36.9626 140.309H31.9266L24.9661 109.409H30.002L36.9626 140.309Z" fill="white"/>
<path id="Vector_12" d="M59.4578 140.309H54.4207L47.4602 109.409H52.4962L59.4578 140.309Z" fill="white"/>
<path id="Vector_13" d="M51.3727 125.371H56.0925L56.8803 128.871L51.3727 125.371Z" fill="#C9DAF4"/>
<path id="Vector_14" d="M28.8787 125.371H33.5975L34.3863 128.871L28.8787 125.371Z" fill="#C9DAF4"/>
<path id="Vector_15" d="M25.6045 111.542H30.3243L31.1132 115.042L25.6045 111.542Z" fill="#C9DAF4"/>
<path id="Vector_16" d="M48.2572 111.542H52.977L53.7659 115.042L48.2572 111.542Z" fill="#C9DAF4"/>
<path id="Vector_17" d="M36.9626 140.439H31.9225C31.8881 140.439 31.855 140.426 31.8307 140.401C31.8063 140.377 31.7926 140.344 31.7926 140.309C31.7926 140.275 31.8063 140.242 31.8307 140.217C31.855 140.193 31.8881 140.179 31.9225 140.179H36.7969L29.8987 109.538H25.1277L29.7882 130.229C29.7922 130.246 29.7928 130.263 29.79 130.28C29.7872 130.297 29.7811 130.313 29.7721 130.327C29.7631 130.342 29.7512 130.354 29.7373 130.364C29.7234 130.374 29.7077 130.381 29.691 130.385C29.6741 130.388 29.6566 130.388 29.6396 130.385C29.6226 130.382 29.6064 130.375 29.5919 130.366C29.5775 130.356 29.565 130.344 29.5553 130.33C29.5457 130.315 29.5389 130.299 29.5355 130.282L24.8392 109.432C24.8352 109.413 24.8353 109.394 24.8398 109.375C24.8442 109.356 24.8527 109.338 24.8648 109.323C24.8771 109.308 24.8927 109.295 24.9104 109.287C24.9281 109.279 24.9475 109.275 24.9671 109.275H30.0031C30.0327 109.275 30.0613 109.285 30.0844 109.304C30.1074 109.323 30.1235 109.348 30.13 109.377L37.0874 140.277C37.0916 140.296 37.0914 140.315 37.087 140.334C37.0826 140.353 37.074 140.371 37.0619 140.386C37.0504 140.402 37.0355 140.415 37.0183 140.424C37.0011 140.433 36.9821 140.438 36.9626 140.439Z" fill="#002E5D"/>
<path id="Vector_18" d="M59.4577 140.439H54.4207C54.3912 140.439 54.3626 140.429 54.3397 140.41C54.3168 140.392 54.3009 140.366 54.2949 140.337L47.3374 109.438C47.3333 109.419 47.3335 109.399 47.3379 109.38C47.3424 109.361 47.3509 109.343 47.363 109.328C47.3752 109.313 47.3908 109.301 47.4086 109.292C47.4263 109.284 47.4457 109.28 47.4653 109.28H52.5013C52.5309 109.28 52.5597 109.29 52.5827 109.309C52.6058 109.327 52.6218 109.353 52.6281 109.382L59.5856 140.282C59.5897 140.301 59.5895 140.32 59.5851 140.339C59.5807 140.358 59.5722 140.376 59.5602 140.391C59.5481 140.406 59.5329 140.418 59.5155 140.427C59.4982 140.435 59.4791 140.44 59.4598 140.44L59.4577 140.439ZM54.5251 140.179H59.295L52.3928 109.538H47.6218L54.5251 140.179Z" fill="#002E5D"/>
<path id="Vector_19" d="M61.8458 106.25L63.0388 111.542H15.3842L14.1923 106.25H61.8458Z" fill="white"/>
<path id="Vector_20" d="M64.9613 120.078L66.1533 125.371H18.4997L17.3077 120.078H64.9613Z" fill="white"/>
<path id="Vector_21" d="M21.1241 107.275L20.016 111.542H26.5325L27.6406 107.275H21.1241Z" fill="#325D9C"/>
<path id="Vector_22" d="M34.9531 107.275L33.844 111.542H40.3615L41.4686 107.275H34.9531Z" fill="#325D9C"/>
<path id="Vector_23" d="M48.7811 107.275L47.673 111.542H54.1895L55.2975 107.275H48.7811Z" fill="#325D9C"/>
<path id="Vector_24" d="M24.6775 120.847L23.5029 125.371H30.0194L31.194 120.847H24.6775Z" fill="#325D9C"/>
<path id="Vector_25" d="M38.5065 120.847L37.3309 125.371H43.8484L45.023 120.847H38.5065Z" fill="#325D9C"/>
<path id="Vector_26" d="M52.3355 120.847L51.1599 125.371H57.6764L58.852 120.847H52.3355Z" fill="#325D9C"/>
<path id="Vector_27" d="M63.0388 111.672H15.3853C15.3556 111.672 15.3267 111.662 15.3036 111.644C15.2805 111.625 15.2645 111.599 15.2584 111.57L14.9269 110.098C14.9216 110.08 14.92 110.062 14.922 110.045C14.924 110.027 14.9296 110.01 14.9386 109.994C14.9476 109.979 14.9596 109.965 14.974 109.955C14.9885 109.944 15.0049 109.937 15.0224 109.933C15.0398 109.929 15.0579 109.928 15.0755 109.932C15.093 109.935 15.1097 109.942 15.1245 109.952C15.1393 109.962 15.1518 109.975 15.1613 109.99C15.1708 110.006 15.177 110.023 15.1796 110.04L15.4866 111.412H62.8772L61.7435 106.381H30.8094C30.7914 106.383 30.7733 106.381 30.7562 106.375C30.7391 106.369 30.7234 106.36 30.7101 106.348C30.6968 106.336 30.6862 106.321 30.6789 106.304C30.6717 106.288 30.6679 106.27 30.6679 106.252C30.6679 106.234 30.6717 106.216 30.6789 106.2C30.6862 106.183 30.6968 106.168 30.7101 106.156C30.7234 106.144 30.7391 106.135 30.7562 106.129C30.7733 106.123 30.7914 106.121 30.8094 106.123H61.8469C61.8764 106.123 61.905 106.133 61.9279 106.151C61.9508 106.17 61.9666 106.196 61.9727 106.225L63.1657 111.517C63.1698 111.536 63.1697 111.555 63.1653 111.574C63.1608 111.593 63.1522 111.611 63.1401 111.626C63.1277 111.641 63.1122 111.653 63.0947 111.661C63.0771 111.669 63.0581 111.672 63.0388 111.672Z" fill="#002E5D"/>
<path id="Vector_28" d="M66.1543 125.5H18.4997C18.4702 125.5 18.4416 125.49 18.4187 125.471C18.3958 125.453 18.3799 125.427 18.3738 125.398L17.1808 120.105C17.1767 120.086 17.1769 120.066 17.1813 120.047C17.1857 120.028 17.1943 120.011 17.2064 119.996C17.2187 119.98 17.2343 119.968 17.252 119.96C17.2698 119.951 17.2892 119.947 17.3087 119.947H33.9453C33.9632 119.946 33.9813 119.948 33.9984 119.954C34.0155 119.96 34.0312 119.969 34.0445 119.981C34.0578 119.993 34.0684 120.008 34.0757 120.024C34.083 120.041 34.0867 120.059 34.0867 120.077C34.0867 120.095 34.083 120.113 34.0757 120.129C34.0684 120.146 34.0578 120.161 34.0445 120.173C34.0312 120.185 34.0155 120.194 33.9984 120.2C33.9813 120.206 33.9632 120.208 33.9453 120.206H17.4724L18.6061 125.239H65.9936L64.86 120.206H42.1612C42.1289 120.203 42.0988 120.189 42.0769 120.165C42.055 120.141 42.0428 120.109 42.0428 120.077C42.0428 120.044 42.055 120.013 42.0769 119.989C42.0988 119.965 42.1289 119.95 42.1612 119.947H64.9613C64.9909 119.947 65.0197 119.958 65.0428 119.976C65.0658 119.995 65.0818 120.021 65.0882 120.05L66.2801 125.343C66.2847 125.361 66.2848 125.381 66.2804 125.4C66.2759 125.419 66.2671 125.437 66.2545 125.452C66.2425 125.467 66.2273 125.479 66.2099 125.488C66.1926 125.496 66.1735 125.5 66.1543 125.5Z" fill="#002E5D"/>
<path id="Vector_29" d="M149.87 135.062H111.713C111.696 135.063 111.677 135.061 111.66 135.055C111.643 135.049 111.628 135.04 111.614 135.028C111.601 135.016 111.59 135.001 111.583 134.985C111.576 134.968 111.572 134.95 111.572 134.932C111.572 134.914 111.576 134.896 111.583 134.88C111.59 134.863 111.601 134.848 111.614 134.836C111.628 134.824 111.643 134.815 111.66 134.809C111.677 134.803 111.696 134.801 111.713 134.803H149.87C149.888 134.801 149.906 134.803 149.923 134.809C149.94 134.815 149.956 134.824 149.969 134.836C149.983 134.848 149.993 134.863 150.001 134.88C150.008 134.896 150.012 134.914 150.012 134.932C150.012 134.95 150.008 134.968 150.001 134.985C149.993 135.001 149.983 135.016 149.969 135.028C149.956 135.04 149.94 135.049 149.923 135.055C149.906 135.061 149.888 135.063 149.87 135.062Z" fill="#002E5D"/>
<path id="Vector_30" d="M104.253 140.439H5.06158C5.02712 140.439 4.99407 140.426 4.9697 140.401C4.94533 140.377 4.93164 140.344 4.93164 140.309C4.93164 140.275 4.94533 140.242 4.9697 140.218C4.99407 140.193 5.02712 140.179 5.06158 140.179H104.253C104.287 140.179 104.32 140.193 104.344 140.218C104.369 140.242 104.383 140.275 104.383 140.309C104.383 140.344 104.369 140.377 104.344 140.401C104.32 140.426 104.287 140.439 104.253 140.439Z" fill="#002E5D"/>
<path id="Vector_31" d="M92.9528 140.358H75.5642L75.9663 138.856L77.2575 134.024L78.0065 131.224L78.6173 128.939L79.2987 126.391L79.9106 124.106L81.3624 118.676H87.1545L88.4908 123.672L89.5927 127.795L90.8461 132.483L91.9491 136.606L92.9528 140.358Z" fill="white"/>
<path id="Vector_32" d="M89.5928 127.795L78.0066 131.224L78.6174 128.939L79.2988 126.391L88.4909 123.672L89.5928 127.795Z" fill="#F3F8FF"/>
<path id="Vector_33" d="M91.9491 136.606L82.8092 139.312L83.42 137.027L84.1015 134.479L90.8461 132.483L91.9491 136.606Z" fill="#F3F8FF"/>
<path id="Vector_34" d="M87.391 126.341L78.6174 128.939L79.9097 124.106L86.288 122.219L87.391 126.341Z" fill="#F70431"/>
<path id="Vector_35" d="M89.6541 134.805L75.9663 138.856L77.2575 134.024L88.5511 130.682L89.6541 134.805Z" fill="#F70431"/>
<path id="Vector_36" d="M92.9529 140.487H75.5592C75.5393 140.488 75.5195 140.483 75.5016 140.474C75.4837 140.466 75.468 140.453 75.4558 140.437C75.4436 140.422 75.4352 140.403 75.4313 140.384C75.4274 140.364 75.4281 140.344 75.4333 140.325L81.2387 118.643C81.246 118.615 81.2621 118.591 81.2847 118.574C81.3073 118.556 81.335 118.547 81.3636 118.547H87.1567C87.1854 118.547 87.2133 118.556 87.2361 118.573C87.2589 118.591 87.2752 118.615 87.2825 118.643L93.0797 140.325C93.0849 140.344 93.0856 140.364 93.0818 140.383C93.078 140.403 93.0697 140.421 93.0576 140.437C93.0455 140.453 93.03 140.465 93.0122 140.474C92.9943 140.483 92.9747 140.487 92.9549 140.487H92.9529ZM75.7321 140.228H92.784L87.0544 118.806H81.4608L75.7321 140.228Z" fill="#002E5D"/>
<path id="Vector_37" d="M79.9087 124.237C79.878 124.236 79.8485 124.224 79.8256 124.204C79.8027 124.183 79.7878 124.155 79.7835 124.125C79.7792 124.094 79.7858 124.063 79.8022 124.037C79.8185 124.011 79.8436 123.992 79.8729 123.983L85.7407 122.24C85.7728 122.233 85.8065 122.238 85.835 122.255C85.8634 122.272 85.8845 122.299 85.8938 122.33C85.9032 122.362 85.9002 122.396 85.8854 122.425C85.8707 122.455 85.8452 122.478 85.8143 122.489L79.9424 124.228C79.9315 124.232 79.9202 124.235 79.9087 124.237Z" fill="#002E5D"/>
<path id="Vector_38" d="M78.6174 129.068C78.5856 129.069 78.5545 129.059 78.53 129.038C78.5055 129.018 78.4894 128.989 78.4849 128.958C78.4803 128.926 78.4875 128.894 78.5052 128.867C78.5229 128.841 78.5497 128.822 78.5806 128.814L83.5859 127.334C83.618 127.326 83.6518 127.332 83.6802 127.348C83.7086 127.365 83.7297 127.392 83.739 127.423C83.7484 127.455 83.7454 127.489 83.7306 127.519C83.7159 127.548 83.6905 127.571 83.6595 127.582L78.6543 129.063C78.6423 129.066 78.6299 129.068 78.6174 129.068Z" fill="#002E5D"/>
<path id="Vector_39" d="M77.2576 134.155C77.2269 134.154 77.1973 134.143 77.1742 134.122C77.1511 134.102 77.136 134.074 77.1316 134.044C77.1272 134.013 77.1337 133.982 77.1501 133.956C77.1664 133.93 77.1915 133.911 77.2208 133.901L87.1546 130.961C87.1709 130.956 87.1879 130.954 87.2048 130.956C87.2217 130.958 87.2381 130.963 87.253 130.971C87.2679 130.979 87.2811 130.99 87.2918 131.003C87.3024 131.016 87.3104 131.031 87.3153 131.048C87.3201 131.064 87.3217 131.081 87.3199 131.098C87.3182 131.115 87.3131 131.131 87.3051 131.146C87.297 131.161 87.286 131.174 87.2729 131.185C87.2597 131.195 87.2446 131.203 87.2283 131.208L77.2945 134.15C77.2824 134.153 77.2701 134.155 77.2576 134.155Z" fill="#002E5D"/>
<path id="Vector_40" d="M75.9653 138.985C75.9346 138.985 75.9052 138.973 75.8823 138.952C75.8594 138.932 75.8444 138.904 75.8401 138.874C75.8359 138.843 75.8425 138.812 75.8588 138.786C75.8752 138.76 75.9002 138.741 75.9295 138.732L84.6724 136.145C84.6886 136.14 84.7057 136.139 84.7226 136.14C84.7394 136.142 84.7558 136.147 84.7707 136.155C84.7856 136.163 84.7988 136.174 84.8095 136.188C84.8202 136.201 84.8282 136.216 84.833 136.232C84.8378 136.248 84.8394 136.265 84.8377 136.282C84.8359 136.299 84.8309 136.316 84.8228 136.33C84.8147 136.345 84.8038 136.359 84.7906 136.369C84.7774 136.38 84.7623 136.388 84.746 136.393L76.0021 138.98C75.9902 138.984 75.9778 138.986 75.9653 138.985Z" fill="#002E5D"/>
<path id="Vector_41" d="M118.584 49.9686C118.248 49.9693 117.915 49.9036 117.605 49.7752C117.294 49.6469 117.012 49.4584 116.775 49.2207C116.754 49.1958 116.743 49.1639 116.744 49.1313C116.746 49.0987 116.759 49.0678 116.782 49.0448C116.805 49.0217 116.836 49.0081 116.869 49.0068C116.901 49.0055 116.933 49.0164 116.958 49.0375C117.172 49.251 117.425 49.4203 117.704 49.5355C117.983 49.6506 118.282 49.7095 118.584 49.7087C118.619 49.7087 118.652 49.7224 118.676 49.7467C118.701 49.7711 118.715 49.8041 118.715 49.8387C118.715 49.8559 118.712 49.873 118.706 49.889C118.699 49.9049 118.689 49.9194 118.677 49.9315C118.665 49.9437 118.65 49.9532 118.634 49.9596C118.618 49.966 118.601 49.969 118.584 49.9686ZM120.302 49.2524C120.285 49.2524 120.268 49.2489 120.252 49.2422C120.237 49.2355 120.223 49.2258 120.211 49.2135C120.199 49.2015 120.189 49.1873 120.183 49.1715C120.176 49.1558 120.173 49.139 120.173 49.1219C120.173 49.1049 120.176 49.0881 120.183 49.0723C120.189 49.0566 120.199 49.0424 120.211 49.0304C120.425 48.8173 120.595 48.5638 120.711 48.2845C120.827 48.0053 120.886 47.7058 120.885 47.4036C120.885 47.3686 120.899 47.335 120.923 47.3098C120.947 47.2846 120.98 47.2698 121.015 47.2685C121.032 47.2681 121.048 47.271 121.064 47.2771C121.079 47.2832 121.094 47.2923 121.106 47.3039C121.118 47.3155 121.127 47.3294 121.134 47.3448C121.14 47.3601 121.144 47.3766 121.144 47.3933V47.4036C121.145 47.7398 121.079 48.0728 120.951 48.3835C120.822 48.6942 120.633 48.9763 120.395 49.2135C120.372 49.2385 120.34 49.2536 120.306 49.2555L120.302 49.2524ZM116.149 47.5355C116.132 47.5358 116.115 47.5327 116.1 47.5265C116.084 47.5202 116.07 47.511 116.057 47.4992C116.045 47.4874 116.036 47.4733 116.029 47.4578C116.023 47.4422 116.019 47.4255 116.019 47.4087C116.018 47.0732 116.083 46.7408 116.211 46.4307C116.339 46.1206 116.528 45.8389 116.765 45.6018C116.789 45.5775 116.822 45.5638 116.856 45.5637C116.89 45.5636 116.923 45.5771 116.947 45.6013C116.972 45.6254 116.985 45.6582 116.986 45.6925C116.986 45.7267 116.972 45.7596 116.948 45.7839C116.735 45.9973 116.566 46.2507 116.451 46.5295C116.336 46.8083 116.277 47.1071 116.278 47.4087C116.278 47.4422 116.264 47.4743 116.241 47.4985C116.218 47.5227 116.186 47.537 116.153 47.5386L116.149 47.5355ZM120.295 45.8064C120.278 45.8064 120.261 45.8031 120.245 45.7966C120.23 45.7901 120.216 45.7806 120.204 45.7685C119.99 45.556 119.737 45.3877 119.459 45.273C119.18 45.1584 118.882 45.0997 118.581 45.1004C118.546 45.1004 118.513 45.0868 118.488 45.0626C118.463 45.0383 118.449 45.0052 118.448 44.9705C118.448 44.9537 118.451 44.9371 118.457 44.9215C118.463 44.906 118.472 44.8918 118.484 44.8798C118.496 44.8678 118.51 44.8583 118.525 44.8517C118.54 44.8451 118.557 44.8417 118.574 44.8416H118.581C118.916 44.8406 119.248 44.9058 119.558 45.0334C119.867 45.1611 120.149 45.3487 120.386 45.5854C120.404 45.6034 120.417 45.6264 120.422 45.6516C120.427 45.6767 120.425 45.7029 120.415 45.7266C120.405 45.7503 120.388 45.7706 120.367 45.7848C120.346 45.7991 120.32 45.8066 120.295 45.8064Z" fill="#002E5D"/>
<path id="Vector_42" d="M145.737 121.238C145.4 121.239 145.067 121.174 144.756 121.046C144.445 120.917 144.163 120.729 143.926 120.491C143.913 120.479 143.903 120.465 143.895 120.449C143.888 120.433 143.884 120.416 143.884 120.398C143.884 120.381 143.887 120.363 143.893 120.347C143.9 120.331 143.91 120.316 143.922 120.304C143.934 120.292 143.949 120.282 143.965 120.275C143.981 120.269 143.998 120.265 144.016 120.266C144.033 120.266 144.05 120.27 144.066 120.277C144.082 120.284 144.097 120.294 144.109 120.307C144.322 120.521 144.575 120.69 144.854 120.805C145.133 120.921 145.432 120.98 145.733 120.979C145.768 120.979 145.801 120.993 145.826 121.017C145.85 121.041 145.864 121.074 145.864 121.109C145.865 121.126 145.861 121.142 145.855 121.158C145.849 121.174 145.839 121.188 145.827 121.2C145.815 121.212 145.801 121.221 145.786 121.228C145.77 121.234 145.753 121.238 145.737 121.238ZM147.454 120.522C147.429 120.521 147.404 120.513 147.383 120.499C147.362 120.485 147.346 120.465 147.336 120.441C147.326 120.418 147.324 120.392 147.329 120.367C147.333 120.342 147.346 120.319 147.363 120.301C147.578 120.087 147.747 119.833 147.863 119.554C147.978 119.275 148.037 118.975 148.037 118.673C148.037 118.638 148.05 118.604 148.074 118.579C148.099 118.554 148.132 118.54 148.167 118.539C148.183 118.538 148.2 118.541 148.216 118.547C148.231 118.553 148.245 118.562 148.257 118.574C148.27 118.585 148.279 118.599 148.286 118.615C148.292 118.63 148.295 118.647 148.295 118.663V118.673C148.296 119.009 148.231 119.342 148.102 119.653C147.974 119.964 147.785 120.246 147.547 120.484C147.535 120.496 147.52 120.506 147.505 120.513C147.489 120.521 147.472 120.524 147.454 120.525V120.522ZM143.301 118.805C143.285 118.805 143.268 118.802 143.252 118.796C143.237 118.789 143.222 118.78 143.21 118.768C143.198 118.756 143.189 118.742 143.182 118.727C143.176 118.711 143.173 118.695 143.173 118.678C143.171 118.342 143.236 118.009 143.364 117.698C143.492 117.387 143.68 117.105 143.917 116.867C143.929 116.853 143.943 116.842 143.959 116.834C143.975 116.826 143.993 116.821 144.011 116.82C144.029 116.82 144.047 116.823 144.064 116.829C144.08 116.835 144.096 116.845 144.108 116.858C144.121 116.871 144.131 116.886 144.138 116.902C144.144 116.919 144.147 116.937 144.147 116.955C144.146 116.973 144.142 116.99 144.134 117.007C144.126 117.023 144.115 117.037 144.102 117.049C143.888 117.262 143.719 117.515 143.604 117.794C143.489 118.073 143.43 118.371 143.431 118.673C143.432 118.69 143.429 118.707 143.422 118.724C143.416 118.74 143.407 118.755 143.395 118.767C143.382 118.78 143.368 118.79 143.352 118.797C143.336 118.804 143.319 118.807 143.301 118.808V118.805ZM147.447 117.077C147.43 117.077 147.414 117.073 147.398 117.067C147.382 117.06 147.368 117.051 147.356 117.039C147.143 116.826 146.89 116.657 146.611 116.543C146.333 116.428 146.035 116.37 145.733 116.371C145.699 116.371 145.665 116.357 145.64 116.333C145.616 116.308 145.601 116.275 145.6 116.241C145.6 116.224 145.603 116.207 145.609 116.192C145.615 116.176 145.625 116.162 145.636 116.15C145.648 116.138 145.662 116.128 145.677 116.122C145.693 116.115 145.71 116.112 145.726 116.112H145.733C146.069 116.111 146.4 116.176 146.71 116.303C147.02 116.431 147.302 116.618 147.539 116.855C147.551 116.867 147.561 116.881 147.568 116.896C147.574 116.912 147.578 116.929 147.578 116.946C147.578 116.963 147.574 116.98 147.568 116.996C147.561 117.011 147.551 117.026 147.539 117.038C147.528 117.051 147.513 117.061 147.498 117.068C147.482 117.075 147.465 117.079 147.447 117.08V117.077Z" fill="#002E5D"/>
<path id="Vector_43" d="M20.018 98.81C19.6817 98.8112 19.3485 98.7457 19.0377 98.6173C18.7269 98.4889 18.4445 98.3002 18.2071 98.0621C18.195 98.0501 18.1854 98.0359 18.1788 98.0201C18.1722 98.0044 18.1689 97.9876 18.1689 97.9705C18.1689 97.9535 18.1722 97.9366 18.1788 97.9209C18.1854 97.9052 18.195 97.8909 18.2071 97.879C18.2314 97.8548 18.2643 97.8412 18.2986 97.8412C18.3329 97.8412 18.3659 97.8548 18.3902 97.879C18.6035 98.0927 18.8569 98.2621 19.1359 98.3775C19.415 98.4929 19.7141 98.5519 20.016 98.5512C20.0483 98.554 20.0784 98.5689 20.1003 98.5929C20.1223 98.6168 20.1344 98.6481 20.1344 98.6806C20.1344 98.7131 20.1223 98.7444 20.1003 98.7683C20.0784 98.7923 20.0483 98.8072 20.016 98.81H20.018ZM21.7369 98.0938C21.7025 98.0936 21.6695 98.08 21.6449 98.056C21.6207 98.0316 21.6071 97.9987 21.6071 97.9644C21.6071 97.9301 21.6207 97.8972 21.6449 97.8728C21.8582 97.6603 22.0275 97.4077 22.1431 97.1296C22.2586 96.8515 22.3181 96.5533 22.3181 96.2521C22.3181 96.2172 22.3316 96.1836 22.3558 96.1584C22.3801 96.1332 22.4131 96.1184 22.448 96.1171C22.4648 96.1165 22.4815 96.1194 22.4972 96.1254C22.5129 96.1314 22.5272 96.1405 22.5393 96.1521C22.5514 96.1637 22.5611 96.1777 22.5677 96.1931C22.5744 96.2085 22.5779 96.2251 22.578 96.2419V96.2521C22.5788 96.5884 22.5129 96.9215 22.3842 97.2322C22.2554 97.5429 22.0664 97.8249 21.828 98.0621C21.8029 98.0841 21.7703 98.0954 21.7369 98.0938ZM17.5829 96.377C17.5661 96.3772 17.5494 96.3742 17.5337 96.3679C17.5181 96.3616 17.5039 96.3523 17.4919 96.3405C17.4799 96.3287 17.4704 96.3146 17.4639 96.2991C17.4574 96.2836 17.454 96.2669 17.454 96.2501C17.4525 95.914 17.5175 95.5809 17.6453 95.2701C17.7732 94.9593 17.9613 94.6769 18.1989 94.4391C18.2104 94.4253 18.2247 94.4141 18.2408 94.4062C18.2569 94.3982 18.2744 94.3936 18.2924 94.3928C18.3103 94.392 18.3282 94.3949 18.345 94.4013C18.3618 94.4077 18.377 94.4176 18.3898 94.4302C18.4026 94.4428 18.4126 94.458 18.4192 94.4747C18.4258 94.4914 18.4289 94.5092 18.4283 94.5272C18.4276 94.5451 18.4233 94.5628 18.4155 94.579C18.4077 94.5951 18.3967 94.6095 18.383 94.6212C18.1692 94.8354 17.9999 95.0897 17.8848 95.3697C17.7698 95.6496 17.7114 95.9495 17.7129 96.2521C17.7118 96.2861 17.6977 96.3183 17.6735 96.3421C17.6493 96.3659 17.6169 96.3795 17.5829 96.38V96.377ZM21.7298 94.6478C21.7127 94.6479 21.6957 94.6446 21.6799 94.6381C21.6641 94.6316 21.6498 94.6221 21.6377 94.61C21.4246 94.3974 21.1717 94.229 20.8934 94.1143C20.6151 93.9997 20.317 93.9411 20.016 93.9418C19.9811 93.9419 19.9477 93.9283 19.9226 93.904C19.8976 93.8798 19.883 93.8467 19.882 93.8119C19.8817 93.7952 19.8847 93.7785 19.8909 93.763C19.8971 93.7474 19.9063 93.7332 19.918 93.7212C19.9297 93.7093 19.9437 93.6997 19.9591 93.6931C19.9745 93.6866 19.9911 93.6831 20.0078 93.683H20.016C20.351 93.6821 20.6828 93.7474 20.9926 93.875C21.3023 94.0027 21.5837 94.1902 21.8208 94.4268C21.8329 94.4388 21.8425 94.4531 21.8491 94.4688C21.8556 94.4845 21.859 94.5014 21.859 94.5184C21.859 94.5354 21.8556 94.5523 21.8491 94.568C21.8425 94.5837 21.8329 94.598 21.8208 94.61C21.8093 94.6226 21.7952 94.6328 21.7795 94.6398C21.7639 94.6469 21.7469 94.6506 21.7298 94.6509V94.6478Z" fill="#002E5D"/>
<path id="Vector_44" d="M40.2101 88.5703V54.5728L40.4689 54.2117V88.5969L40.2101 88.5703Z" fill="#B50223"/>
<path id="Vector_45" d="M96.9432 88.7831C95.7058 89.3877 94.3209 89.6246 92.9528 89.4655C92.8505 89.4533 92.7574 89.44 92.6582 89.4236L41.6691 81.0623C36.495 80.2141 34.7976 73.9852 38.6109 69.8506L57.4636 49.4099L58.2146 48.5914L62.8352 43.578L63.5872 42.7594L76.2109 29.0839C80.0242 24.9493 86.4906 26.0083 87.8493 30.9911L98.3398 69.4618L100.254 76.4806L101.243 80.1118C102.206 83.6438 100.093 87.2678 96.9432 88.7831Z" fill="#F3F8FF"/>
<path id="Vector_46" d="M92.9917 85.4006C91.8239 86.0842 90.479 86.4048 89.1283 86.3215C89.026 86.3163 88.9237 86.3082 88.8275 86.2979L36.5134 81.1576C31.2063 80.6368 28.454 74.5613 31.5593 70.2313L46.9067 48.8033L47.5206 47.95L51.2817 42.6981L51.8956 41.8438L62.1691 27.4961C65.2734 23.1609 71.9075 23.8127 74.1083 28.6696L91.1091 66.1714L94.2103 73.0112L95.8146 76.5503C97.3739 79.984 95.8801 83.7073 92.9917 85.4006Z" fill="#F70431"/>
<path id="Vector_47" d="M65.4932 74.6439C67.5116 74.633 69.139 72.9879 69.1281 70.9695C69.1171 68.9511 67.472 67.3237 65.4536 67.3346C63.4352 67.3455 61.8078 68.9906 61.8187 71.009C61.8296 73.0274 63.4748 74.6548 65.4932 74.6439Z" fill="#B50223"/>
<path id="Vector_48" d="M68.5842 65.1922L64.4057 64.4995C63.8399 64.4054 63.4173 63.988 63.4664 63.5664L66.0826 41.1777C66.1044 40.9952 66.1633 40.819 66.2556 40.66C66.3479 40.501 66.4717 40.3626 66.6195 40.2532C66.7672 40.1438 66.9357 40.0657 67.1147 40.0238C67.2937 39.9818 67.4794 39.9769 67.6603 40.0093L73.4064 40.9618C73.5882 40.9896 73.7624 41.0542 73.9184 41.1517C74.0743 41.2491 74.2087 41.3774 74.3133 41.5287C74.418 41.68 74.4906 41.851 74.5267 42.0313C74.5629 42.2117 74.5619 42.3975 74.5237 42.5774L69.7793 64.6121C69.6852 65.0265 69.15 65.2853 68.5842 65.1922Z" fill="#B50223"/>
<path id="Vector_49" d="M64.2826 73.6895C66.2958 73.5445 67.8103 71.7948 67.6653 69.7816C67.5203 67.7684 65.7707 66.2539 63.7575 66.3989C61.7442 66.5439 60.2297 68.2935 60.3748 70.3068C60.5198 72.32 62.2694 73.8345 64.2826 73.6895Z" fill="#454E54"/>
<path id="Vector_50" d="M66.7314 64.0647L62.5149 63.6555C61.944 63.5992 61.4918 63.2104 61.5163 62.7868L62.6418 40.2773C62.6517 40.0937 62.6989 39.9141 62.7807 39.7493C62.8624 39.5846 62.9769 39.4383 63.1171 39.3193C63.2573 39.2004 63.4203 39.1113 63.5961 39.0575C63.772 39.0037 63.9569 38.9864 64.1397 39.0066L69.9359 39.5693C70.1189 39.5849 70.2967 39.6376 70.4586 39.7243C70.6205 39.811 70.763 39.9298 70.8773 40.0735C70.9917 40.2172 71.0755 40.3827 71.1237 40.5599C71.1719 40.7371 71.1834 40.9222 71.1575 41.104L67.8834 63.4089C67.818 63.8273 67.3013 64.1251 66.7314 64.0647Z" fill="#454E54"/>
</g>
</g>
</g>
<defs>
<clipPath id="clip0_130_722">
<rect width="150" height="150" fill="white"/>
</clipPath>
</defs>
</svg>
