<svg width="150" height="146" viewBox="0 0 150 146" fill="none" xmlns="http://www.w3.org/2000/svg">
<g clip-path="url(#clip0_130_775)">
<path d="M150 74.5482C150 96.8 140.191 116.774 124.638 130.433C123.489 131.444 122.311 132.419 121.103 133.356C120.144 134.101 119.165 134.823 118.166 135.522C116.35 136.795 114.476 137.988 112.543 139.101L112.255 139.268H37.7496C36.509 138.561 35.2911 137.822 34.0958 137.048C31.9314 135.646 29.841 134.133 27.833 132.517C10.8554 118.843 0 97.957 0 74.5482C0 33.3777 33.5794 0 74.9986 0C116.418 0 150 33.3777 150 74.5482Z" fill="#F3F8FF"/>
<path d="M111.29 20.5554L58.7833 17.8019C57.4415 17.7315 56.2962 18.7558 56.2255 20.0896L50.5448 127.118C50.474 128.451 51.5044 129.59 52.8463 129.66L105.353 132.414C106.695 132.484 107.84 131.46 107.911 130.126L113.592 23.0979C113.662 21.7641 112.632 20.6258 111.29 20.5554Z" fill="white"/>
<path d="M103.404 27.0684H50.8241C49.4803 27.0684 48.391 28.1512 48.391 29.4869V136.664C48.391 137.999 49.4803 139.082 50.8241 139.082H103.404C104.748 139.082 105.837 137.999 105.837 136.664V29.4869C105.837 28.1512 104.748 27.0684 103.404 27.0684Z" fill="#C9DAF4"/>
<path d="M101.709 134.198V31.9525C101.709 31.5209 101.357 31.171 100.922 31.171L53.3037 31.171C52.8695 31.171 52.5175 31.5209 52.5175 31.9525L52.5175 134.198C52.5175 134.63 52.8695 134.98 53.3037 134.98H100.922C101.357 134.98 101.709 134.63 101.709 134.198Z" fill="white"/>
<path d="M101.403 136.961H48.8236C48.1389 136.958 47.483 136.687 46.9993 136.205C46.5156 135.723 46.2435 135.071 46.2426 134.39V27.2136C46.2433 26.5322 46.5159 25.8789 47.0007 25.3971C47.4854 24.9152 48.1427 24.6442 48.8282 24.6435H101.408C102.094 24.6442 102.751 24.9152 103.236 25.3971C103.72 25.8789 103.993 26.5322 103.994 27.2136V134.39C103.993 135.073 103.719 135.726 103.234 136.208C102.748 136.69 102.09 136.961 101.403 136.961ZM48.8236 24.9468C48.219 24.9475 47.6394 25.1866 47.2118 25.6116C46.7843 26.0365 46.5438 26.6126 46.5431 27.2136V134.39C46.5441 134.991 46.7847 135.567 47.2122 135.992C47.6397 136.417 48.2191 136.656 48.8236 136.656H101.403C102.008 136.656 102.587 136.417 103.015 135.992C103.442 135.567 103.683 134.991 103.684 134.39V27.2136C103.683 26.6126 103.443 26.0365 103.015 25.6116C102.588 25.1866 102.008 24.9475 101.403 24.9468H48.8236Z" fill="#002E5D"/>
<path d="M65.4217 135.131H53.3046C53.1811 135.131 53.0588 135.107 52.9447 135.06C52.8306 135.013 52.727 134.944 52.6397 134.857C52.5525 134.77 52.4833 134.667 52.4361 134.553C52.389 134.44 52.3647 134.318 52.3649 134.195V31.9535C52.3651 31.7058 52.4642 31.4683 52.6404 31.2932C52.8166 31.1181 53.0555 31.0196 53.3046 31.0194H100.922C101.171 31.0196 101.41 31.1181 101.586 31.2933C101.762 31.4684 101.861 31.7059 101.861 31.9535V47.5676C101.861 47.6079 101.845 47.6465 101.817 47.6749C101.788 47.7033 101.749 47.7193 101.709 47.7193C101.668 47.7193 101.629 47.7033 101.601 47.6749C101.572 47.6465 101.556 47.6079 101.556 47.5676V31.9535C101.556 31.7865 101.489 31.6264 101.37 31.5084C101.251 31.3903 101.09 31.3239 100.922 31.3236H53.3046C53.1366 31.3236 52.9754 31.39 52.8566 31.5081C52.7377 31.6262 52.671 31.7864 52.671 31.9535V134.195C52.6712 134.362 52.7381 134.522 52.8568 134.64C52.9756 134.758 53.1366 134.825 53.3046 134.825H65.4217C65.4621 134.825 65.5009 134.841 65.5296 134.87C65.5582 134.898 65.5742 134.937 65.5742 134.977C65.5742 135.017 65.5582 135.056 65.5296 135.084C65.5009 135.112 65.4621 135.128 65.4217 135.128V135.131Z" fill="#002E5D"/>
<path d="M71.3978 50.9655L69.4001 61.0769H84.0126V65.0898L86.2317 63.6137L85.7879 55.304L71.3978 50.9655Z" fill="#1F3A6F"/>
<path d="M71.2499 61.0038L72.1375 79.3518L74.6348 81.0795C74.6348 81.0795 76.318 82.3299 78.4077 80.8769C80.4975 79.424 83.9903 76.8326 83.9903 76.8326L84.0089 61.0769L71.2499 61.0038Z" fill="#FDC8AA"/>
<path d="M76.4296 81.7315C75.8153 81.7326 75.2142 81.5545 74.7008 81.2191L68.9098 77.4189C68.8885 77.4052 68.8711 77.3865 68.859 77.3643C68.847 77.3422 68.8408 77.3174 68.8409 77.2922V61.0399C68.8409 60.9997 68.857 60.9611 68.8856 60.9326C68.9143 60.9042 68.9531 60.8882 68.9935 60.8882H84.0126C84.053 60.8884 84.0917 60.9045 84.1202 60.9329C84.1488 60.9613 84.165 60.9997 84.1652 61.0399V76.8548C84.1652 76.8788 84.1595 76.9024 84.1485 76.9238C84.1375 76.9452 84.1215 76.9637 84.1019 76.9778L78.2635 81.1516C77.7283 81.531 77.0869 81.7338 76.4296 81.7315ZM69.1461 77.2108L74.8692 80.9657C75.3493 81.2782 75.9132 81.4393 76.4869 81.428C77.0607 81.4166 77.6176 81.2332 78.0848 80.9019L83.8591 76.7734V61.1925H69.1461V77.2108Z" fill="#002E5D"/>
<path d="M84.0127 65.4209C83.9813 65.4204 83.9508 65.4103 83.9254 65.392C83.9 65.3736 83.8809 65.3479 83.8707 65.3184C83.8605 65.2888 83.8597 65.2569 83.8685 65.2269C83.8773 65.1969 83.8951 65.1704 83.9197 65.1508L88.8361 61.2045L87.3679 55.8302L67.9888 50.1267L65.3835 59.2124L69.1155 64.5219C69.127 64.5382 69.1352 64.5566 69.1395 64.5761C69.1438 64.5956 69.1442 64.6157 69.1407 64.6353C69.1371 64.6549 69.1297 64.6736 69.1189 64.6903C69.108 64.7071 69.0939 64.7215 69.0774 64.7328C69.0441 64.7558 69.0031 64.7649 68.9632 64.7579C68.9233 64.751 68.8877 64.7287 68.8643 64.6958L65.0914 59.3317C65.0784 59.3132 65.0697 59.2921 65.066 59.2698C65.0623 59.2476 65.0637 59.2248 65.07 59.2031L67.7357 49.8946C67.7411 49.875 67.7503 49.8568 67.763 49.8409C67.7756 49.825 67.7913 49.8118 67.8092 49.8021C67.8268 49.792 67.8463 49.7857 67.8665 49.7835C67.8866 49.7813 67.907 49.7832 67.9264 49.7891L87.5325 55.562C87.5574 55.5694 87.5799 55.5829 87.598 55.6014C87.6161 55.6198 87.6291 55.6426 87.6358 55.6674L89.1524 61.2165C89.1605 61.245 89.16 61.2752 89.1509 61.3033C89.1418 61.3314 89.1245 61.3563 89.1013 61.3747L84.1113 65.3867C84.0836 65.4093 84.0486 65.4214 84.0127 65.4209Z" fill="#002E5D"/>
<path d="M56.3648 53.9001C56.3243 53.9001 56.2854 53.8841 56.2566 53.8557C56.2278 53.8273 56.2115 53.7887 56.2113 53.7484V42.2803C56.2113 42.2398 56.2275 42.201 56.2563 42.1724C56.2851 42.1438 56.3241 42.1277 56.3648 42.1277H67.8548C67.8933 42.1307 67.9293 42.148 67.9555 42.1762C67.9818 42.2044 67.9963 42.2414 67.9963 42.2798C67.9963 42.3182 67.9818 42.3552 67.9555 42.3835C67.9293 42.4117 67.8933 42.429 67.8548 42.432H56.5174V53.7484C56.5172 53.7885 56.501 53.827 56.4725 53.8554C56.4439 53.8838 56.4052 53.8998 56.3648 53.9001Z" fill="#002E5D"/>
<path d="M89.0063 86.2151H65.2207V131.176H89.0063V86.2151Z" fill="#F3F8FF"/>
<path d="M67.3142 89.3911H56.3648C56.3447 89.3912 56.3247 89.3873 56.3061 89.3798C56.2875 89.3722 56.2706 89.3611 56.2563 89.347C56.242 89.3329 56.2307 89.3161 56.223 89.2976C56.2153 89.2792 56.2113 89.2594 56.2113 89.2394V76.0899C56.2096 76.0689 56.2124 76.0478 56.2193 76.028C56.2263 76.0081 56.2373 75.9899 56.2516 75.9744C56.266 75.959 56.2834 75.9467 56.3028 75.9382C56.3222 75.9298 56.3432 75.9254 56.3643 75.9254C56.3855 75.9254 56.4064 75.9298 56.4258 75.9382C56.4452 75.9467 56.4627 75.959 56.477 75.9744C56.4914 75.9899 56.5024 76.0081 56.5094 76.028C56.5163 76.0478 56.519 76.0689 56.5174 76.0899V89.0877H67.3104C67.3509 89.0877 67.3897 89.1037 67.4183 89.1321C67.4469 89.1606 67.463 89.1992 67.463 89.2394C67.463 89.2796 67.4469 89.3182 67.4183 89.3466C67.3897 89.3751 67.3509 89.3911 67.3104 89.3911H67.3142Z" fill="#002E5D"/>
<path d="M97.8622 89.3911H87.4739C87.4334 89.3911 87.3946 89.3751 87.366 89.3466C87.3374 89.3182 87.3213 89.2796 87.3213 89.2394C87.3213 89.1992 87.3374 89.1606 87.366 89.1321C87.3946 89.1037 87.4334 89.0877 87.4739 89.0877H97.7087V80.802C97.7087 80.7618 97.7247 80.7232 97.7534 80.6948C97.782 80.6663 97.8208 80.6503 97.8613 80.6503C97.9017 80.6503 97.9405 80.6663 97.9692 80.6948C97.9978 80.7232 98.0138 80.7618 98.0138 80.802V89.2394C98.014 89.2593 98.0101 89.279 98.0026 89.2974C97.995 89.3158 97.9839 89.3325 97.9698 89.3466C97.9557 89.3607 97.9389 89.3719 97.9204 89.3795C97.902 89.3871 97.8822 89.3911 97.8622 89.3911Z" fill="#002E5D"/>
<path d="M97.8622 60.8096C97.8421 60.8097 97.8222 60.8059 97.8037 60.7983C97.7851 60.7907 97.7682 60.7796 97.754 60.7654C97.7398 60.7513 97.7286 60.7346 97.721 60.7161C97.7133 60.6976 97.7095 60.6779 97.7096 60.6579V42.432H91.1826C91.1441 42.429 91.1081 42.4117 91.0818 42.3835C91.0556 42.3552 91.041 42.3182 91.041 42.2798C91.041 42.2414 91.0556 42.2044 91.0818 42.1762C91.1081 42.148 91.1441 42.1307 91.1826 42.1277H97.8641C97.8842 42.1277 97.9041 42.1316 97.9227 42.1393C97.9412 42.147 97.9581 42.1583 97.9723 42.1724C97.9865 42.1866 97.9977 42.2035 98.0053 42.222C98.0129 42.2405 98.0168 42.2603 98.0166 42.2803V60.6579C98.0168 60.678 98.0128 60.698 98.0051 60.7165C97.9974 60.7351 97.986 60.752 97.9716 60.7661C97.9572 60.7802 97.9401 60.7914 97.9213 60.7988C97.9025 60.8063 97.8824 60.81 97.8622 60.8096Z" fill="#002E5D"/>
<path d="M88.1116 123.567C94.1859 117.529 94.1859 107.74 88.1116 101.702C82.0374 95.6643 72.1891 95.6643 66.1148 101.702C60.0406 107.74 60.0406 117.529 66.1148 123.567C72.1891 129.605 82.0374 129.605 88.1116 123.567Z" fill="#325D9C"/>
<path d="M75.113 127.11C66.4526 127.11 59.4064 120.106 59.4064 111.498C59.4064 102.889 66.4526 95.8844 75.113 95.8844C75.1535 95.8844 75.1923 95.9004 75.2209 95.9288C75.2496 95.9573 75.2656 95.9959 75.2656 96.0361C75.2656 96.0763 75.2496 96.1149 75.2209 96.1433C75.1923 96.1718 75.1535 96.1878 75.113 96.1878C66.621 96.1878 59.7116 103.056 59.7116 111.498C59.7116 119.94 66.6191 126.807 75.113 126.807C83.607 126.807 90.5155 119.939 90.5155 111.498C90.5155 111.457 90.5315 111.419 90.5601 111.39C90.5888 111.362 90.6276 111.346 90.668 111.346C90.7085 111.346 90.7473 111.362 90.7759 111.39C90.8046 111.419 90.8206 111.457 90.8206 111.498C90.8206 120.106 83.7745 127.11 75.113 127.11Z" fill="#002E5D"/>
<path d="M75.4704 119.869L67.4668 111.914L71.2499 108.153L75.4704 112.349L92.8788 95.0447L96.662 98.8051L75.4704 119.869Z" fill="white"/>
<path d="M72.0956 117.941C72.0742 117.941 72.053 117.937 72.0335 117.928C72.0139 117.92 71.9964 117.907 71.9821 117.891L67.3532 112.769C67.3395 112.755 67.3289 112.737 67.322 112.718C67.3151 112.7 67.3121 112.68 67.313 112.659C67.314 112.639 67.3189 112.62 67.3276 112.602C67.3362 112.583 67.3484 112.567 67.3634 112.554L71.3438 109C71.3588 108.986 71.3762 108.976 71.3952 108.969C71.4141 108.963 71.4342 108.96 71.4543 108.961C71.4743 108.962 71.494 108.967 71.512 108.976C71.5301 108.985 71.5463 108.997 71.5597 109.012L75.4461 113.311L82.4244 107.076C82.455 107.052 82.4936 107.041 82.5325 107.044C82.5713 107.047 82.6074 107.065 82.6334 107.094C82.6594 107.123 82.6735 107.16 82.6727 107.199C82.6718 107.238 82.6563 107.275 82.6291 107.303L75.5317 113.639C75.5168 113.652 75.4994 113.662 75.4805 113.669C75.4616 113.676 75.4415 113.679 75.4215 113.678C75.4014 113.677 75.3818 113.672 75.3636 113.663C75.3455 113.654 75.3293 113.642 75.3158 113.628L71.4304 109.327L67.677 112.678L72.2035 117.687C72.217 117.702 72.2274 117.719 72.2341 117.738C72.2409 117.756 72.2438 117.776 72.2428 117.796C72.2417 117.816 72.2367 117.836 72.2281 117.854C72.2194 117.872 72.2073 117.888 72.1924 117.901C72.1657 117.925 72.1315 117.939 72.0956 117.941Z" fill="#002E5D"/>
<path d="M78.1649 118.391C78.1339 118.391 78.1036 118.381 78.078 118.364C78.0524 118.346 78.0328 118.322 78.0218 118.293C78.0108 118.264 78.0089 118.232 78.0163 118.202C78.0238 118.173 78.0402 118.146 78.0635 118.125L97.1095 101.118L93.6362 97.2754C93.6121 97.2449 93.6006 97.2065 93.604 97.1679C93.6074 97.1293 93.6254 97.0935 93.6544 97.0676C93.6834 97.0417 93.7212 97.0278 93.7601 97.0286C93.7991 97.0294 93.8363 97.0449 93.8641 97.0719L97.4398 101.028C97.4533 101.043 97.4638 101.061 97.4705 101.079C97.4772 101.098 97.4801 101.118 97.479 101.138C97.4779 101.158 97.4727 101.178 97.4639 101.196C97.4551 101.214 97.4428 101.23 97.4277 101.243L78.2673 118.353C78.2391 118.377 78.2026 118.391 78.1649 118.391Z" fill="#002E5D"/>
<path d="M90.7174 37.165H63.5096C63.3472 37.165 63.1864 37.1332 63.0364 37.0714C62.8864 37.0096 62.7501 36.9191 62.6353 36.805C62.5204 36.6908 62.4293 36.5553 62.3672 36.4062C62.3051 36.2571 62.2731 36.0973 62.2731 35.9358C62.2733 35.61 62.4037 35.2976 62.6356 35.0673C62.8675 34.837 63.1818 34.7076 63.5096 34.7076H90.7174C91.0451 34.7076 91.3594 34.837 91.5911 35.0674C91.8228 35.2977 91.953 35.6101 91.953 35.9358C91.9531 36.0972 91.9213 36.257 91.8592 36.4061C91.7972 36.5553 91.7062 36.6908 91.5914 36.8049C91.4767 36.9191 91.3404 37.0096 91.1905 37.0714C91.0405 37.1332 90.8797 37.165 90.7174 37.165Z" fill="#454E54"/>
<path d="M135.471 139.42H22.2458C22.2247 139.421 22.2035 139.419 22.1835 139.412C22.1635 139.405 22.1451 139.394 22.1296 139.38C22.1141 139.365 22.1017 139.348 22.0932 139.329C22.0847 139.309 22.0803 139.289 22.0803 139.268C22.0803 139.247 22.0847 139.226 22.0932 139.206C22.1017 139.187 22.1141 139.17 22.1296 139.156C22.1451 139.141 22.1635 139.13 22.1835 139.123C22.2035 139.117 22.2247 139.114 22.2458 139.115H135.471C135.51 139.118 135.546 139.136 135.572 139.164C135.598 139.192 135.613 139.229 135.613 139.268C135.613 139.306 135.598 139.343 135.572 139.371C135.546 139.399 135.51 139.417 135.471 139.42Z" fill="#002E5D"/>
<path d="M127.376 142.545H80.4332C80.3928 142.545 80.3539 142.529 80.3253 142.5C80.2967 142.472 80.2806 142.433 80.2806 142.393C80.2806 142.353 80.2967 142.314 80.3253 142.286C80.3539 142.257 80.3928 142.241 80.4332 142.241H127.376C127.417 142.241 127.456 142.257 127.484 142.286C127.513 142.314 127.529 142.353 127.529 142.393C127.529 142.433 127.513 142.472 127.484 142.5C127.456 142.529 127.417 142.545 127.376 142.545Z" fill="#002E5D"/>
<path d="M84.2574 146H38.2614C38.2209 146 38.1821 145.984 38.1535 145.956C38.1248 145.927 38.1088 145.889 38.1088 145.848C38.1088 145.808 38.1248 145.77 38.1535 145.741C38.1821 145.713 38.2209 145.697 38.2614 145.697H84.2574C84.2979 145.697 84.3367 145.713 84.3653 145.741C84.3939 145.77 84.41 145.808 84.41 145.848C84.41 145.889 84.3939 145.927 84.3653 145.956C84.3367 145.984 84.2979 146 84.2574 146Z" fill="#002E5D"/>
<path d="M54.6328 53.4681C60.1783 47.9558 60.1783 39.0187 54.6328 33.5065C49.0872 27.9942 40.0961 27.9942 34.5505 33.5065C29.005 39.0187 29.005 47.9558 34.5505 53.4681C40.0961 58.9804 49.0872 58.9804 54.6328 53.4681Z" fill="#F70431"/>
<path d="M44.5919 51.8756C43.3563 51.8741 42.1718 51.3856 41.2981 50.5171C40.4244 49.6487 39.9329 48.4712 39.9314 47.243V39.601C39.9314 38.3724 40.4224 37.1941 41.2964 36.3253C42.1705 35.4565 43.3559 34.9685 44.5919 34.9685C45.828 34.9685 47.0134 35.4565 47.8874 36.3253C48.7615 37.1941 49.2525 38.3724 49.2525 39.601V47.243C49.251 48.4712 48.7595 49.6487 47.8858 50.5171C47.0121 51.3856 45.8275 51.8741 44.5919 51.8756ZM44.5919 36.5231C43.7714 36.5248 42.985 36.8497 42.405 37.4266C41.8249 38.0035 41.4985 38.7854 41.4973 39.601V47.243C41.4973 48.0596 41.8237 48.8427 42.4045 49.4201C42.9854 49.9975 43.7732 50.3218 44.5947 50.3218C45.4162 50.3218 46.2041 49.9975 46.7849 49.4201C47.3658 48.8427 47.6922 48.0596 47.6922 47.243V39.601C47.6912 38.7843 47.3641 38.0013 46.7829 37.4241C46.2016 36.8468 45.4136 36.5224 44.5919 36.5222V36.5231Z" fill="#454E54"/>
<path d="M38.266 42.875C37.8753 43.894 37.7396 44.9921 37.8705 46.0748C38.0015 47.1574 38.3951 48.1923 39.0176 49.0902C39.6401 49.9882 40.4728 50.7223 41.444 51.2295C42.4152 51.7366 43.4958 52.0016 44.5929 52.0016C45.69 52.0016 46.7706 51.7366 47.7418 51.2295C48.713 50.7223 49.5457 49.9882 50.1682 49.0902C50.7907 48.1923 51.1844 47.1574 51.3153 46.0748C51.4462 44.9921 51.3105 43.894 50.9199 42.875C50.8521 42.6963 50.7315 42.5422 50.5739 42.4331C50.4162 42.3239 50.229 42.2648 50.0369 42.2636H39.1508C38.9584 42.2643 38.7707 42.3232 38.6126 42.4324C38.4546 42.5415 38.3337 42.6959 38.266 42.875Z" fill="#F9F9F9"/>
<path d="M45.8965 45.6958C45.896 45.4654 45.8337 45.2393 45.716 45.0408C45.5983 44.8423 45.4295 44.6787 45.2269 44.5667C45.0244 44.4547 44.7954 44.3985 44.5637 44.4039C44.332 44.4092 44.1059 44.4759 43.9088 44.597C43.7117 44.7182 43.5506 44.8895 43.4423 45.0931C43.334 45.2968 43.2823 45.5255 43.2925 45.7557C43.3028 45.9858 43.3747 46.2091 43.5007 46.4024C43.6268 46.5958 43.8024 46.7522 44.0096 46.8555V48.2197C44.0096 48.373 44.0708 48.52 44.1799 48.6284C44.2889 48.7368 44.4368 48.7977 44.5911 48.7977C44.7453 48.7977 44.8932 48.7368 45.0023 48.6284C45.1113 48.52 45.1726 48.373 45.1726 48.2197V46.8555C45.3899 46.7484 45.5729 46.583 45.7008 46.3781C45.8286 46.1732 45.8964 45.9369 45.8965 45.6958Z" fill="#F70431"/>
<path d="M45.4889 53.039C45.3298 53.039 45.1698 53.0335 45.0097 53.0224C43.93 52.9489 42.8826 52.6248 41.9516 52.0762C41.0206 51.5275 40.232 50.7696 39.649 49.8632C39.066 48.9569 38.7049 47.9273 38.5946 46.8571C38.4844 45.7869 38.628 44.7059 39.014 43.7009C39.0916 43.4929 39.2311 43.3134 39.414 43.1864C39.5969 43.0593 39.8144 42.9907 40.0375 42.9896H50.9236C51.1465 42.9903 51.364 43.0585 51.5469 43.1853C51.7298 43.312 51.8694 43.4913 51.9471 43.699C52.3478 44.7408 52.4879 45.8639 52.3552 46.9714C52.2224 48.079 51.8209 49.1379 51.1851 50.057C50.5493 50.9761 49.6983 51.7278 48.7053 52.2474C47.7124 52.767 46.6073 53.039 45.4852 53.04L45.4889 53.039ZM40.0403 43.293C39.8779 43.2931 39.7195 43.3428 39.5864 43.4352C39.4533 43.5277 39.3519 43.6585 39.2959 43.81C38.9138 44.8059 38.7808 45.8793 38.9085 46.9376C39.0363 47.996 39.4209 49.0076 40.0292 49.8854C40.6375 50.7633 41.4514 51.481 42.4007 51.9768C43.35 52.4726 44.4063 52.7317 45.4787 52.7317C46.5511 52.7317 47.6074 52.4726 48.5567 51.9768C49.506 51.481 50.3198 50.7633 50.9282 49.8854C51.5365 49.0076 51.9211 47.996 52.0488 46.9376C52.1766 45.8793 52.0436 44.8059 51.6614 43.81C51.6054 43.6597 51.5046 43.5299 51.3724 43.438C51.2402 43.3461 51.083 43.2965 50.9217 43.2958L40.0403 43.293Z" fill="#002E5D"/>
<path d="M57.2115 42.8472C57.1709 42.847 57.1321 42.8308 57.1035 42.8022C57.0749 42.7736 57.0589 42.7349 57.0589 42.6946C57.0589 34.9953 50.7571 28.7294 43.0093 28.7294C35.2616 28.7294 28.9598 34.9925 28.9598 42.6946C28.9614 42.7156 28.9587 42.7367 28.9517 42.7566C28.9448 42.7764 28.9338 42.7947 28.9194 42.8101C28.905 42.8256 28.8876 42.8379 28.8682 42.8463C28.8488 42.8547 28.8279 42.8591 28.8067 42.8591C28.7856 42.8591 28.7646 42.8547 28.7452 42.8463C28.7258 42.8379 28.7084 42.8256 28.694 42.8101C28.6796 42.7947 28.6686 42.7764 28.6617 42.7566C28.6548 42.7367 28.652 42.7156 28.6537 42.6946C28.6537 34.8279 35.0923 28.4279 43.0065 28.4279C50.9208 28.4279 57.3604 34.8279 57.3604 42.6946C57.3604 42.7343 57.3448 42.7724 57.3171 42.8009C57.2893 42.8294 57.2514 42.846 57.2115 42.8472Z" fill="#002E5D"/>
<path d="M144.793 47.8277C147.397 45.2395 147.397 41.0433 144.793 38.4551C142.189 35.8669 137.968 35.8669 135.364 38.4551C132.76 41.0433 132.76 45.2395 135.364 47.8277C137.968 50.4159 142.189 50.4159 144.793 47.8277Z" fill="#C9DAF4"/>
<path d="M17.5193 52.0151C17.824 50.732 17.0245 49.4464 15.7337 49.1435C14.4429 48.8407 13.1495 49.6354 12.8449 50.9184C12.5402 52.2015 13.3396 53.4871 14.6304 53.7899C15.9213 54.0928 17.2147 53.2981 17.5193 52.0151Z" fill="#C9DAF4"/>
<path d="M135.416 131.556C135.632 130.649 135.066 129.74 134.154 129.526C133.241 129.312 132.326 129.874 132.111 130.781C131.895 131.688 132.461 132.597 133.373 132.811C134.286 133.026 135.201 132.464 135.416 131.556Z" fill="#C9DAF4"/>
</g>
<defs>
<clipPath id="clip0_130_775">
<rect width="150" height="146" fill="white"/>
</clipPath>
</defs>
</svg>
