<svg width="150" height="150" viewBox="0 0 150 150" fill="none" xmlns="http://www.w3.org/2000/svg">
<g id="4" clip-path="url(#clip0_130_913)">
<g id="Group">
<path id="Vector" d="M150 76.8694C150 98.9186 140.191 118.711 124.638 132.245C123.489 133.247 122.311 134.213 121.103 135.142C120.144 135.88 119.165 136.596 118.166 137.288C116.35 138.549 114.476 139.731 112.543 140.834L112.255 141H37.7496C36.509 140.3 35.2911 139.567 34.0958 138.801C31.9314 137.411 29.841 135.912 27.833 134.31C10.8554 120.761 0 100.065 0 76.8694C0 36.0738 33.5794 3 74.9986 3C116.418 3 150 36.0738 150 76.8694Z" fill="#F3F8FF"/>
<g id="&#208;&#161;&#208;&#187;&#208;&#190;&#208;&#185; 2">
<g id="Layer 1">
<path id="Vector_2" d="M95.1774 44.9672H59.3285V141H95.1774V44.9672Z" fill="#325D9C"/>
<path id="Vector_3" d="M80.5502 44.9672H44.7013V141H80.5502V44.9672Z" fill="#C9DAF4"/>
<path id="Vector_4" d="M63.2554 88.436H27.4065V141H63.2554V88.436Z" fill="#325D9C"/>
<path id="Vector_5" d="M48.6273 88.436H12.7783V141H48.6273V88.436Z" fill="#C9DAF4"/>
<path id="Vector_6" d="M137.38 112.664H101.531V141H137.38V112.664Z" fill="#325D9C"/>
<path id="Vector_7" d="M122.752 112.664H86.9033V141H122.752V112.664Z" fill="#C9DAF4"/>
<path id="Vector_8" d="M127.593 110.057H92.5526V112.664H127.593V110.057Z" fill="#002E5D"/>
<path id="Vector_9" d="M54.0934 85.6987H19.0529V88.436H54.0934V85.6987Z" fill="#002E5D"/>
<path id="Vector_10" d="M87.6339 42.2298H52.5934V44.9672H87.6339V42.2298Z" fill="#325D9C"/>
<path id="Vector_11" d="M42.0998 56.1467C43.4331 56.1497 44.7577 56.3606 46.0259 56.772V85.6891C45.8491 85.6965 45.6701 85.7008 45.4933 85.7008C38.1216 85.7008 31.3879 79.0853 30.4516 70.9243C29.5154 62.7633 34.7292 56.1467 42.0998 56.1467Z" fill="#DD872A"/>
<path id="Vector_12" d="M31.8477 70.9232C32.784 79.0832 39.5166 85.6987 46.8894 85.6987C49.0476 85.713 51.1644 85.1063 52.9873 83.9508C53.1818 83.8265 53.3725 83.6962 53.5592 83.5599C57.1136 80.9695 59.149 76.2829 58.5366 70.9296V70.9232C58.5124 70.7102 58.484 70.4972 58.4514 70.2842C57.2488 62.4171 50.6759 56.1414 43.4949 56.1414C36.1274 56.1467 30.9115 62.7622 31.8477 70.9232Z" fill="#FFC15A"/>
<path id="Vector_13" d="M50.6949 81.8712C55.8611 79.2774 57.5872 72.2711 54.5502 66.2223C51.5132 60.1734 44.8633 57.3726 39.6971 59.9664C34.5309 62.5602 32.8048 69.5664 35.8418 75.6153C38.8788 81.6641 45.5287 84.465 50.6949 81.8712Z" fill="white"/>
<path id="Vector_14" d="M49.3799 79.2516C53.3101 77.2783 54.6231 71.948 52.3125 67.3459C50.002 62.7438 44.9428 60.6127 41.0125 62.586C37.0823 64.5592 35.7693 69.8896 38.0799 74.4917C40.3905 79.0938 45.4497 81.2249 49.3799 79.2516Z" fill="#FFC15A"/>
<path id="Vector_15" d="M47.8892 76.2827C50.4194 75.0123 51.2649 71.5809 49.7776 68.6186C48.2902 65.6562 45.0333 64.2845 42.5031 65.5549C39.9728 66.8253 39.1274 70.2566 40.6147 73.219C42.102 76.1814 45.3589 77.553 47.8892 76.2827Z" fill="white"/>
<path id="Vector_16" d="M46.3699 73.2577C47.4723 72.7042 47.8405 71.2088 47.1922 69.9177C46.544 68.6265 45.1248 68.0285 44.0224 68.582C42.9199 69.1355 42.5518 70.6309 43.2 71.9221C43.8483 73.2132 45.2675 73.8112 46.3699 73.2577Z" fill="#FFC15A"/>
<g id="Vector_17" style="mix-blend-mode:multiply" opacity="0.25">
<path d="M46.3495 69.9859L58.5409 70.9296V70.9232C58.5168 70.7102 58.4884 70.4972 58.4557 70.2842L46.3985 69.35L46.3495 69.9859Z" fill="#AF6215"/>
</g>
<g id="Vector_18" style="mix-blend-mode:multiply" opacity="0.25">
<path d="M44.0159 78.4579L52.9874 83.9508C53.182 83.8265 53.3726 83.6962 53.5594 83.5599L44.3418 77.9147L44.0159 78.4579Z" fill="#AF6215"/>
</g>
<path id="Vector_19" d="M46.0259 69.4406L58.2386 62.2318L58.5869 60.566L63.348 57.7562L62.8804 59.8577L64.9468 60.4637L60.1857 63.2746L58.5592 62.7761L46.3475 69.9849L46.0259 69.4406Z" fill="#002E5D"/>
<path id="Vector_20" d="M44.0947 77.8284L58.1671 79.5784L59.4602 78.4728L64.9467 79.1545L63.2925 80.5338L64.559 82.2753L59.0725 81.5936L58.0894 80.2047L44.0159 78.4558L44.0947 77.8284Z" fill="#002E5D"/>
<path id="Vector_21" d="M64.2651 28.0903L63.9637 30.2024C62.0919 29.9391 60.3361 29.1405 58.9075 27.9028C57.2172 26.4681 55.8304 24.3943 54.7983 21.7453C54.3796 20.6577 54.0344 19.5432 53.7651 18.4093C53.4577 17.1595 53.2441 15.8885 53.126 14.6068L53.0941 14.0668C53.0883 13.9895 53.0986 13.9119 53.1243 13.8388C53.15 13.7657 53.1905 13.6987 53.2433 13.642C53.2961 13.5853 53.3601 13.5401 53.4312 13.5093C53.5023 13.4785 53.579 13.4627 53.6565 13.4629H61.1315V15.5931H55.9561C55.8866 15.5931 55.818 15.6082 55.7551 15.6374C55.6921 15.6666 55.6363 15.7093 55.5915 15.7623C55.5468 15.8154 55.5142 15.8776 55.496 15.9446C55.4778 16.0116 55.4745 16.0818 55.4863 16.1502C55.5247 16.3718 55.5684 16.6103 55.6184 16.8628C55.988 18.7235 56.7155 21.3448 58.0735 23.5922C59.4198 25.8173 61.3914 27.6791 64.2651 28.0903Z" fill="#FFC15A"/>
<path id="Vector_22" d="M87.3569 13.8996L87.3069 14.6047C87.0742 17.0479 86.512 19.4485 85.6357 21.741C84.6047 24.39 83.2189 26.4585 81.5286 27.8975C80.0998 29.1357 78.3436 29.9346 76.4713 30.1981L76.1699 28.086C79.0458 27.6749 81.0162 25.813 82.3615 23.5922C83.9464 20.9805 84.6643 17.864 84.97 16.0298C84.9788 15.9767 84.9759 15.9222 84.9616 15.8703C84.9472 15.8184 84.9217 15.7702 84.8868 15.7292C84.852 15.6881 84.8086 15.6551 84.7596 15.6326C84.7107 15.61 84.6575 15.5983 84.6036 15.5985H79.3078V13.4682H86.949C87.0045 13.4683 87.0595 13.4796 87.1105 13.5016C87.1615 13.5236 87.2075 13.5558 87.2457 13.5962C87.2839 13.6365 87.3134 13.6843 87.3326 13.7364C87.3517 13.7886 87.36 13.8441 87.3569 13.8996Z" fill="#FFC15A"/>
<path id="Vector_23" d="M72.5337 31.3378H67.9462V40.2998H72.5337V31.3378Z" fill="#FFC15A"/>
<path id="Vector_24" d="M72.5337 30.6306V36.2427C70.8987 36.6166 69.3074 36.4291 67.9462 36.0393V30.6306H72.5337Z" fill="#EF9A1D"/>
<path id="Vector_25" d="M61.1285 13.4629H58.0737V15.5963H61.1285V13.4629Z" fill="#F49E21"/>
<path id="Vector_26" d="M64.2653 28.0903L63.9639 30.2024C62.0921 29.939 60.3363 29.1405 58.9077 27.9028C58.357 26.6193 58.0732 25.2371 58.0737 23.8404V23.5922C59.4201 25.8173 61.3916 27.6791 64.2653 28.0903Z" fill="#F49E21"/>
<path id="Vector_27" d="M82.3624 13.4629H79.3076V15.5963H82.3624V13.4629Z" fill="#F49E21"/>
<path id="Vector_28" d="M82.3613 23.5922V23.8361C82.3633 25.2335 82.0814 26.6167 81.5326 27.9017C80.1038 29.1399 78.3476 29.9389 76.4754 30.2024L76.174 28.0903C79.0445 27.6791 81.016 25.8173 82.3613 23.5922Z" fill="#F49E21"/>
<path id="Vector_29" d="M81.4085 10.4028V23.8404C81.4012 26.8063 80.2199 29.6486 78.123 31.7461C76.0261 33.8436 73.1841 35.0257 70.2182 35.0338C68.9746 35.0354 67.7396 34.8262 66.5659 34.415C64.6147 33.734 62.8886 32.529 61.5768 30.932C60.265 29.335 59.4182 27.4078 59.1292 25.3614C59.0586 24.8564 59.023 24.3471 59.0227 23.8372V10.4028H81.4085Z" fill="#FFC15A"/>
<path id="Vector_30" d="M82.9497 10.1716V10.636C82.9497 10.7899 82.9194 10.9423 82.8605 11.0844C82.8016 11.2265 82.7153 11.3557 82.6065 11.4645C82.4977 11.5733 82.3686 11.6596 82.2264 11.7185C82.0843 11.7774 81.9319 11.8077 81.778 11.8077H58.6648C58.3541 11.8077 58.0561 11.6842 57.8363 11.4645C57.6166 11.2448 57.4932 10.9468 57.4932 10.636V10.1716C57.4932 9.8609 57.6166 9.56289 57.8363 9.34316C58.0561 9.12344 58.3541 9 58.6648 9H81.778C82.0888 9 82.3868 9.12344 82.6065 9.34316C82.8262 9.56289 82.9497 9.8609 82.9497 10.1716Z" fill="#FFC15A"/>
<path id="Vector_31" d="M71.1788 10.4039C70.7553 13.7696 69.4041 16.9512 67.2764 19.5932C65.1487 22.2352 62.3282 24.2334 59.1301 25.3646C59.0595 24.8596 59.0239 24.3503 59.0236 23.8404V10.4039H71.1788Z" fill="#FFD469"/>
<path id="Vector_32" d="M73.0043 22.9127C72.9749 22.941 72.9528 22.9761 72.94 23.0149C72.9272 23.0537 72.924 23.095 72.9308 23.1353L73.4527 26.3126C73.4603 26.3589 73.4548 26.4065 73.4368 26.4499C73.4187 26.4933 73.3889 26.5308 73.3506 26.5581C73.3124 26.5854 73.2672 26.6014 73.2203 26.6043C73.1734 26.6072 73.1266 26.5969 73.0852 26.5746L70.2424 25.0568C70.2064 25.0374 70.1662 25.0273 70.1253 25.0273C70.0844 25.0273 70.0441 25.0374 70.0081 25.0568L67.1536 26.532C67.1119 26.5538 67.0651 26.5635 67.0182 26.56C66.9714 26.5566 66.9264 26.54 66.8885 26.5123C66.8506 26.4846 66.8212 26.4468 66.8036 26.4032C66.7861 26.3596 66.7811 26.312 66.7893 26.2657L67.2345 23.7754L67.3559 23.0959C67.3634 23.0559 67.3609 23.0146 67.3486 22.9758C67.3363 22.937 67.3147 22.9018 67.2856 22.8733L66.7051 22.2981L65.0009 20.6078C64.9681 20.5746 64.945 20.533 64.9345 20.4875C64.9239 20.442 64.9262 20.3945 64.9412 20.3503C64.9561 20.3061 64.9831 20.2669 65.019 20.2371C65.055 20.2073 65.0985 20.1881 65.1447 20.1817L68.3252 19.7397C68.3653 19.7338 68.4033 19.7184 68.4363 19.6949C68.4693 19.6714 68.4962 19.6404 68.5148 19.6044L69.9591 16.7286C69.9802 16.6867 70.0126 16.6515 70.0525 16.6269C70.0925 16.6023 70.1385 16.5892 70.1854 16.5892C70.2324 16.5892 70.2784 16.6023 70.3183 16.6269C70.3583 16.6515 70.3906 16.6867 70.4118 16.7286L71.2458 18.4519L71.3448 18.6554L71.8156 19.6278C71.8334 19.6643 71.8598 19.6959 71.8924 19.72C71.925 19.7441 71.963 19.76 72.0031 19.7663L75.1867 20.252C75.2326 20.2592 75.2755 20.279 75.3108 20.3092C75.346 20.3394 75.3721 20.3788 75.3863 20.423C75.4004 20.4672 75.402 20.5144 75.3908 20.5595C75.3797 20.6045 75.3562 20.6456 75.3231 20.6781L73.0043 22.9127Z" fill="#FCE897"/>
<path id="Vector_33" d="M59.0259 11.8087V12.3605L81.4095 13.4629V11.8087H59.0259Z" fill="#F9B13D"/>
<path id="Vector_34" d="M73.0748 9C72.8848 9.96372 72.5949 10.905 72.21 11.8087H58.6594C58.3487 11.8087 58.0507 11.6853 57.831 11.4656C57.6112 11.2458 57.4878 10.9478 57.4878 10.6371V10.1716C57.4878 9.8609 57.6112 9.56289 57.831 9.34316C58.0507 9.12344 58.3487 9 58.6594 9H73.0748Z" fill="#FFD469"/>
<path id="Vector_35" d="M71.3473 18.6554C71.0355 19.7392 70.5112 20.7501 69.8047 21.6291C69.0983 22.5082 68.224 23.2378 67.2327 23.7754L67.3541 23.0959C67.3615 23.0559 67.359 23.0146 67.3468 22.9758C67.3345 22.937 67.3129 22.9018 67.2838 22.8733L66.7033 22.2981L64.9991 20.6078C64.9662 20.5746 64.9432 20.533 64.9327 20.4875C64.9221 20.442 64.9244 20.3945 64.9393 20.3503C64.9543 20.3061 64.9812 20.2669 65.0172 20.2371C65.0531 20.2073 65.0967 20.1881 65.1429 20.1817L68.3255 19.7397C68.3655 19.7338 68.4036 19.7184 68.4366 19.6949C68.4696 19.6714 68.4965 19.6404 68.5151 19.6044L69.9594 16.7286C69.9805 16.6867 70.0129 16.6515 70.0528 16.6269C70.0928 16.6023 70.1388 16.5892 70.1857 16.5892C70.2327 16.5892 70.2787 16.6023 70.3186 16.6269C70.3586 16.6515 70.3909 16.6867 70.4121 16.7286L71.2461 18.4519L71.3473 18.6554Z" fill="#FFEEA4"/>
<path id="Vector_36" d="M74.6362 40.3008H65.801V42.2298H74.6362V40.3008Z" fill="#FFC15A"/>
<g id="Vector_37" style="mix-blend-mode:multiply" opacity="0.18">
<path d="M82.9493 10.1716V10.636C82.9493 10.7899 82.919 10.9423 82.8601 11.0844C82.8012 11.2266 82.715 11.3557 82.6062 11.4645C82.4974 11.5733 82.3682 11.6596 82.226 11.7185C82.0839 11.7774 81.9315 11.8077 81.7777 11.8077H81.4113V23.8436C81.4031 26.8095 80.2211 29.6515 78.1236 31.7484C76.0261 33.8453 73.1837 35.0265 70.2179 35.0338C68.9742 35.0354 67.7393 34.8262 66.5656 34.415C77.1657 32.7907 78.4587 19.2252 78.3533 11.8077C78.3533 11.3081 78.3363 10.8395 78.3182 10.4028C78.2979 9.8862 78.2734 9.41434 78.2457 9.00214H81.7745C81.9284 9.00172 82.081 9.03165 82.2233 9.0902C82.3657 9.14876 82.4952 9.23481 82.6043 9.34342C82.7134 9.45203 82.8 9.58109 82.8592 9.7232C82.9184 9.86531 82.949 10.0177 82.9493 10.1716Z" fill="#AF6215"/>
</g>
<g id="Vector_38" style="mix-blend-mode:multiply" opacity="0.25">
<path d="M63.2552 88.436L68.1868 141H63.2552V88.436Z" fill="#325D9C"/>
</g>
<path id="Vector_39" d="M80.71 103.53H80.3915V45.1269H44.7013V44.8085H80.71V103.53Z" fill="#002E5D"/>
<path id="Vector_40" d="M12.7789 119.409C12.7365 119.409 12.6959 119.392 12.6659 119.362C12.636 119.332 12.6191 119.291 12.6191 119.249V88.3945C12.6194 88.3523 12.6364 88.3119 12.6663 88.2822C12.6962 88.2525 12.7367 88.2358 12.7789 88.2358H31.9405C31.9829 88.2358 32.0235 88.2526 32.0535 88.2826C32.0835 88.3125 32.1003 88.3532 32.1003 88.3955C32.1003 88.4379 32.0835 88.4786 32.0535 88.5085C32.0235 88.5385 31.9829 88.5553 31.9405 88.5553H12.9387V119.25C12.9384 119.292 12.9214 119.333 12.8915 119.362C12.8616 119.392 12.8211 119.409 12.7789 119.409Z" fill="#002E5D"/>
</g>
</g>
</g>
</g>
<defs>
<clipPath id="clip0_130_913">
<rect width="150" height="150" fill="white"/>
</clipPath>
</defs>
</svg>
