<svg width="150" height="150" viewBox="0 0 150 150" fill="none" xmlns="http://www.w3.org/2000/svg">
<g clip-path="url(#clip0_130_849)">
<path d="M145.147 38.5049L150 103.283L8.11841 119.517V67.766L145.147 38.5049Z" fill="#F3F8FF"/>
<path d="M90.3808 18.3827L63.8627 20.4371L64.7061 31.3238L91.2242 29.2693L90.3808 18.3827Z" fill="#C9DAF4"/>
<path d="M86.6384 27.0794L82.2313 20.687C83.0049 19.6621 83.4663 18.4357 83.5599 17.1551C83.6535 15.8744 83.3754 14.5939 82.759 13.4675C82.1426 12.3411 81.2141 11.4165 80.085 10.805C78.9559 10.1934 77.6743 9.92078 76.394 10.0199C75.1138 10.119 73.8894 10.5856 72.8679 11.3637C71.8464 12.1418 71.0712 13.1982 70.6355 14.4061C70.1998 15.614 70.1221 16.922 70.4117 18.173C70.7013 19.424 71.3459 20.5648 72.2681 21.4583L68.8935 28.4534C68.8801 28.481 68.8724 28.511 68.8706 28.5417C68.8689 28.5723 68.8732 28.603 68.8834 28.632C68.8935 28.6609 68.9093 28.6876 68.9298 28.7105C68.9503 28.7333 68.9751 28.7519 69.0028 28.7651C69.0352 28.7813 69.071 28.7893 69.1072 28.7884C69.1506 28.788 69.193 28.7754 69.2297 28.7521C69.2663 28.7288 69.2957 28.6958 69.3145 28.6567L72.7582 21.5057C72.7582 21.5057 72.7582 21.4993 72.7582 21.4953C72.7614 21.4874 72.7641 21.4793 72.7663 21.4711C72.7686 21.4643 72.7705 21.4573 72.7719 21.4503C72.7723 21.4428 72.7723 21.4353 72.7719 21.4278C72.774 21.4128 72.774 21.3977 72.7719 21.3828C72.7723 21.3755 72.7723 21.3683 72.7719 21.3611C72.7719 21.353 72.7679 21.3458 72.7663 21.3386L72.7591 21.3185C72.7591 21.3113 72.7526 21.304 72.7494 21.2968C72.7462 21.2896 72.7422 21.2839 72.7382 21.2775C72.7341 21.2711 72.7301 21.2655 72.7253 21.2598C72.7201 21.2533 72.7145 21.2471 72.7084 21.2414L72.7012 21.2325C71.8126 20.4151 71.1821 19.356 70.887 18.1852C70.5919 17.0145 70.645 15.783 71.0399 14.6421C71.4349 13.5011 72.1543 12.5003 73.1101 11.7625C74.0658 11.0247 75.2161 10.582 76.4199 10.4887C77.6237 10.3955 78.8285 10.6558 79.8864 11.2377C80.9443 11.8196 81.8093 12.6977 82.3752 13.7642C82.941 14.8308 83.1832 16.0394 83.0718 17.2416C82.9605 18.4438 82.5005 19.5874 81.7484 20.5319C81.7462 20.5349 81.7443 20.5381 81.7428 20.5415C81.7379 20.5488 81.7331 20.5552 81.7291 20.5624C81.7252 20.5689 81.7217 20.5756 81.7187 20.5825C81.7187 20.5889 81.713 20.5962 81.7106 20.6034C81.7081 20.6105 81.706 20.6177 81.7042 20.6251C81.7038 20.6323 81.7038 20.6396 81.7042 20.6468C81.7038 20.6543 81.7038 20.6618 81.7042 20.6693C81.7038 20.6768 81.7038 20.6843 81.7042 20.6918C81.7034 20.699 81.7034 20.7063 81.7042 20.7135C81.7037 20.721 81.7037 20.7285 81.7042 20.736L81.7114 20.7577C81.7114 20.7649 81.717 20.7713 81.7195 20.7777C81.7233 20.7855 81.7276 20.793 81.7323 20.8002L81.7371 20.8099L86.2366 27.3414C86.2717 27.3914 86.325 27.4258 86.385 27.437C86.4451 27.4483 86.5072 27.4356 86.558 27.4016C86.5845 27.3858 86.6077 27.365 86.6261 27.3402C86.6445 27.3154 86.6578 27.2872 86.6653 27.2573C86.6728 27.2273 86.6742 27.1962 86.6696 27.1657C86.665 27.1351 86.6544 27.1058 86.6384 27.0794Z" fill="#C9DAF4"/>
<path d="M115.041 125.004L40.243 122.475C47.5595 90.9295 49.5867 58.5373 46.2426 26.6279L121.041 29.1564C124.385 61.0618 122.357 93.4589 115.041 125.004Z" fill="#C9DAF4"/>
<path d="M108.755 120.389H33.9141C38.2517 106.073 41.4858 91.4464 43.588 76.6364C45.2151 65.1612 46.1214 53.5952 46.3013 42.0065C46.3784 36.9028 46.3107 31.8141 46.098 26.7404H120.938C122.239 57.7338 118.121 89.3909 108.755 120.389Z" fill="white"/>
<path d="M40.3179 95.4242C40.3104 95.425 40.3028 95.425 40.2954 95.4242C40.2678 95.4175 40.244 95.4003 40.229 95.3763C40.214 95.3523 40.209 95.3233 40.215 95.2956C41.1639 90.756 42.0124 86.1472 42.7371 81.5963C42.7394 81.5822 42.7444 81.5687 42.7519 81.5566C42.7594 81.5444 42.7692 81.5339 42.7808 81.5255C42.7923 81.5172 42.8054 81.5112 42.8193 81.5079C42.8332 81.5046 42.8476 81.5041 42.8617 81.5063C42.8758 81.5086 42.8893 81.5136 42.9014 81.5211C42.9136 81.5286 42.9241 81.5384 42.9325 81.55C42.9408 81.5615 42.9468 81.5746 42.9501 81.5885C42.9534 81.6024 42.9539 81.6168 42.9517 81.6309C42.2285 86.185 41.3769 90.797 40.4263 95.3398C40.4211 95.3644 40.4073 95.3863 40.3875 95.4018C40.3676 95.4172 40.343 95.4251 40.3179 95.4242Z" fill="#002E5D"/>
<path d="M108.755 120.498H77.5438C77.515 120.498 77.4874 120.487 77.4671 120.467C77.4467 120.446 77.4353 120.419 77.4353 120.39C77.4353 120.361 77.4467 120.334 77.4671 120.313C77.4874 120.293 77.515 120.281 77.5438 120.281H108.675C118.031 89.2792 122.123 57.8423 120.834 26.8416H93.8327C93.8177 26.8429 93.8027 26.8411 93.7884 26.8362C93.7742 26.8314 93.7611 26.8236 93.7501 26.8135C93.739 26.8033 93.7301 26.7909 93.7241 26.7772C93.718 26.7634 93.7149 26.7486 93.7149 26.7335C93.7149 26.7185 93.718 26.7036 93.7241 26.6899C93.7301 26.6761 93.739 26.6638 93.7501 26.6536C93.7611 26.6434 93.7742 26.6357 93.7884 26.6308C93.8027 26.626 93.8177 26.6242 93.8327 26.6255H120.938C120.966 26.6254 120.993 26.6362 121.013 26.6555C121.033 26.6748 121.045 26.7012 121.047 26.7291C121.694 42.1623 120.99 57.9242 118.958 73.576C116.925 89.2278 113.524 104.988 108.862 120.419C108.855 120.442 108.841 120.463 108.822 120.477C108.803 120.491 108.779 120.499 108.755 120.498Z" fill="#002E5D"/>
<path d="M46.2466 31.2945C46.2184 31.2945 46.1912 31.2834 46.1711 31.2635C46.1509 31.2437 46.1394 31.2167 46.139 31.1884C46.1012 29.71 46.0514 28.2156 45.9895 26.738C45.9888 26.7233 45.991 26.7085 45.9961 26.6947C46.0012 26.6809 46.0091 26.6683 46.0193 26.6576C46.0297 26.647 46.0423 26.6386 46.0561 26.633C46.0699 26.6273 46.0847 26.6245 46.0996 26.6247H58.2522C58.2793 26.627 58.3045 26.6394 58.3228 26.6594C58.3412 26.6794 58.3514 26.7056 58.3514 26.7327C58.3514 26.7599 58.3412 26.7861 58.3228 26.8061C58.3045 26.8261 58.2793 26.8385 58.2522 26.8408H46.2105C46.2699 28.2798 46.3189 29.7398 46.3551 31.1796C46.3558 31.2082 46.3451 31.236 46.3253 31.2567C46.3056 31.2775 46.2785 31.2896 46.2499 31.2905L46.2466 31.2945Z" fill="#002E5D"/>
<path d="M71.6278 73.8741L43.9817 79.2261C43.8424 78.3631 43.7112 77.4999 43.588 76.6364C45.2152 65.1612 46.1214 53.5951 46.3014 42.0065C52.9338 42.0659 59.5673 42.1248 66.2019 42.1832C66.5546 52.9451 68.3802 63.6079 71.6278 73.8741Z" fill="#C9DAF4"/>
<path d="M68.7779 72.8665L40.7597 75.6787C39.8926 63.2297 40.7407 50.7205 43.2802 38.5025L66.2598 40.8077C65.6306 51.5588 66.4779 62.3455 68.7779 72.8665Z" fill="white"/>
<path d="M65.2811 41.7823C65.1563 44.0037 65.0896 46.2266 65.081 48.4512C57.3682 49.7978 49.6901 51.3252 42.0469 53.0334C42.4711 48.5875 43.1061 44.1745 43.9519 39.7945L65.2811 41.7823Z" fill="#F3F8FF"/>
<path d="M41.9867 53.7019C49.6465 51.9718 57.3449 50.4165 65.0819 49.0361C65.0819 49.5182 65.0819 49.7641 65.0931 50.2494C57.3154 51.6801 49.5752 53.293 41.8726 55.0879C41.9143 54.5335 41.9417 54.2563 41.9867 53.7019Z" fill="#F3F8FF"/>
<path d="M65.1253 51.7928C65.1617 52.9756 65.2124 54.1572 65.2772 55.3378C57.3265 57.0101 49.4176 58.8678 41.5504 60.9107C41.5986 59.5561 41.6642 58.2027 41.7473 56.8508C49.5008 54.9883 57.2935 53.3023 65.1253 51.7928Z" fill="#F3F8FF"/>
<path d="M41.4966 67.6271C49.5362 65.2948 57.6246 63.1458 65.7617 61.1799C66.1655 64.7902 66.728 68.3748 67.449 71.9337L41.781 74.3514C41.6353 72.1113 41.5405 69.8698 41.4966 67.6271Z" fill="#F3F8FF"/>
<path d="M40.6513 58.207H40.644C40.6154 58.2052 40.5887 58.192 40.5697 58.1705C40.5507 58.149 40.541 58.1208 40.5428 58.0921C40.9539 51.5014 41.8338 44.9482 43.1758 38.4824C43.1812 38.4563 43.1962 38.4331 43.2177 38.4174C43.2392 38.4017 43.2658 38.3945 43.2923 38.3972L66.2718 40.7016C66.2996 40.7045 66.3252 40.7179 66.3433 40.7392C66.3614 40.7604 66.3706 40.7878 66.3691 40.8157C66.1746 44.1373 66.1152 47.5079 66.1907 50.8351C66.1911 50.8638 66.1802 50.8915 66.1604 50.9123C66.1405 50.933 66.1133 50.9451 66.0846 50.946C66.0703 50.9465 66.0561 50.9442 66.0427 50.9391C66.0293 50.934 66.0171 50.9263 66.0067 50.9164C65.9964 50.9065 65.9881 50.8947 65.9825 50.8815C65.9768 50.8684 65.9738 50.8542 65.9737 50.8399C65.899 47.5416 65.9569 44.2008 66.1465 40.9073L43.3678 38.6222C42.0395 45.047 41.1677 51.5578 40.7589 58.1058C40.7571 58.1332 40.745 58.1588 40.725 58.1776C40.705 58.1964 40.6787 58.2069 40.6513 58.207Z" fill="#002E5D"/>
<path d="M40.7613 75.7896C40.7357 75.7897 40.7109 75.7806 40.6914 75.7639C40.6804 75.7546 40.6712 75.7432 40.6646 75.7304C40.658 75.7176 40.654 75.7035 40.6529 75.6892C40.4801 73.2072 40.3692 70.6891 40.3226 68.2031C40.3226 68.1744 40.3341 68.1468 40.3544 68.1264C40.3747 68.1061 40.4023 68.0947 40.4311 68.0947C40.4599 68.0947 40.4875 68.1061 40.5078 68.1264C40.5281 68.1468 40.5396 68.1744 40.5396 68.2031C40.5846 70.6481 40.693 73.1244 40.861 75.5662L63.0868 73.3293C63.1154 73.3266 63.1438 73.3354 63.1659 73.3536C63.1881 73.3718 63.2021 73.398 63.2049 73.4266C63.2065 73.4407 63.2052 73.4549 63.2012 73.4686C63.1972 73.4822 63.1905 73.4948 63.1815 73.5058C63.1725 73.5168 63.1614 73.5259 63.1489 73.5326C63.1364 73.5393 63.1226 73.5434 63.1085 73.5447L40.7718 75.7888L40.7613 75.7896Z" fill="#002E5D"/>
<path d="M55.8418 48.0285L45.5573 47.5127C45.5431 47.512 45.5293 47.5085 45.5165 47.5024C45.5037 47.4963 45.4922 47.4878 45.4827 47.4772C45.4733 47.4667 45.466 47.4544 45.4612 47.4411C45.4565 47.4277 45.4545 47.4136 45.4552 47.3994C45.4554 47.3851 45.4585 47.3709 45.4644 47.3578C45.4703 47.3447 45.4788 47.333 45.4895 47.3233C45.5001 47.3137 45.5126 47.3063 45.5262 47.3017C45.5398 47.2971 45.5542 47.2954 45.5685 47.2966L55.8531 47.8124C55.8818 47.8132 55.9091 47.8253 55.9289 47.8462C55.9488 47.867 55.9595 47.8949 55.9587 47.9237C55.958 47.9525 55.9458 47.9798 55.925 47.9996C55.9041 48.0194 55.8762 48.0301 55.8474 48.0294L55.8418 48.0285Z" fill="#002E5D"/>
<path d="M62.4528 53.9936L44.9506 53.7277C44.9364 53.7274 44.9223 53.7244 44.9092 53.7188C44.8962 53.7131 44.8843 53.705 44.8744 53.6947C44.8645 53.6845 44.8567 53.6724 44.8514 53.6592C44.8461 53.646 44.8435 53.6318 44.8438 53.6176C44.8452 53.5891 44.8573 53.5623 44.8778 53.5425C44.8982 53.5226 44.9254 53.5113 44.9538 53.5107L62.456 53.7775C62.4831 53.7798 62.5083 53.7922 62.5266 53.8122C62.545 53.8322 62.5552 53.8584 62.5552 53.8855C62.5552 53.9127 62.545 53.9389 62.5266 53.9589C62.5083 53.9789 62.4831 53.9913 62.456 53.9936H62.4528Z" fill="#002E5D"/>
<path d="M44.6422 59.9626C44.6134 59.9626 44.5858 59.9512 44.5655 59.9309C44.5451 59.9105 44.5337 59.8829 44.5337 59.8542C44.5337 59.8254 44.5451 59.7978 44.5655 59.7775C44.5858 59.7571 44.6134 59.7457 44.6422 59.7457L62.7454 59.4034C62.7741 59.4034 62.8017 59.4145 62.8224 59.4345C62.8431 59.4544 62.8552 59.4816 62.8562 59.5103C62.8565 59.539 62.8454 59.5666 62.8254 59.5872C62.8054 59.6078 62.7781 59.6197 62.7494 59.6203L44.6462 59.9626H44.6422Z" fill="#002E5D"/>
<path d="M44.631 66.2057C44.6038 66.2041 44.5782 66.1925 44.5592 66.1729C44.5402 66.1534 44.5293 66.1274 44.5286 66.1002C44.5279 66.073 44.5374 66.0465 44.5554 66.026C44.5733 66.0055 44.5983 65.9925 44.6253 65.9895L63.3006 65.0117C63.3148 65.0108 63.3291 65.0128 63.3426 65.0176C63.356 65.0223 63.3684 65.0297 63.3789 65.0392C63.3895 65.0488 63.398 65.0604 63.404 65.0734C63.41 65.0863 63.4134 65.1003 63.4139 65.1145C63.4154 65.1432 63.4056 65.1713 63.3864 65.1927C63.3673 65.214 63.3405 65.227 63.3119 65.2286L44.6366 66.2057H44.631Z" fill="#002E5D"/>
<path d="M55.8748 38.6728L53.3462 43.0968L52.4528 37.7713L55.8748 38.6728Z" fill="#454E54"/>
<path d="M56.6359 38.6127C56.863 37.7316 55.8732 36.7148 54.4253 36.3416C52.9773 35.9684 51.6193 36.3802 51.3923 37.2613C51.1652 38.1424 52.1549 39.1592 53.6029 39.5324C55.0509 39.9056 56.4088 39.4938 56.6359 38.6127Z" fill="#454E54"/>
<path d="M73.6791 106.313L101.326 111.665C103.323 99.3464 103.618 86.812 102.203 74.4132L79.1106 74.6181C78.757 85.3816 76.9295 96.0458 73.6791 106.313Z" fill="#C9DAF4"/>
<path d="M76.5291 105.305L104.548 108.118C105.414 95.6686 104.566 83.1596 102.027 70.9414L79.048 73.2458C79.6772 83.9972 78.8297 94.7842 76.5291 105.305Z" fill="white"/>
<path d="M80.0266 74.2212C80.1509 76.4425 80.2176 78.6655 80.2267 80.8901C87.9401 82.2367 95.6184 83.7647 103.262 85.4739C102.837 81.028 102.202 76.615 101.357 72.235L80.0266 74.2212Z" fill="#F3F8FF"/>
<path d="M103.323 86.1408C95.6596 84.4112 87.9612 82.8559 80.2274 81.475C80.2274 81.9571 80.2274 82.2029 80.2162 82.6882C87.9939 84.119 95.7341 85.7318 103.437 87.5268C103.394 86.9724 103.372 86.6952 103.323 86.1408Z" fill="#F3F8FF"/>
<path d="M80.1873 84.2318C80.1508 85.4145 80.1002 86.5961 80.0354 87.7767C87.9866 89.449 95.8956 91.3064 103.762 93.3488C103.714 91.9947 103.648 90.6416 103.564 89.2897C95.8088 87.4288 88.0164 85.7428 80.1873 84.2318Z" fill="#F3F8FF"/>
<path d="M103.81 100.066C95.7689 97.7337 87.6805 95.5846 79.5445 93.6188C79.1406 97.2285 78.5782 100.813 77.8572 104.373L103.524 106.79C103.672 104.55 103.767 102.309 103.81 100.066Z" fill="#F3F8FF"/>
<path d="M104.658 90.6459C104.631 90.646 104.604 90.6355 104.584 90.6167C104.564 90.5979 104.552 90.5721 104.55 90.5447C104.141 83.9968 103.269 77.486 101.941 71.0611L79.1636 73.3462C79.3532 76.6405 79.4119 79.9805 79.3363 83.2788C79.3363 83.2931 79.3335 83.3072 79.3279 83.3204C79.3223 83.3335 79.3141 83.3454 79.3039 83.3553C79.2936 83.3652 79.2814 83.3729 79.2681 83.378C79.2547 83.3831 79.2405 83.3854 79.2263 83.3849C79.212 83.3846 79.198 83.3815 79.1849 83.3757C79.1719 83.37 79.1601 83.3617 79.1503 83.3514C79.1404 83.3411 79.1327 83.329 79.1275 83.3157C79.1224 83.3024 79.1199 83.2883 79.1202 83.274C79.1957 79.9468 79.1355 76.5762 78.9418 73.2546C78.9402 73.2267 78.9495 73.1993 78.9676 73.1781C78.9857 73.1568 79.0113 73.1434 79.0391 73.1405L102.019 70.8361C102.045 70.8334 102.072 70.8406 102.093 70.8563C102.115 70.8721 102.13 70.8952 102.135 70.9213C103.477 77.3872 104.356 83.9403 104.768 90.531C104.77 90.5596 104.76 90.5877 104.741 90.6092C104.722 90.6307 104.695 90.6439 104.667 90.6459H104.658Z" fill="#002E5D"/>
<path d="M104.548 108.228H104.538L82.2008 105.984C82.1859 105.984 82.1713 105.98 82.1578 105.974C82.1444 105.968 82.1324 105.959 82.1226 105.947C82.1128 105.936 82.1054 105.923 82.1009 105.909C82.0963 105.895 82.0948 105.88 82.0963 105.865C82.0977 105.85 82.1023 105.836 82.1095 105.823C82.1168 105.81 82.1267 105.799 82.1385 105.79C82.1503 105.781 82.1639 105.774 82.1783 105.771C82.1928 105.767 82.2078 105.766 82.2225 105.769L104.448 108.002C104.616 105.56 104.724 103.084 104.769 100.639C104.768 100.624 104.769 100.609 104.774 100.595C104.779 100.58 104.787 100.567 104.797 100.556C104.807 100.545 104.82 100.536 104.833 100.53C104.847 100.524 104.862 100.521 104.877 100.521C104.892 100.521 104.907 100.524 104.921 100.53C104.934 100.536 104.947 100.545 104.957 100.556C104.967 100.567 104.975 100.58 104.98 100.595C104.984 100.609 104.986 100.624 104.985 100.639C104.939 103.125 104.824 105.643 104.655 108.124C104.654 108.139 104.65 108.153 104.644 108.166C104.637 108.179 104.628 108.19 104.617 108.2C104.598 108.217 104.574 108.227 104.548 108.228Z" fill="#002E5D"/>
<path d="M89.4642 80.4675C89.4355 80.4682 89.4076 80.4575 89.3867 80.4377C89.3658 80.4179 89.3537 80.3906 89.3529 80.3618C89.3522 80.333 89.3629 80.3051 89.3827 80.2843C89.4025 80.2634 89.4298 80.2513 89.4586 80.2505L99.7431 79.7347C99.7706 79.7353 99.7967 79.7463 99.8164 79.7655C99.836 79.7846 99.8477 79.8105 99.849 79.8379C99.8503 79.8653 99.8412 79.8922 99.8235 79.9131C99.8058 79.9341 99.7808 79.9475 99.7536 79.9508L89.4691 80.4666L89.4642 80.4675Z" fill="#002E5D"/>
<path d="M82.8556 86.4325C82.8286 86.4301 82.8034 86.4177 82.785 86.3977C82.7667 86.3777 82.7565 86.3516 82.7565 86.3244C82.7565 86.2973 82.7667 86.2711 82.785 86.2511C82.8034 86.2311 82.8286 86.2187 82.8556 86.2163L100.355 85.9496C100.383 85.9496 100.411 85.961 100.431 85.9814C100.452 86.0017 100.463 86.0293 100.463 86.0581C100.463 86.0868 100.452 86.1144 100.431 86.1348C100.411 86.1551 100.383 86.1665 100.355 86.1665L82.8524 86.4325H82.8556Z" fill="#002E5D"/>
<path d="M100.667 92.4016L82.564 92.0593C82.5497 92.059 82.5357 92.0558 82.5226 92.0501C82.5096 92.0444 82.4978 92.0361 82.488 92.0258C82.4781 92.0155 82.4704 92.0034 82.4652 91.9901C82.4601 91.9768 82.4576 91.9626 82.4579 91.9484C82.458 91.9342 82.461 91.9201 82.4666 91.907C82.4722 91.8939 82.4804 91.8821 82.4906 91.8722C82.5009 91.8623 82.513 91.8546 82.5263 91.8495C82.5396 91.8443 82.5538 91.8419 82.568 91.8423L100.671 92.1846C100.7 92.1846 100.728 92.196 100.748 92.2164C100.768 92.2367 100.78 92.2643 100.78 92.2931C100.78 92.3219 100.768 92.3494 100.748 92.3698C100.728 92.3901 100.7 92.4016 100.671 92.4016H100.667Z" fill="#002E5D"/>
<path d="M100.676 98.6446L81.9975 97.6668C81.9826 97.667 81.9678 97.6642 81.9541 97.6585C81.9404 97.6528 81.928 97.6443 81.9176 97.6336C81.9073 97.6229 81.8993 97.6102 81.8941 97.5963C81.8889 97.5824 81.8866 97.5675 81.8874 97.5527C81.8881 97.5378 81.8919 97.5233 81.8986 97.51C81.9052 97.4966 81.9145 97.4848 81.9259 97.4753C81.9373 97.4657 81.9505 97.4586 81.9647 97.4543C81.979 97.4501 81.994 97.4488 82.0087 97.4506L100.684 98.4284C100.711 98.4314 100.736 98.4444 100.754 98.4649C100.772 98.4854 100.781 98.5119 100.781 98.5391C100.78 98.5663 100.769 98.5923 100.75 98.6118C100.731 98.6314 100.706 98.6431 100.678 98.6446H100.676Z" fill="#002E5D"/>
<path d="M89.4337 71.1117L91.9631 75.5357L92.8565 70.2102L89.4337 71.1117Z" fill="#454E54"/>
<path d="M91.5313 72.8577C92.9793 72.4845 93.9691 71.4677 93.742 70.5866C93.5149 69.7055 92.157 69.2937 90.709 69.6669C89.261 70.0401 88.2713 71.0569 88.4983 71.938C88.7254 72.8191 90.0833 73.2309 91.5313 72.8577Z" fill="#454E54"/>
<path d="M100.538 35.5847L73.6815 40.0789L74.7416 46.4138L101.598 41.9196L100.538 35.5847Z" fill="#F3F8FF"/>
<path d="M106.472 50.6736H79.2416V57.0966H106.472V50.6736Z" fill="#F3F8FF"/>
<path d="M73.9733 82.3715L49.469 83.8745L49.8622 90.2855L74.3665 88.7824L73.9733 82.3715Z" fill="#F3F8FF"/>
<path d="M75.1254 46.8723L74.3693 45.9524L73.7739 46.9969C73.7111 47.1103 73.6356 47.2162 73.549 47.3126C73.4811 47.3796 73.3911 47.4193 73.2959 47.4243C73.1866 47.4376 73.0763 47.4089 72.9873 47.344C72.9468 47.317 72.9128 47.2814 72.8877 47.2397C72.8625 47.1981 72.8469 47.1514 72.8419 47.1029C72.8333 47.006 72.8837 46.8619 72.993 46.6707L73.7161 45.4028L72.8877 44.4748C72.7447 44.3229 72.6676 44.1855 72.6571 44.0642C72.6528 44.0173 72.6588 43.97 72.6748 43.9258C72.6908 43.8815 72.7163 43.8412 72.7495 43.8079C72.8244 43.7279 72.927 43.6796 73.0364 43.6729C73.1335 43.6607 73.2318 43.6844 73.3127 43.7396C73.4135 43.8174 73.5054 43.906 73.5867 44.0039L74.2568 44.7656L74.763 43.8971C74.8251 43.7844 74.9004 43.6795 74.9872 43.5845C75.057 43.5181 75.1481 43.4785 75.2443 43.4728C75.3537 43.4593 75.4643 43.4861 75.5553 43.5483C75.5951 43.5748 75.6286 43.6098 75.6532 43.6508C75.6778 43.6918 75.6929 43.7378 75.6975 43.7854C75.7039 43.8552 75.6932 43.9256 75.6661 43.9903C75.6306 44.0745 75.5873 44.1552 75.5368 44.2313L74.8892 45.2927L75.8292 46.4103C75.9771 46.5855 76.0542 46.7197 76.0631 46.8121C76.0673 46.8602 76.0606 46.9087 76.0435 46.9539C76.0264 46.9992 75.9993 47.0399 75.9642 47.0732C75.8868 47.151 75.7837 47.1978 75.6742 47.205C75.5769 47.2164 75.4788 47.1924 75.3978 47.1375C75.2964 47.0606 75.205 46.9716 75.1254 46.8723Z" fill="#454E54"/>
<path d="M78.7185 46.5469L77.9624 45.6261L77.3662 46.6707C77.3039 46.7842 77.2287 46.8902 77.1421 46.9864C77.0742 47.0534 76.9842 47.0931 76.889 47.0981C76.7797 47.1115 76.6693 47.0827 76.5804 47.0178C76.5399 46.9908 76.5058 46.9552 76.4807 46.9136C76.4555 46.8719 76.4399 46.8252 76.435 46.7767C76.4264 46.6803 76.4768 46.5365 76.5861 46.3453L77.3092 45.0766L76.4808 44.1493C76.3378 43.9967 76.2609 43.8598 76.2502 43.7388C76.2458 43.6919 76.2517 43.6447 76.2675 43.6004C76.2834 43.5562 76.3087 43.5159 76.3418 43.4825C76.4184 43.4031 76.5225 43.356 76.6327 43.3507C76.7298 43.3385 76.8281 43.3622 76.9091 43.4174C77.0097 43.495 77.1013 43.5837 77.1822 43.6817L77.8531 44.4434L78.3585 43.5749C78.4207 43.462 78.4962 43.3571 78.5835 43.2623C78.653 43.1954 78.7443 43.1558 78.8406 43.1506C78.95 43.1367 79.0607 43.1636 79.1516 43.2262C79.1919 43.253 79.2257 43.2886 79.2503 43.3304C79.2749 43.3721 79.2898 43.4189 79.2938 43.4672C79.2998 43.537 79.2891 43.6073 79.2624 43.6721C79.2268 43.7562 79.1835 43.8369 79.1331 43.9131L78.4855 44.9745L79.4272 46.0833C79.5742 46.2577 79.6521 46.3927 79.661 46.4851C79.6651 46.5331 79.6583 46.5814 79.6412 46.6265C79.6241 46.6716 79.5971 46.7122 79.5621 46.7454C79.4852 46.8238 79.3818 46.8708 79.2721 46.8772C79.1749 46.8888 79.0768 46.8651 78.9957 46.8105C78.8928 46.7344 78.7996 46.6459 78.7185 46.5469Z" fill="#454E54"/>
<path d="M82.3149 46.2207L81.558 45.3007L80.9626 46.3453C80.9001 46.4587 80.8249 46.5646 80.7384 46.661C80.6704 46.7276 80.5804 46.7673 80.4853 46.7727C80.3761 46.7856 80.2659 46.757 80.1768 46.6924C80.1363 46.6654 80.1022 46.6298 80.0771 46.5882C80.0519 46.5465 80.0363 46.4997 80.0314 46.4513C80.0228 46.3549 80.0732 46.2111 80.1824 46.0198L80.9056 44.7512L80.0772 43.8239C79.9342 43.6713 79.8573 43.5344 79.8466 43.4134C79.842 43.3664 79.8479 43.319 79.8637 43.2746C79.8796 43.2302 79.905 43.1898 79.9382 43.1562C80.0149 43.0771 80.1189 43.0303 80.229 43.0253C80.3263 43.0124 80.4248 43.0362 80.5054 43.092C80.6061 43.1693 80.6977 43.2577 80.7786 43.3555L81.4495 44.1172L81.9549 43.2495C82.017 43.1366 82.0926 43.0316 82.1799 42.9369C82.2494 42.87 82.3407 42.8304 82.437 42.8252C82.5464 42.8113 82.6571 42.8382 82.7479 42.9007C82.788 42.9269 82.8217 42.9619 82.8463 43.0029C82.8709 43.044 82.8859 43.0901 82.8902 43.1378C82.8961 43.2076 82.8853 43.2778 82.8588 43.3427C82.823 43.4267 82.7797 43.5074 82.7295 43.5837L82.0819 44.6451L83.0235 45.7619C83.1708 45.936 83.2488 46.0699 83.2573 46.1637C83.2615 46.2117 83.2547 46.26 83.2376 46.3051C83.2205 46.3502 83.1935 46.3908 83.1585 46.424C83.0815 46.5024 82.9782 46.5494 82.8685 46.5558C82.7713 46.5675 82.6732 46.5439 82.5921 46.4891C82.4887 46.4117 82.3955 46.3215 82.3149 46.2207Z" fill="#454E54"/>
<path d="M85.9105 45.8953L85.1544 44.9753L84.559 46.0199C84.4963 46.1331 84.4211 46.2391 84.3349 46.3356C84.2667 46.402 84.1768 46.4414 84.0818 46.4465C83.9725 46.4595 83.8623 46.4308 83.7732 46.3662C83.7327 46.3392 83.6987 46.3036 83.6736 46.2619C83.6484 46.2203 83.6328 46.1735 83.6278 46.1251C83.619 46.0287 83.6688 45.8841 83.7789 45.6937L84.502 44.425L83.6744 43.4977C83.5314 43.3451 83.4543 43.2085 83.443 43.0864C83.4391 43.0395 83.4454 42.9924 83.4613 42.9482C83.4773 42.9039 83.5025 42.8637 83.5354 42.8301C83.6119 42.7506 83.716 42.7034 83.8263 42.6983C83.9236 42.6863 84.0219 42.7103 84.1027 42.7658C84.2033 42.8431 84.295 42.9315 84.3758 43.0293L85.0468 43.791L85.5521 42.9233C85.6141 42.8103 85.6896 42.7053 85.7771 42.6107C85.8464 42.544 85.9374 42.5044 86.0334 42.499C86.1429 42.4847 86.2537 42.5116 86.3444 42.5745C86.3845 42.6005 86.4181 42.6353 86.4428 42.6762C86.4674 42.7172 86.4824 42.7632 86.4866 42.8108C86.4929 42.8808 86.4824 42.9513 86.4561 43.0165C86.4202 43.1005 86.3769 43.1812 86.3267 43.2575L85.6783 44.3181L86.6192 45.4357C86.7662 45.6109 86.8441 45.7451 86.853 45.8375C86.8571 45.8855 86.8503 45.9338 86.8332 45.9789C86.8161 46.024 86.7891 46.0646 86.7541 46.0978C86.6767 46.1761 86.5732 46.223 86.4633 46.2296C86.3664 46.2412 86.2686 46.2175 86.1877 46.1629C86.0848 46.0853 85.9917 45.9955 85.9105 45.8953Z" fill="#454E54"/>
<path d="M84.4087 57.287L83.8568 56.2321L83.0605 57.1312C82.9759 57.2295 82.8805 57.3179 82.7761 57.3947C82.6961 57.4462 82.6 57.4665 82.5061 57.4518C82.3961 57.442 82.2941 57.3905 82.2209 57.3079C82.1868 57.2734 82.1608 57.2319 82.1445 57.1862C82.1283 57.1405 82.1223 57.0918 82.1269 57.0436C82.1381 56.9472 82.2168 56.8165 82.3631 56.6515L83.3313 55.558L82.7102 54.4805C82.6031 54.3021 82.5556 54.1524 82.568 54.0313C82.5736 53.9846 82.5894 53.9397 82.614 53.8996C82.6387 53.8595 82.6718 53.8252 82.711 53.7991C82.802 53.7371 82.9133 53.7124 83.0219 53.73C83.1198 53.7375 83.2114 53.781 83.279 53.8522C83.3621 53.9484 83.4338 54.0538 83.4928 54.1663L83.9933 55.0502L84.6659 54.3037C84.7498 54.2057 84.8453 54.1183 84.9503 54.0434C85.0318 53.9922 85.1291 53.9719 85.2243 53.9863C85.3339 53.9955 85.4365 54.0444 85.5127 54.1237C85.5467 54.1575 85.5725 54.1986 85.5882 54.2438C85.6039 54.2891 85.6092 54.3373 85.6035 54.3849C85.5954 54.4544 85.5709 54.5211 85.532 54.5793C85.4796 54.6543 85.4207 54.7244 85.356 54.789L84.5052 55.6954L85.1969 56.9809C85.3041 57.1818 85.3531 57.3294 85.344 57.4236C85.3382 57.4715 85.3216 57.5175 85.2956 57.5581C85.2696 57.5987 85.2348 57.6329 85.1937 57.6583C85.1023 57.7191 84.9915 57.744 84.8828 57.7282C84.7852 57.7197 84.6939 57.6763 84.6257 57.606C84.5405 57.509 84.4677 57.4019 84.4087 57.287Z" fill="#325D9C"/>
<path d="M87.9955 57.7033L87.4436 56.6475L86.6481 57.5466C86.5632 57.6445 86.4678 57.7329 86.3637 57.8101C86.2834 57.8616 86.1871 57.8818 86.0929 57.8672C85.983 57.8571 85.8811 57.8057 85.8077 57.7233C85.7736 57.6889 85.7476 57.6473 85.7315 57.6016C85.7153 57.5559 85.7095 57.5072 85.7145 57.459C85.7257 57.3626 85.8044 57.2324 85.9507 57.0669L86.9149 55.9734L86.293 54.8967C86.1845 54.7183 86.1371 54.5681 86.1507 54.4476C86.1561 54.4007 86.1717 54.3557 86.1964 54.3155C86.2211 54.2754 86.2544 54.2412 86.2938 54.2154C86.3845 54.1528 86.4959 54.1277 86.6047 54.1455C86.7025 54.1534 86.7939 54.1969 86.8618 54.2676C86.9447 54.3639 87.0164 54.4693 87.0756 54.5817L87.5769 55.4656L88.2494 54.7191C88.3331 54.6212 88.4283 54.5338 88.5331 54.4588C88.6146 54.4076 88.7118 54.3873 88.8071 54.4018C88.9172 54.4107 89.0202 54.4599 89.0963 54.54C89.1301 54.5737 89.1559 54.6146 89.1716 54.6597C89.1873 54.7048 89.1926 54.7529 89.1871 54.8003C89.179 54.87 89.1542 54.9367 89.1148 54.9947C89.0624 55.0697 89.0035 55.1398 88.9388 55.2044L88.0879 56.1108L88.7805 57.3963C88.8877 57.5972 88.9364 57.7448 88.9268 57.8391C88.9209 57.8869 88.9044 57.9329 88.8784 57.9735C88.8524 58.0141 88.8176 58.0483 88.7765 58.0737C88.6851 58.1346 88.5743 58.1595 88.4656 58.1436C88.368 58.1351 88.2767 58.0917 88.2085 58.0214C88.1251 57.9242 88.0536 57.8174 87.9955 57.7033Z" fill="#325D9C"/>
<path d="M95.1698 58.5373L94.6178 57.4815L93.8216 58.3766C93.7372 58.4751 93.6418 58.5635 93.5372 58.6401C93.4573 58.6919 93.3612 58.7125 93.2672 58.698C93.1574 58.6877 93.0555 58.6364 92.9819 58.5542C92.948 58.5194 92.9219 58.4777 92.9057 58.4319C92.8895 58.3862 92.8834 58.3374 92.8879 58.289C92.8992 58.1926 92.9779 58.0622 93.1242 57.8977L94.0883 56.8034L93.4673 55.7267C93.3601 55.5483 93.3127 55.3986 93.325 55.2776C93.3304 55.2307 93.346 55.1857 93.3707 55.1455C93.3954 55.1054 93.4287 55.0712 93.4681 55.0454C93.559 54.9831 93.6702 54.9581 93.779 54.9755C93.8767 54.9834 93.9682 55.0269 94.0361 55.0976C94.119 55.1939 94.1907 55.2993 94.2498 55.4117L94.7504 56.2956L95.4229 55.5491C95.5068 55.4514 95.6023 55.3642 95.7074 55.2896C95.7889 55.2384 95.8861 55.2181 95.9813 55.2326C96.0912 55.241 96.194 55.29 96.2698 55.37C96.3038 55.4037 96.3296 55.4448 96.3454 55.49C96.3611 55.5353 96.3663 55.5835 96.3606 55.6311C96.3524 55.7004 96.3279 55.7668 96.2891 55.8247C96.2367 55.8997 96.1778 55.9698 96.1131 56.0344L95.2622 56.9416L95.9548 58.2271C96.0625 58.4288 96.1155 58.5758 96.1011 58.6699C96.0953 58.7179 96.0789 58.764 96.0528 58.8047C96.0268 58.8455 95.9919 58.8799 95.9508 58.9053C95.8591 58.9657 95.7485 58.9903 95.6399 58.9744C95.5424 58.9658 95.4513 58.9228 95.3827 58.853C95.2992 58.7568 95.2277 58.6508 95.1698 58.5373Z" fill="#325D9C"/>
<path d="M54.7781 90.8926L53.9843 90.0047L53.4315 91.0718C53.3735 91.1878 53.3026 91.297 53.2202 91.3972C53.1551 91.4668 53.0668 91.5103 52.9719 91.5193C52.8631 91.5362 52.752 91.5112 52.6609 91.4494C52.6194 91.4242 52.5839 91.3903 52.557 91.3498C52.53 91.3094 52.5123 91.2636 52.5051 91.2156C52.4922 91.12 52.5364 90.9745 52.6376 90.7785L53.3077 89.4801L52.4432 88.5874C52.2937 88.4412 52.211 88.307 52.1949 88.1857C52.1888 88.139 52.1928 88.0917 52.2067 88.0467C52.2206 88.0018 52.2439 87.9604 52.2753 87.9253C52.3482 87.8428 52.45 87.7913 52.5597 87.7815C52.6563 87.7654 52.7554 87.7851 52.8385 87.8369C52.9426 87.9099 53.0381 87.9945 53.1229 88.0892L53.8252 88.822L54.2936 87.9334C54.3509 87.8182 54.4219 87.7103 54.5049 87.612C54.5716 87.5423 54.6612 87.499 54.7572 87.4899C54.8657 87.4715 54.9772 87.4935 55.0706 87.5517C55.1118 87.5763 55.1468 87.6099 55.1731 87.6499C55.1994 87.69 55.2163 87.7356 55.2224 87.7831C55.232 87.8524 55.2246 87.923 55.2007 87.9888C55.1685 88.0744 55.1287 88.1569 55.0818 88.2355L54.4792 89.3226L55.4659 90.4001C55.6201 90.5677 55.7037 90.6987 55.7166 90.793C55.7226 90.8408 55.7178 90.8894 55.7025 90.9352C55.6872 90.981 55.6618 91.0227 55.6282 91.0573C55.5548 91.1392 55.4532 91.1905 55.3437 91.2011C55.2473 91.2175 55.1481 91.198 55.0649 91.1465C54.9594 91.0738 54.863 90.9886 54.7781 90.8926Z" fill="#F70431"/>
<path d="M58.3575 90.4153L57.5637 89.5315L57.0125 90.5961C56.9545 90.7109 56.8836 90.8188 56.8012 90.9175C56.7361 90.9872 56.6478 91.0306 56.5529 91.0396C56.4441 91.0566 56.333 91.0316 56.2419 90.9697C56.2002 90.945 56.1646 90.9112 56.1376 90.8709C56.1106 90.8306 56.093 90.7847 56.0861 90.7367C56.0732 90.6403 56.1174 90.4943 56.2186 90.2988L56.8863 89.0036L56.0202 88.1118C55.8707 87.9655 55.788 87.8316 55.7719 87.71C55.7655 87.6635 55.7694 87.6162 55.7833 87.5713C55.7972 87.5265 55.8207 87.4853 55.8522 87.4505C55.9254 87.3678 56.0275 87.3163 56.1375 87.3067C56.234 87.2903 56.3331 87.3097 56.4163 87.3613C56.5201 87.4347 56.6155 87.5193 56.7007 87.6136L57.403 88.3464L57.8746 87.4625C57.9316 87.3472 58.0026 87.2392 58.0859 87.1412C58.1524 87.0716 58.2417 87.0283 58.3374 87.019C58.4463 87.0004 58.5582 87.0228 58.6516 87.0817C58.6927 87.1061 58.7277 87.1396 58.754 87.1795C58.7803 87.2195 58.7972 87.2649 58.8034 87.3123C58.8131 87.3816 58.8056 87.4522 58.7817 87.518C58.7495 87.6036 58.7097 87.6861 58.6628 87.7647L58.0594 88.8518L59.0469 89.9292C59.2011 90.0974 59.2844 90.2284 59.2968 90.3221C59.3029 90.3699 59.2982 90.4185 59.2831 90.4643C59.2679 90.51 59.2427 90.5518 59.2092 90.5865C59.1357 90.6682 59.0342 90.7196 58.9247 90.7303C58.8283 90.7466 58.7291 90.7272 58.6459 90.6757C58.5394 90.6011 58.4425 90.5137 58.3575 90.4153Z" fill="#F70431"/>
<path d="M65.5166 89.4616L64.7219 88.5778L64.1707 89.6448C64.1127 89.7594 64.0421 89.8672 63.9602 89.9662C63.8951 90.0356 63.8067 90.0787 63.7119 90.0875C63.603 90.1051 63.4915 90.0804 63.4002 90.0184C63.3586 89.9932 63.3231 89.9593 63.2962 89.9188C63.2693 89.8784 63.2516 89.8326 63.2443 89.7846C63.2315 89.6882 63.2756 89.5435 63.3777 89.3467L64.0478 88.0491L63.1808 87.1572C63.0325 87.011 62.95 86.8771 62.9334 86.7555C62.9269 86.7088 62.9307 86.6613 62.9446 86.6164C62.9585 86.5714 62.9821 86.53 63.0137 86.4951C63.0864 86.4123 63.1883 86.3608 63.2981 86.3513C63.3947 86.3346 63.4941 86.3543 63.577 86.4068C63.681 86.4798 63.7767 86.5641 63.8622 86.6582L64.5636 87.391L65.0329 86.5024C65.0898 86.387 65.1608 86.279 65.2442 86.181C65.3106 86.1112 65.3998 86.0675 65.4957 86.058C65.6045 86.0395 65.7164 86.0618 65.8098 86.1207C65.8507 86.1454 65.8855 86.179 65.9118 86.2189C65.938 86.2588 65.9551 86.304 65.9617 86.3513C65.9706 86.421 65.9629 86.4917 65.9392 86.5578C65.9072 86.6433 65.8674 86.7256 65.8203 86.8037L65.2177 87.8916L66.2067 88.9699C66.361 89.1386 66.4446 89.2698 66.4574 89.3636C66.4639 89.4122 66.4592 89.4617 66.4436 89.5082C66.428 89.5547 66.4019 89.597 66.3674 89.6319C66.2934 89.713 66.1922 89.7641 66.083 89.7757C65.9864 89.7912 65.8875 89.7715 65.8042 89.7203C65.6979 89.6465 65.6012 89.5595 65.5166 89.4616Z" fill="#F70431"/>
<path d="M87.4472 19.9913L60.8995 21.6197L61.568 32.5185L88.1157 30.8901L87.4472 19.9913Z" fill="#325D9C"/>
<path d="M69.5749 22.9576C69.515 22.9579 69.4573 22.9349 69.4142 22.8933C68.4721 21.999 67.8117 20.8491 67.5141 19.5847C67.2165 18.3203 67.2946 16.9965 67.7388 15.7759C68.183 14.5553 68.9741 13.491 70.0148 12.7137C71.0555 11.9364 72.3005 11.4799 73.597 11.4003C74.8935 11.3207 76.185 11.6215 77.313 12.2657C78.4409 12.9099 79.3562 13.8695 79.9463 15.0267C80.5365 16.1838 80.7759 17.4881 80.6352 18.7794C80.4944 20.0707 79.9796 21.2927 79.154 22.2955C79.1351 22.3212 79.1113 22.3428 79.0838 22.3589C79.0563 22.375 79.0259 22.3853 78.9943 22.3893C78.9627 22.3932 78.9306 22.3906 78.9001 22.3818C78.8695 22.3729 78.8411 22.3578 78.8165 22.3375C78.792 22.3173 78.7718 22.2922 78.7573 22.2639C78.7428 22.2355 78.7342 22.2045 78.7321 22.1727C78.73 22.141 78.7344 22.1091 78.745 22.0791C78.7557 22.0491 78.7723 22.0216 78.794 21.9982C79.5608 21.0658 80.0388 19.9297 80.169 18.7294C80.2993 17.5292 80.0764 16.317 79.5275 15.2417C78.9786 14.1664 78.1277 13.2748 77.0792 12.6762C76.0307 12.0777 74.8303 11.7983 73.6252 11.8724C72.4202 11.9465 71.263 12.3708 70.2958 13.0932C69.3285 13.8156 68.5932 14.8048 68.1801 15.9392C67.767 17.0737 67.6942 18.304 67.9705 19.4793C68.2468 20.6545 68.8603 21.7235 69.7356 22.5551C69.7693 22.5872 69.7926 22.6287 69.8025 22.6742C69.8125 22.7197 69.8085 22.7671 69.7912 22.8103C69.7739 22.8536 69.7441 22.8906 69.7055 22.9167C69.6669 22.9428 69.6214 22.9568 69.5749 22.9568V22.9576Z" fill="#002E5D"/>
<path d="M83.3723 28.9837C83.3338 28.9836 83.2959 28.9741 83.262 28.9558C83.228 28.9376 83.1991 28.9113 83.1778 28.8792L78.7796 22.2762C78.7488 22.2247 78.739 22.1632 78.7522 22.1047C78.7655 22.0461 78.8008 21.9948 78.8508 21.9616C78.9008 21.9283 78.9617 21.9156 79.0208 21.926C79.08 21.9364 79.1328 21.9692 79.1685 22.0175L83.5667 28.6205C83.6004 28.6718 83.6125 28.7344 83.6003 28.7946C83.5881 28.8548 83.5527 28.9077 83.5017 28.9419C83.4637 28.9685 83.4186 28.9831 83.3723 28.9837Z" fill="#002E5D"/>
<path d="M66.0172 30.0491C65.9774 30.0489 65.9384 30.0386 65.9037 30.0191C65.869 29.9997 65.8399 29.9717 65.8191 29.9378C65.7983 29.9039 65.7864 29.8653 65.7847 29.8256C65.7829 29.7859 65.7913 29.7464 65.8091 29.7108L69.3661 22.6217C69.3948 22.5679 69.4434 22.5274 69.5015 22.5089C69.5597 22.4904 69.6227 22.4954 69.6773 22.5227C69.7318 22.5501 69.7735 22.5977 69.7934 22.6554C69.8133 22.7131 69.8099 22.7763 69.7839 22.8314L66.2269 29.9222C66.2071 29.9606 66.177 29.9929 66.14 30.0153C66.103 30.0377 66.0604 30.0494 66.0172 30.0491Z" fill="#002E5D"/>
<path d="M88.3828 135.945H11.3291C11.3141 135.947 11.299 135.945 11.2848 135.94C11.2706 135.935 11.2575 135.927 11.2464 135.917C11.2354 135.907 11.2265 135.895 11.2205 135.881C11.2144 135.867 11.2113 135.852 11.2113 135.837C11.2113 135.822 11.2144 135.807 11.2205 135.794C11.2265 135.78 11.2354 135.767 11.2464 135.757C11.2575 135.747 11.2706 135.739 11.2848 135.735C11.299 135.73 11.3141 135.728 11.3291 135.729H88.3828C88.3978 135.728 88.4128 135.73 88.4271 135.735C88.4413 135.739 88.4544 135.747 88.4654 135.757C88.4765 135.767 88.4854 135.78 88.4914 135.794C88.4975 135.807 88.5006 135.822 88.5006 135.837C88.5006 135.852 88.4975 135.867 88.4914 135.881C88.4854 135.895 88.4765 135.907 88.4654 135.917C88.4544 135.927 88.4413 135.935 88.4271 135.94C88.4128 135.945 88.3978 135.947 88.3828 135.945Z" fill="#002E5D"/>
<path d="M138.44 139.735H79.0495C79.0207 139.735 78.9932 139.724 78.9728 139.704C78.9525 139.683 78.941 139.656 78.941 139.627C78.941 139.598 78.9525 139.57 78.9728 139.55C78.9932 139.53 79.0207 139.518 79.0495 139.518H138.44C138.468 139.518 138.496 139.53 138.516 139.55C138.537 139.57 138.548 139.598 138.548 139.627C138.548 139.656 138.537 139.683 138.516 139.704C138.496 139.724 138.468 139.735 138.44 139.735Z" fill="#002E5D"/>
<path d="M19.7873 78.012L17.8863 81.1391L15.8455 78.012L17.8863 74.884L19.7873 78.012Z" fill="#C9DAF4"/>
<path d="M132.564 32.9432L130.663 36.0712L128.622 32.9432L130.663 29.8153L132.564 32.9432Z" fill="#C9DAF4"/>
<path d="M47.807 100.046L51.8172 100.632C51.9147 100.646 52.0143 100.639 52.1083 100.609C52.2023 100.579 52.2882 100.528 52.3593 100.46C52.4305 100.392 52.485 100.308 52.5186 100.215C52.5522 100.122 52.564 100.023 52.5532 99.9253L52.1329 95.8942L47.807 100.046Z" fill="#002E5D"/>
<path d="M4.43403 46.1949L2.01367 48.5176L49.7102 98.2203L52.1306 95.8977L4.43403 46.1949Z" fill="white"/>
<path d="M2.52912 48.0235L0.108765 50.3462L47.8053 100.049L50.2257 97.7263L2.52912 48.0235Z" fill="#F70431"/>
<path d="M47.807 100.158C47.7921 100.158 47.7772 100.155 47.7633 100.15C47.7495 100.144 47.737 100.135 47.7267 100.125L0.0305477 50.4221C0.0201734 50.4116 0.0121029 50.399 0.00684714 50.3852C0.00159143 50.3713 -0.000734911 50.3566 1.54488e-05 50.3418C0.000846204 50.3131 0.0126329 50.2857 0.0329581 50.2654L4.35889 46.1155C4.3689 46.1054 4.38079 46.0974 4.39389 46.092C4.40699 46.0865 4.42104 46.0837 4.43522 46.0837C4.44941 46.0837 4.46346 46.0865 4.47655 46.092C4.48965 46.0974 4.50155 46.1054 4.51155 46.1155L52.2101 95.8187C52.2202 95.8287 52.2282 95.8406 52.2336 95.8537C52.239 95.8668 52.2418 95.8809 52.2418 95.8951C52.2418 95.9092 52.239 95.9233 52.2336 95.9364C52.2282 95.9495 52.2202 95.9614 52.2101 95.9714L47.885 100.123C47.875 100.134 47.8629 100.142 47.8495 100.148C47.8361 100.154 47.8217 100.157 47.807 100.158ZM0.261146 50.3482L47.807 99.8924L51.9763 95.891L4.4304 46.3469L0.261146 50.3482Z" fill="#002E5D"/>
</g>
<defs>
<clipPath id="clip0_130_849">
<rect width="150" height="150" fill="white"/>
</clipPath>
</defs>
</svg>
