<svg width="150" height="150" viewBox="0 0 150 150" fill="none" xmlns="http://www.w3.org/2000/svg">
<g id="5" clip-path="url(#clip0_130_956)">
<g id="Group">
<g id="&#208;&#161;&#208;&#187;&#208;&#190;&#208;&#185; 2">
<g id="Layer 1">
<path id="Vector" d="M149.998 65.6823L12.2839 39.387L-0.000107072 103.721L137.714 130.016L149.998 65.6823Z" fill="#F3F8FF"/>
<path id="Vector_2" d="M83.9989 133.713C111.115 133.713 133.097 111.73 133.097 84.614C133.097 57.4977 111.115 35.5155 83.9989 35.5155C56.8826 35.5155 34.9004 57.4977 34.9004 84.614C34.9004 111.73 56.8826 133.713 83.9989 133.713Z" fill="#D6E7FF"/>
<path id="Vector_3" d="M133.21 84.614H132.985C132.985 57.6035 111.01 35.6276 83.9989 35.6276V35.4034C90.4629 35.3978 96.8646 36.6668 102.838 39.1379C108.811 41.609 114.238 45.2336 118.809 49.8044C123.379 54.3751 127.004 59.8023 129.475 65.7753C131.946 71.7483 133.215 78.15 133.21 84.614Z" fill="#002E5D"/>
<path id="Vector_4" d="M83.9989 113.159C99.7638 113.159 112.544 100.379 112.544 84.614C112.544 68.8492 99.7638 56.0692 83.9989 56.0692C68.234 56.0692 55.4541 68.8492 55.4541 84.614C55.4541 100.379 68.234 113.159 83.9989 113.159Z" fill="white"/>
<path id="Vector_5" d="M143.85 23.2072L115.157 11.2341C114.41 10.9235 113.57 10.9219 112.821 11.2297C112.073 11.5375 111.477 12.1295 111.164 12.876L104.072 29.8713C103.762 30.6184 103.76 31.458 104.068 32.2062C104.376 32.9543 104.968 33.5498 105.714 33.8624L117.988 38.9843L99.359 83.6322C99.2452 83.9042 99.1861 84.1959 99.1852 84.4907C99.1843 84.7855 99.2415 85.0776 99.3536 85.3503C99.4658 85.6229 99.6306 85.8708 99.8386 86.0797C100.047 86.2886 100.294 86.4543 100.566 86.5675L111.735 91.2288C112.284 91.458 112.903 91.4593 113.454 91.2325C114.005 91.0057 114.443 90.5694 114.672 90.0195C114.901 89.4696 114.903 88.8512 114.676 88.3003C114.449 87.7494 114.013 87.3111 113.463 87.0819L104.366 83.2882L107.364 76.094L113.752 78.7558C114.302 78.985 114.92 78.9863 115.471 78.7595C116.022 78.5327 116.46 78.0964 116.689 77.5465C116.919 76.9966 116.92 76.3781 116.693 75.8272C116.466 75.2764 116.03 74.8381 115.48 74.6089L109.101 71.9471L122.135 40.7125L134.411 45.8344C135.158 46.1456 135.999 46.1475 136.747 45.8396C137.496 45.5318 138.092 44.9394 138.404 44.1925L145.497 27.1972C145.806 26.4496 145.806 25.6099 145.498 24.8621C145.189 24.1142 144.597 23.5192 143.85 23.2072ZM134.81 41.1395L108.767 30.2759L114.754 15.9301L140.797 26.8015L134.81 41.1395Z" fill="#C9DAF4"/>
<path id="Vector_6" d="M52.1524 126.672H39.5337C39.0663 126.672 38.6875 127.051 38.6875 127.518V130.317C38.6875 130.784 39.0663 131.163 39.5337 131.163H52.1524C52.6197 131.163 52.9986 130.784 52.9986 130.317V127.518C52.9986 127.051 52.6197 126.672 52.1524 126.672Z" fill="#002E5D"/>
<path id="Vector_7" d="M94.1642 61.2427H36.5064C34.3604 61.2427 32.6207 62.9824 32.6207 65.1284V122.786C32.6207 124.932 34.3604 126.672 36.5064 126.672H94.1642C96.3103 126.672 98.0499 124.932 98.0499 122.786V65.1284C98.0499 62.9824 96.3103 61.2427 94.1642 61.2427Z" fill="#325D9C"/>
<path id="Vector_8" d="M92.2141 119.926V67.9897C92.2141 67.4865 91.8062 67.0786 91.3029 67.0786H39.3666C38.8634 67.0786 38.4554 67.4865 38.4554 67.9897V119.926C38.4554 120.429 38.8634 120.837 39.3666 120.837H91.3029C91.8062 120.837 92.2141 120.429 92.2141 119.926Z" fill="#002E5D"/>
<path id="Vector_9" d="M92.3262 102.662H92.102V67.9886C92.102 67.7769 92.018 67.574 91.8683 67.4243C91.7187 67.2747 91.5157 67.1906 91.3041 67.1906H68.7867V66.9664H91.3041C91.5752 66.967 91.835 67.0751 92.0266 67.2669C92.2182 67.4587 92.3259 67.7186 92.3262 67.9897V102.662Z" fill="white"/>
<path id="Vector_10" d="M92.5258 129.714H76.2366V131.875H92.5258V129.714Z" fill="#FFC15A"/>
<g id="Vector_11" style="mix-blend-mode:multiply" opacity="0.25">
<path d="M92.5246 129.714H86.0824V131.875H92.5246V129.714Z" fill="#AF6215"/>
</g>
<path id="Vector_12" d="M92.5258 129.218H76.2366V129.713H92.5258V129.218Z" fill="#FFD469"/>
<path id="Vector_13" d="M92.5258 131.875H76.2366V132.369H92.5258V131.875Z" fill="#DD872A"/>
<path id="Vector_14" opacity="0.4" d="M83.6224 129.218H79.7222V132.369H83.6224V129.218Z" fill="white"/>
<path id="Vector_15" d="M92.5258 132.481H76.2366C76.2069 132.481 76.1784 132.469 76.1573 132.448C76.1363 132.427 76.1245 132.399 76.1245 132.369V131.369C76.1245 131.339 76.1363 131.311 76.1573 131.29C76.1784 131.269 76.2069 131.257 76.2366 131.257C76.2663 131.257 76.2948 131.269 76.3158 131.29C76.3369 131.311 76.3487 131.339 76.3487 131.369V132.258H92.4126V129.921C92.4126 129.891 92.4244 129.863 92.4454 129.842C92.4664 129.821 92.495 129.809 92.5247 129.809C92.5544 129.809 92.5829 129.821 92.6039 129.842C92.625 129.863 92.6368 129.891 92.6368 129.921V132.37C92.6365 132.399 92.6247 132.427 92.6039 132.448C92.5832 132.469 92.5551 132.481 92.5258 132.481Z" fill="#002E5D"/>
<path id="Vector_16" d="M93.3439 126.562H77.0547V128.723H93.3439V126.562Z" fill="#FFC15A"/>
<g id="Vector_17" style="mix-blend-mode:multiply" opacity="0.25">
<path d="M93.3439 126.562H86.9017V128.723H93.3439V126.562Z" fill="#AF6215"/>
</g>
<path id="Vector_18" d="M93.3439 126.068H77.0547V126.562H93.3439V126.068Z" fill="#FFD469"/>
<path id="Vector_19" d="M93.3439 128.723H77.0547V129.218H93.3439V128.723Z" fill="#DD872A"/>
<path id="Vector_20" opacity="0.4" d="M84.4416 126.068H80.5414V129.218H84.4416V126.068Z" fill="white"/>
<path id="Vector_21" d="M93.3439 129.33H77.0547C77.025 129.33 76.9965 129.319 76.9755 129.298C76.9544 129.277 76.9426 129.248 76.9426 129.218V128.217C76.9426 128.188 76.9544 128.159 76.9755 128.138C76.9965 128.117 77.025 128.105 77.0547 128.105C77.0844 128.105 77.1129 128.117 77.134 128.138C77.155 128.159 77.1668 128.188 77.1668 128.217V129.106H93.2318V126.774C93.2318 126.744 93.2437 126.716 93.2647 126.695C93.2857 126.674 93.3142 126.662 93.3439 126.662C93.3736 126.662 93.4022 126.674 93.4232 126.695C93.4442 126.716 93.456 126.744 93.456 126.774V129.223C93.4548 129.252 93.4425 129.279 93.4216 129.299C93.4007 129.319 93.3729 129.33 93.3439 129.33Z" fill="#002E5D"/>
<path id="Vector_22" d="M91.6067 123.412H75.3175V125.574H91.6067V123.412Z" fill="#FFC15A"/>
<g id="Vector_23" style="mix-blend-mode:multiply" opacity="0.25">
<path d="M91.6067 123.412H85.1646V125.572H91.6067V123.412Z" fill="#AF6215"/>
</g>
<path id="Vector_24" d="M91.6067 122.917H75.3175V123.412H91.6067V122.917Z" fill="#FFD469"/>
<path id="Vector_25" d="M91.6067 125.574H75.3175V126.068H91.6067V125.574Z" fill="#DD872A"/>
<path id="Vector_26" opacity="0.4" d="M82.7045 122.917H78.8042V126.068H82.7045V122.917Z" fill="white"/>
<path id="Vector_27" d="M91.6067 126.18H75.3175C75.2878 126.18 75.2593 126.168 75.2383 126.147C75.2173 126.126 75.2054 126.098 75.2054 126.068V125.066C75.2054 125.036 75.2173 125.008 75.2383 124.987C75.2593 124.966 75.2878 124.954 75.3175 124.954C75.3472 124.954 75.3758 124.966 75.3968 124.987C75.4178 125.008 75.4296 125.036 75.4296 125.066V125.956H91.4947V123.619C91.4947 123.589 91.5065 123.561 91.5275 123.54C91.5485 123.519 91.577 123.507 91.6067 123.507C91.6365 123.507 91.665 123.519 91.686 123.54C91.707 123.561 91.7188 123.589 91.7188 123.619V126.068C91.7188 126.098 91.707 126.126 91.686 126.147C91.665 126.168 91.6365 126.18 91.6067 126.18Z" fill="#002E5D"/>
<path id="Vector_28" d="M93.4694 120.261H77.1802V122.422H93.4694V120.261Z" fill="#FFC15A"/>
<g id="Vector_29" style="mix-blend-mode:multiply" opacity="0.25">
<path d="M93.4683 120.261H87.0261V122.422H93.4683V120.261Z" fill="#AF6215"/>
</g>
<path id="Vector_30" d="M93.4694 119.766H77.1802V120.261H93.4694V119.766Z" fill="#FFD469"/>
<path id="Vector_31" d="M93.4694 122.422H77.1802V122.916H93.4694V122.422Z" fill="#DD872A"/>
<path id="Vector_32" opacity="0.4" d="M84.566 119.766H80.6658V122.916H84.566V119.766Z" fill="white"/>
<path id="Vector_33" d="M93.466 123.029H77.1802C77.1505 123.029 77.122 123.018 77.1009 122.997C77.0799 122.976 77.0681 122.947 77.0681 122.917V121.915C77.0681 121.886 77.0799 121.857 77.1009 121.836C77.122 121.815 77.1505 121.803 77.1802 121.803C77.2099 121.803 77.2384 121.815 77.2594 121.836C77.2805 121.857 77.2923 121.886 77.2923 121.915V122.804H93.354V120.467C93.354 120.438 93.3658 120.409 93.3868 120.388C93.4078 120.367 93.4363 120.355 93.466 120.355C93.4958 120.355 93.5243 120.367 93.5453 120.388C93.5663 120.409 93.5781 120.438 93.5781 120.467V122.917C93.5781 122.947 93.5663 122.976 93.5453 122.997C93.5243 123.018 93.4958 123.029 93.466 123.029Z" fill="#002E5D"/>
<path id="Vector_34" d="M92.5851 117.111H76.297V119.271H92.5851V117.111Z" fill="#FFC15A"/>
<g id="Vector_35" style="mix-blend-mode:multiply" opacity="0.25">
<path d="M92.5851 117.111H86.1429V119.271H92.5851V117.111Z" fill="#AF6215"/>
</g>
<path id="Vector_36" d="M92.5851 116.616H76.297V117.111H92.5851V116.616Z" fill="#FFD469"/>
<path id="Vector_37" d="M92.5851 119.271H76.297V119.766H92.5851V119.271Z" fill="#DD872A"/>
<path id="Vector_38" opacity="0.4" d="M83.6829 116.615H79.7826V119.766H83.6829V116.615Z" fill="white"/>
<path id="Vector_39" d="M92.5851 119.878H76.297C76.2673 119.878 76.2388 119.866 76.2178 119.845C76.1967 119.824 76.1849 119.795 76.1849 119.766V118.765C76.1849 118.735 76.1967 118.707 76.2178 118.686C76.2388 118.665 76.2673 118.653 76.297 118.653C76.3267 118.653 76.3552 118.665 76.3763 118.686C76.3973 118.707 76.4091 118.735 76.4091 118.765V119.654H92.473V117.317C92.473 117.287 92.4848 117.259 92.5059 117.238C92.5269 117.217 92.5554 117.205 92.5851 117.205C92.6148 117.205 92.6433 117.217 92.6644 117.238C92.6854 117.259 92.6972 117.287 92.6972 117.317V119.766C92.6972 119.795 92.6854 119.824 92.6644 119.845C92.6433 119.866 92.6148 119.878 92.5851 119.878Z" fill="#002E5D"/>
<path id="Vector_40" d="M94.7594 113.959H78.4702V116.12H94.7594V113.959Z" fill="#FFC15A"/>
<g id="Vector_41" style="mix-blend-mode:multiply" opacity="0.25">
<path d="M94.7583 113.959H88.3162V116.12H94.7583V113.959Z" fill="#AF6215"/>
</g>
<path id="Vector_42" d="M94.7594 113.465H78.4702V113.959H94.7594V113.465Z" fill="#FFD469"/>
<path id="Vector_43" d="M94.7594 116.12H78.4702V116.615H94.7594V116.12Z" fill="#DD872A"/>
<path id="Vector_44" opacity="0.4" d="M85.8561 113.465H81.9558V116.615H85.8561V113.465Z" fill="white"/>
<path id="Vector_45" d="M94.7583 116.728H78.4702C78.4405 116.728 78.412 116.717 78.391 116.696C78.37 116.675 78.3582 116.646 78.3582 116.616V115.616C78.3582 115.586 78.37 115.557 78.391 115.536C78.412 115.515 78.4405 115.503 78.4702 115.503C78.5 115.503 78.5285 115.515 78.5495 115.536C78.5705 115.557 78.5823 115.586 78.5823 115.616V116.504H94.6463V114.166C94.6463 114.137 94.6581 114.108 94.6791 114.087C94.7001 114.066 94.7286 114.054 94.7583 114.054C94.7881 114.054 94.8166 114.066 94.8376 114.087C94.8586 114.108 94.8704 114.137 94.8704 114.166V116.615C94.8706 116.63 94.8678 116.645 94.8622 116.659C94.8566 116.672 94.8484 116.685 94.838 116.695C94.8276 116.706 94.8151 116.714 94.8015 116.72C94.7878 116.726 94.7731 116.728 94.7583 116.728Z" fill="#002E5D"/>
<path id="Vector_46" d="M92.7118 110.809H76.4226V112.971H92.7118V110.809Z" fill="#FFC15A"/>
<g id="Vector_47" style="mix-blend-mode:multiply" opacity="0.25">
<path d="M92.7107 110.809H86.2686V112.969H92.7107V110.809Z" fill="#AF6215"/>
</g>
<path id="Vector_48" d="M92.7118 110.314H76.4226V110.809H92.7118V110.314Z" fill="#FFD469"/>
<path id="Vector_49" d="M92.7118 112.971H76.4226V113.465H92.7118V112.971Z" fill="#DD872A"/>
<path id="Vector_50" opacity="0.4" d="M83.8085 110.314H79.9082V113.465H83.8085V110.314Z" fill="white"/>
<path id="Vector_51" d="M92.7107 113.577H76.4226C76.3929 113.577 76.3644 113.565 76.3434 113.544C76.3224 113.523 76.3105 113.495 76.3105 113.465V112.463C76.3105 112.433 76.3224 112.405 76.3434 112.384C76.3644 112.363 76.3929 112.351 76.4226 112.351C76.4523 112.351 76.4809 112.363 76.5019 112.384C76.5229 112.405 76.5347 112.433 76.5347 112.463V113.353H92.5986V111.015C92.5986 110.985 92.6105 110.957 92.6315 110.936C92.6525 110.915 92.681 110.903 92.7107 110.903C92.7404 110.903 92.769 110.915 92.79 110.936C92.811 110.957 92.8228 110.985 92.8228 111.015V113.465C92.8228 113.495 92.811 113.523 92.79 113.544C92.769 113.565 92.7404 113.577 92.7107 113.577Z" fill="#002E5D"/>
<path id="Vector_52" d="M104.792 131.639H88.5044V133.8H104.792V131.639Z" fill="#FFC15A"/>
<g id="Vector_53" style="mix-blend-mode:multiply" opacity="0.25">
<path d="M104.793 131.639H98.3503V133.8H104.793V131.639Z" fill="#AF6215"/>
</g>
<path id="Vector_54" d="M104.792 131.145H88.5044V131.64H104.792V131.145Z" fill="#FFD469"/>
<path id="Vector_55" d="M104.792 133.8H88.5044V134.295H104.792V133.8Z" fill="#DD872A"/>
<path id="Vector_56" opacity="0.4" d="M95.8903 131.145H91.99V134.295H95.8903V131.145Z" fill="white"/>
<path id="Vector_57" d="M104.793 134.407H88.5044C88.4747 134.407 88.4462 134.396 88.4252 134.375C88.4041 134.354 88.3923 134.325 88.3923 134.295V133.293C88.3923 133.264 88.4041 133.235 88.4252 133.214C88.4462 133.193 88.4747 133.181 88.5044 133.181C88.5341 133.181 88.5626 133.193 88.5837 133.214C88.6047 133.235 88.6165 133.264 88.6165 133.293V134.183H104.68V131.847C104.68 131.817 104.692 131.788 104.713 131.767C104.734 131.746 104.763 131.734 104.793 131.734C104.822 131.734 104.851 131.746 104.872 131.767C104.893 131.788 104.905 131.817 104.905 131.847V134.295C104.905 134.325 104.893 134.354 104.872 134.375C104.851 134.396 104.822 134.407 104.793 134.407Z" fill="#002E5D"/>
<path id="Vector_58" d="M105.611 128.489H89.3226V130.649H105.611V128.489Z" fill="#FFC15A"/>
<g id="Vector_59" style="mix-blend-mode:multiply" opacity="0.25">
<path d="M105.611 128.489H99.1686V130.649H105.611V128.489Z" fill="#AF6215"/>
</g>
<path id="Vector_60" d="M105.611 127.993H89.3226V128.489H105.611V127.993Z" fill="#FFD469"/>
<path id="Vector_61" d="M105.611 130.65H89.3226V131.145H105.611V130.65Z" fill="#DD872A"/>
<path id="Vector_62" opacity="0.4" d="M96.7085 127.993H92.8082V131.144H96.7085V127.993Z" fill="white"/>
<path id="Vector_63" d="M105.612 131.257H89.3192C89.2895 131.257 89.261 131.245 89.24 131.224C89.219 131.203 89.2072 131.175 89.2072 131.145V130.143C89.2072 130.113 89.219 130.085 89.24 130.064C89.261 130.043 89.2895 130.031 89.3192 130.031C89.349 130.031 89.3775 130.043 89.3985 130.064C89.4195 130.085 89.4313 130.113 89.4313 130.143V131.033H105.5V128.695C105.5 128.665 105.512 128.637 105.533 128.616C105.554 128.595 105.582 128.583 105.612 128.583C105.642 128.583 105.67 128.595 105.691 128.616C105.712 128.637 105.724 128.665 105.724 128.695V131.145C105.724 131.175 105.712 131.203 105.691 131.224C105.67 131.245 105.642 131.257 105.612 131.257Z" fill="#002E5D"/>
<path id="Vector_64" d="M103.874 125.338H87.5854V127.499H103.874V125.338Z" fill="#FFC15A"/>
<g id="Vector_65" style="mix-blend-mode:multiply" opacity="0.25">
<path d="M103.874 125.338H97.4314V127.499H103.874V125.338Z" fill="#AF6215"/>
</g>
<path id="Vector_66" d="M103.874 124.843H87.5854V125.338H103.874V124.843Z" fill="#FFD469"/>
<path id="Vector_67" d="M103.874 127.499H87.5854V127.994H103.874V127.499Z" fill="#DD872A"/>
<path id="Vector_68" opacity="0.4" d="M94.9713 124.843H91.071V127.993H94.9713V124.843Z" fill="white"/>
<path id="Vector_69" d="M103.875 128.106H87.5855C87.5557 128.106 87.5272 128.095 87.5062 128.074C87.4852 128.053 87.4734 128.024 87.4734 127.994V126.998C87.4734 126.968 87.4852 126.94 87.5062 126.919C87.5272 126.898 87.5557 126.886 87.5855 126.886C87.6152 126.886 87.6437 126.898 87.6647 126.919C87.6857 126.94 87.6975 126.968 87.6975 126.998V127.887H103.763V125.541C103.763 125.511 103.774 125.483 103.795 125.462C103.816 125.441 103.845 125.429 103.875 125.429C103.904 125.429 103.933 125.441 103.954 125.462C103.975 125.483 103.987 125.511 103.987 125.541V127.991C103.987 128.006 103.985 128.021 103.979 128.035C103.974 128.049 103.966 128.062 103.955 128.072C103.945 128.083 103.932 128.092 103.918 128.098C103.905 128.103 103.89 128.106 103.875 128.106Z" fill="#002E5D"/>
<path id="Vector_70" d="M105.736 122.188H89.4481V124.349H105.736V122.188Z" fill="#FFC15A"/>
<g id="Vector_71" style="mix-blend-mode:multiply" opacity="0.25">
<path d="M105.736 122.188H99.2941V124.349H105.736V122.188Z" fill="#AF6215"/>
</g>
<path id="Vector_72" d="M105.736 121.692H89.4481V122.188H105.736V121.692Z" fill="#FFD469"/>
<path id="Vector_73" d="M105.736 124.349H89.4481V124.844H105.736V124.349Z" fill="#DD872A"/>
<path id="Vector_74" opacity="0.4" d="M96.834 121.692H92.9337V124.843H96.834V121.692Z" fill="white"/>
<path id="Vector_75" d="M105.736 124.955H89.4481C89.4184 124.955 89.3899 124.943 89.3689 124.922C89.3479 124.901 89.3361 124.873 89.3361 124.843V123.842C89.3361 123.812 89.3479 123.784 89.3689 123.763C89.3899 123.742 89.4184 123.73 89.4481 123.73C89.4779 123.73 89.5064 123.742 89.5274 123.763C89.5484 123.784 89.5602 123.812 89.5602 123.842V124.731H105.624V122.394C105.624 122.364 105.636 122.336 105.657 122.315C105.678 122.294 105.707 122.282 105.736 122.282C105.766 122.282 105.794 122.294 105.815 122.315C105.837 122.336 105.848 122.364 105.848 122.394V124.843C105.848 124.873 105.837 124.901 105.815 124.922C105.794 124.943 105.766 124.955 105.736 124.955Z" fill="#002E5D"/>
<g id="Vector_76" style="mix-blend-mode:multiply" opacity="0.4">
<path d="M82.9544 132.369H76.2365V129.218H77.0547V126.068H75.3186V122.917H77.1802V119.766H76.297V116.616H78.4702V113.465H76.4226V110.314H81.2071L81.2463 110.809L81.4167 112.971L81.4963 113.959L81.6666 116.12L81.7058 116.616L81.7451 117.111L81.9166 119.271L81.9558 119.766L81.995 120.261L82.1654 122.422L82.2046 122.917L82.2449 123.412L82.4164 125.574L82.4545 126.068L82.4949 126.562L82.6652 128.723L82.7044 129.218L82.7437 129.714L82.9152 131.875L82.9544 132.369Z" fill="#AF6215"/>
</g>
<path id="Vector_77" d="M79.7725 59.213V128.7C79.7725 129.318 79.4733 129.75 79.0889 129.729H72.8328V58.183H79.0889C79.4733 58.1628 79.7725 58.5954 79.7725 59.213Z" fill="#325D9C"/>
<path id="Vector_78" d="M73.4458 59.213V128.701C73.4458 129.373 73.0905 129.821 72.6613 129.709L38.9005 120.953C38.6539 120.889 38.4521 120.429 38.4521 119.926V67.9886C38.4521 67.4865 38.6505 67.0259 38.9005 66.9631L72.6568 58.1987C73.0905 58.0866 73.4458 58.5405 73.4458 59.213Z" fill="#C9DAF4"/>
<g id="Vector_79" style="mix-blend-mode:multiply" opacity="0.25">
<path d="M79.7726 87.4473V128.703C79.7726 129.32 79.4733 129.752 79.0889 129.732H72.8328C72.7737 129.737 72.7141 129.732 72.6568 129.717L38.9005 120.953C38.6539 120.889 38.4521 120.429 38.4521 119.926V110.162L72.8328 87.8452L73.4458 87.4473H79.7726Z" fill="#325D9C"/>
</g>
<path id="Vector_80" d="M54.3176 102.662C56.9669 102.662 59.1145 98.7649 59.1145 93.9578C59.1145 89.1508 56.9669 85.254 54.3176 85.254C51.6684 85.254 49.5208 89.1508 49.5208 93.9578C49.5208 98.7649 51.6684 102.662 54.3176 102.662Z" fill="#002E5D"/>
<path id="Vector_81" d="M54.2225 88.8572H51.0922V99.0562H54.2225C55.7747 99.0562 57.0322 96.7732 57.0322 93.9567C57.0322 91.1402 55.7747 88.8572 54.2225 88.8572Z" fill="#C9DAF4"/>
<path id="Vector_82" d="M51.0921 99.0574C52.6445 99.0574 53.903 96.7743 53.903 93.9579C53.903 91.1415 52.6445 88.8584 51.0921 88.8584C49.5397 88.8584 48.2812 91.1415 48.2812 93.9579C48.2812 96.7743 49.5397 99.0574 51.0921 99.0574Z" fill="#325D9C"/>
<path id="Vector_83" d="M38.5675 96.8943H38.3434V67.9886C38.3434 67.4204 38.5675 66.9317 38.8724 66.8544L72.6276 58.0911C72.7192 58.0657 72.8155 58.0627 72.9085 58.0822C73.0015 58.1017 73.0885 58.1432 73.1622 58.2032C73.4099 58.3937 73.5579 58.7725 73.5579 59.2119V80.4168H73.3337V59.213C73.3337 58.8398 73.2216 58.5282 73.0255 58.3791C72.979 58.3416 72.9244 58.3155 72.866 58.3031C72.8075 58.2906 72.747 58.2921 72.6893 58.3074L38.9284 67.0707C38.7581 67.1155 38.5675 67.5033 38.5675 67.9886V96.8943Z" fill="#002E5D"/>
<path id="Vector_84" d="M40.1075 76.2195C40.1075 75.3071 39.3679 74.5675 38.4555 74.5675C37.5431 74.5675 36.8035 75.3071 36.8035 76.2195V84.6174C36.8035 85.5298 37.5431 86.2694 38.4555 86.2694C39.3679 86.2694 40.1075 85.5298 40.1075 84.6174V76.2195Z" fill="#002E5D"/>
<path id="Vector_85" d="M40.1075 103.297C40.1075 102.385 39.3679 101.645 38.4555 101.645C37.5431 101.645 36.8035 102.385 36.8035 103.297V111.695C36.8035 112.607 37.5431 113.347 38.4555 113.347C39.3679 113.347 40.1075 112.607 40.1075 111.695V103.297Z" fill="#002E5D"/>
<path id="Vector_86" d="M32.7317 78.452H32.5076V121.692H32.7317V78.452Z" fill="#002E5D"/>
<path id="Vector_87" d="M79.4327 46.1922C79.6777 45.1542 79.0348 44.1141 77.9968 43.8692C76.9589 43.6242 75.9188 44.267 75.6738 45.305C75.4288 46.343 76.0717 47.383 77.1097 47.628C78.1477 47.873 79.1877 47.2302 79.4327 46.1922Z" fill="#C9DAF4"/>
<path id="Vector_88" d="M143.265 118.235C144.834 116.665 144.834 114.121 143.265 112.552C141.695 110.983 139.151 110.983 137.582 112.552C136.013 114.121 136.013 116.665 137.582 118.235C139.151 119.804 141.695 119.804 143.265 118.235Z" fill="#C9DAF4"/>
<path id="Vector_89" d="M123.621 136.089H97.0873C97.0576 136.089 97.0291 136.077 97.008 136.056C96.987 136.035 96.9752 136.006 96.9752 135.976C96.9752 135.947 96.987 135.918 97.008 135.897C97.0291 135.876 97.0576 135.864 97.0873 135.864H123.621C123.651 135.864 123.68 135.876 123.701 135.897C123.722 135.918 123.734 135.947 123.734 135.976C123.734 136.006 123.722 136.035 123.701 136.056C123.68 136.077 123.651 136.089 123.621 136.089Z" fill="#002E5D"/>
<path id="Vector_90" d="M107.622 138.212H51.6726C51.6429 138.212 51.6144 138.201 51.5934 138.18C51.5724 138.159 51.5605 138.13 51.5605 138.1C51.5605 138.071 51.5724 138.042 51.5934 138.021C51.6144 138 51.6429 137.988 51.6726 137.988H107.622C107.652 137.988 107.681 138 107.702 138.021C107.723 138.042 107.734 138.071 107.734 138.1C107.734 138.13 107.723 138.159 107.702 138.18C107.681 138.201 107.652 138.212 107.622 138.212Z" fill="#002E5D"/>
</g>
</g>
</g>
</g>
<defs>
<clipPath id="clip0_130_956">
<rect width="150" height="150" fill="white"/>
</clipPath>
</defs>
</svg>
